
<svg xmlns="http://www.w3.org/2000/svg" width="22" height="20" viewBox="0 0 22 20" fill="none">
  <path d="M9.62005 1C5.0608 1.45267 1.5 5.29936 1.5 9.97772C1.5 14.9606 5.53941 19 10.5223 19C15.2006 19 19.0473 15.4392 19.5 10.88" stroke="#6B7280" stroke-width="1.5" stroke-linecap="round" stroke-linejoin="round"/>
  <path d="M10.4287 9.9685C10.1351 10.2607 10.1341 10.7356 10.4263 11.0292C10.7186 11.3227 11.1934 11.3237 11.487 11.0315L10.4287 9.9685ZM21.0292 1.5315C21.3227 1.23926 21.3237 0.764387 21.0315 0.470845C20.7393 0.177304 20.2644 0.176253 19.9708 0.468497L21.0292 1.5315ZM11.4715 10.7729L11.6023 10.0344L11.4715 10.7729ZM15.5001 11.75C15.9143 11.75 16.25 11.4141 16.25 10.9999C16.2499 10.5857 15.9141 10.25 15.4999 10.25L15.5001 11.75ZM11.25 6C11.25 5.58579 10.9142 5.25 10.5 5.25C10.0858 5.25 9.74998 5.58579 9.74998 6H11.25ZM10.727 10.0283L9.98851 10.1589V10.1589L10.727 10.0283ZM11.487 11.0315L21.0292 1.5315L19.9708 0.468497L10.4287 9.9685L11.487 11.0315ZM11.3407 11.5114C12.0416 11.6356 13.0984 11.693 13.9419 11.7213C14.3718 11.7357 14.7604 11.7428 15.0415 11.7464C15.1821 11.7482 15.2962 11.7491 15.3753 11.7496C15.4149 11.7498 15.4457 11.7499 15.4669 11.7499C15.4774 11.75 15.4856 11.75 15.4911 11.75C15.4939 11.75 15.4961 11.75 15.4976 11.75C15.4983 11.75 15.4989 11.75 15.4993 11.75C15.4995 11.75 15.4997 11.75 15.4998 11.75C15.4999 11.75 15.4999 11.75 15.5 11.75C15.5 11.75 15.5001 11.75 15.5 11C15.4999 10.25 15.4999 10.25 15.4999 10.25C15.4999 10.25 15.4999 10.25 15.4999 10.25C15.4999 10.25 15.4998 10.25 15.4997 10.25C15.4994 10.25 15.499 10.25 15.4984 10.25C15.4973 10.25 15.4954 10.25 15.493 10.25C15.4881 10.25 15.4807 10.25 15.4708 10.2499C15.4511 10.2499 15.4218 10.2498 15.3838 10.2496C15.3078 10.2491 15.1973 10.2483 15.0606 10.2465C14.7869 10.2431 14.409 10.2361 13.9921 10.2221C13.1423 10.1937 12.1849 10.1376 11.6023 10.0344L11.3407 11.5114ZM10.5 6C9.74998 6 9.74998 6.00004 9.74998 6.00009C9.74998 6.00012 9.74998 6.00018 9.74998 6.00025C9.74998 6.00037 9.74998 6.00054 9.74998 6.00074C9.74998 6.00116 9.74999 6.00174 9.74999 6.00248C9.74999 6.00397 9.74999 6.00612 9.74999 6.00891C9.75 6.01448 9.75001 6.02261 9.75004 6.03317C9.7501 6.0543 9.75021 6.08517 9.75044 6.12474C9.75089 6.20386 9.75179 6.31787 9.75359 6.45852C9.75719 6.7396 9.76438 7.12818 9.77879 7.55797C9.80706 8.40143 9.86453 9.45814 9.98851 10.1589L11.4656 9.8976C11.3625 9.31494 11.3064 8.35753 11.2779 7.50771C11.264 7.09087 11.257 6.71303 11.2535 6.43934C11.2517 6.30261 11.2509 6.19216 11.2504 6.11616C11.2502 6.07817 11.2501 6.04881 11.25 6.0291C11.25 6.01925 11.25 6.01181 11.25 6.00692C11.25 6.00447 11.25 6.00266 11.25 6.0015C11.25 6.00092 11.25 6.00051 11.25 6.00026C11.25 6.00013 11.25 6.00005 11.25 6C11.25 5.99998 11.25 5.99998 11.25 5.99997C11.25 5.99998 11.25 6 10.5 6ZM11.6023 10.0344C11.5518 10.0255 11.5243 10.0066 11.5089 9.99113C11.4935 9.97568 11.4745 9.94818 11.4656 9.8976L9.98851 10.1589C10.1126 10.8603 10.6391 11.3872 11.3407 11.5114L11.6023 10.0344Z" fill="#6B7280"/>
</svg>