<svg width="16" height="16" viewBox="0 0 16 16" fill="none" xmlns="http://www.w3.org/2000/svg">
<path d="M2.66602 8.00047V9.69654C2.66602 11.8599 2.66602 12.9416 3.25673 13.6742C3.37607 13.8222 3.51089 13.9571 3.6589 14.0764C4.39156 14.6671 5.47323 14.6671 7.63655 14.6671C8.10695 14.6671 8.34208 14.6671 8.55748 14.5911C8.60228 14.5753 8.64615 14.5571 8.68902 14.5366C8.89508 14.4381 9.06135 14.2718 9.39395 13.9392L12.5516 10.7815C12.937 10.3961 13.1297 10.2034 13.2312 9.95841C13.3327 9.71341 13.3327 9.44087 13.3327 8.89587V6.66714C13.3327 4.15295 13.3327 2.89588 12.5516 2.11483C11.8455 1.40872 10.7503 1.34097 8.68902 1.33447M8.66602 14.3338V14.0005C8.66602 12.1148 8.66602 11.172 9.25182 10.5862C9.83762 10.0005 10.7804 10.0005 12.666 10.0005H12.9993" stroke="#FF7959" stroke-width="1.3" stroke-linecap="round" stroke-linejoin="round"/>
<path d="M7.99935 3.99967H2.66602M5.33268 1.33301V6.66634" stroke="#FF7959" stroke-width="1.3" stroke-linecap="round" stroke-linejoin="round"/>
</svg>
