<svg width="15" height="14" viewBox="0 0 15 14" fill="none" xmlns="http://www.w3.org/2000/svg">
<g id="elements">
<path id="Vector" d="M2.9533 9.19751C2.11491 9.68892 -0.0832728 10.6923 1.25557 11.9479C1.90958 12.5613 2.63799 12.9999 3.55377 12.9999H8.7794C9.69518 12.9999 10.4236 12.5613 11.0776 11.9479C12.4164 10.6923 10.2183 9.68892 9.37987 9.19751C7.41388 8.04517 4.91929 8.04517 2.9533 9.19751Z" stroke="#FF7959" stroke-width="1.3" stroke-linecap="round" stroke-linejoin="round"/>
<path id="Ellipse 1381" d="M8.83333 3.66667C8.83333 5.13943 7.63943 6.33333 6.16667 6.33333C4.69391 6.33333 3.5 5.13943 3.5 3.66667C3.5 2.19391 4.69391 1 6.16667 1C7.63943 1 8.83333 2.19391 8.83333 3.66667Z" stroke="#FF7959" stroke-width="1.3"/>
<path id="Vector_2" d="M12.4999 1.66675V5.00008M14.1666 3.33341L10.8333 3.33341" stroke="#FF7959" stroke-width="1.5" stroke-linecap="round" stroke-linejoin="round"/>
</g>
</svg>
