<svg width="14" height="20" viewBox="0 0 14 20" fill="none" xmlns="http://www.w3.org/2000/svg">
<g id="elements">
<path id="Vector 4357" d="M10.6852 5.83341C10.903 4.84838 11.5936 3.17042 10.7838 2.27677C10.231 1.66675 9.19133 1.66675 7.11191 1.66675L6.88939 1.66675C4.80997 1.66675 3.77026 1.66675 3.21747 2.27677C2.40765 3.17042 3.09834 4.84838 3.3161 5.83341" stroke="#FF7959" stroke-width="1.5" stroke-linecap="round" stroke-linejoin="round"/>
<path id="Vector" d="M12.006 12.2107L8.48931 16.9655C7.81479 17.8775 7.47753 18.3335 7.00033 18.3335C6.52313 18.3335 6.18588 17.8775 5.51136 16.9655L1.9947 12.2107C1.43079 11.4482 1.14884 11.067 1.1679 10.6608C1.18696 10.2545 1.5636 9.82897 2.31688 8.97785C3.04289 8.15753 3.31577 7.30806 3.31577 5.83387L10.6849 5.8335C10.6849 7.30768 10.958 8.15731 11.6839 8.97773C12.4371 9.82904 12.8137 10.2547 12.8328 10.6609C12.8518 11.0671 12.5698 11.4483 12.006 12.2107Z" stroke="#FF7959" stroke-width="1.5" stroke-linecap="round" stroke-linejoin="round"/>
<path id="Vector_2" d="M8.25 11.6667C7.88228 11.9317 7.45536 12.0834 7 12.0834M7 12.0834C6.54464 12.0834 6.11772 11.9317 5.75 11.6667M7 12.0834L7 18.3334" stroke="#FF7959" stroke-width="1.5" stroke-linecap="round"/>
</g>
</svg>
