<svg width="17" height="16" viewBox="0 0 17 16" fill="none" xmlns="http://www.w3.org/2000/svg">
<path d="M3.01858 7.96149C2.38656 6.85946 2.08139 5.95957 1.89739 5.04739C1.62524 3.6983 2.24804 2.38046 3.27975 1.53957C3.71579 1.18417 4.21565 1.3056 4.4735 1.76818L5.05562 2.81252C5.51702 3.6403 5.74772 4.05418 5.70197 4.49298C5.65621 4.93178 5.34508 5.28916 4.72281 6.00392L3.01858 7.96149ZM3.01858 7.96149C4.29783 10.1921 6.30539 12.2008 8.53859 13.4815M8.53859 13.4815C9.64063 14.1135 10.5405 14.4187 11.4527 14.6027C12.8018 14.8748 14.1196 14.252 14.9605 13.2203C15.3159 12.7843 15.1945 12.2844 14.7319 12.0266L13.6876 11.4445C12.8598 10.9831 12.4459 10.7524 12.0071 10.7981C11.5683 10.8439 11.2109 11.155 10.4962 11.7773L8.53859 13.4815Z" stroke="#6B7280" stroke-width="1.3" stroke-linejoin="round"/>
</svg>
