<svg width="22" height="23" viewBox="0 0 22 23" fill="none" xmlns="http://www.w3.org/2000/svg">
<g id="elements">
<path id="Rectangle 2229" d="M1 5.5C1 3.61438 1 2.67157 1.58579 2.08579C2.17157 1.5 3.11438 1.5 5 1.5C6.88562 1.5 7.82843 1.5 8.41421 2.08579C9 2.67157 9 3.61438 9 5.5V7.5C9 9.38562 9 10.3284 8.41421 10.9142C7.82843 11.5 6.88562 11.5 5 11.5C3.11438 11.5 2.17157 11.5 1.58579 10.9142C1 10.3284 1 9.38562 1 7.5V5.5Z" stroke="black" stroke-width="1.5"/>
<path id="Rectangle 2230" d="M1 18.5C1 17.5681 1 17.1022 1.15224 16.7346C1.35523 16.2446 1.74458 15.8552 2.23463 15.6522C2.60218 15.5 3.06812 15.5 4 15.5H6C6.93188 15.5 7.39782 15.5 7.76537 15.6522C8.25542 15.8552 8.64477 16.2446 8.84776 16.7346C9 17.1022 9 17.5681 9 18.5C9 19.4319 9 19.8978 8.84776 20.2654C8.64477 20.7554 8.25542 21.1448 7.76537 21.3478C7.39782 21.5 6.93188 21.5 6 21.5H4C3.06812 21.5 2.60218 21.5 2.23463 21.3478C1.74458 21.1448 1.35523 20.7554 1.15224 20.2654C1 19.8978 1 19.4319 1 18.5Z" stroke="black" stroke-width="1.5"/>
<path id="Rectangle 2231" d="M13 15.5C13 13.6144 13 12.6716 13.5858 12.0858C14.1716 11.5 15.1144 11.5 17 11.5C18.8856 11.5 19.8284 11.5 20.4142 12.0858C21 12.6716 21 13.6144 21 15.5V17.5C21 19.3856 21 20.3284 20.4142 20.9142C19.8284 21.5 18.8856 21.5 17 21.5C15.1144 21.5 14.1716 21.5 13.5858 20.9142C13 20.3284 13 19.3856 13 17.5V15.5Z" stroke="black" stroke-width="1.5"/>
<path id="Rectangle 2232" d="M13 4.5C13 3.56812 13 3.10218 13.1522 2.73463C13.3552 2.24458 13.7446 1.85523 14.2346 1.65224C14.6022 1.5 15.0681 1.5 16 1.5H18C18.9319 1.5 19.3978 1.5 19.7654 1.65224C20.2554 1.85523 20.6448 2.24458 20.8478 2.73463C21 3.10218 21 3.56812 21 4.5C21 5.43188 21 5.89782 20.8478 6.26537C20.6448 6.75542 20.2554 7.14477 19.7654 7.34776C19.3978 7.5 18.9319 7.5 18 7.5H16C15.0681 7.5 14.6022 7.5 14.2346 7.34776C13.7446 7.14477 13.3552 6.75542 13.1522 6.26537C13 5.89782 13 5.43188 13 4.5Z" stroke="black" stroke-width="1.5"/>
</g>
</svg>
