<svg width="17" height="18" viewBox="0 0 17 18" fill="none" xmlns="http://www.w3.org/2000/svg">
<g id="elements">
<path id="Rectangle 980" d="M14.4375 3.854L13.9469 11.7905C13.8215 13.8183 13.7589 14.8321 13.2506 15.5611C12.9993 15.9215 12.6758 16.2256 12.3006 16.4542C11.5417 16.9165 10.5259 16.9165 8.49426 16.9165C6.45997 16.9165 5.44282 16.9165 4.68342 16.4533C4.30797 16.2243 3.98433 15.9196 3.73313 15.5587C3.22503 14.8286 3.16373 13.8133 3.04115 11.7827L2.5625 3.854" stroke="#111928" stroke-width="1.3" stroke-linecap="round"/>
<path id="Vector" d="M1.375 3.85408H15.625M11.7108 3.85408L11.1703 2.7392C10.8113 1.99862 10.6318 1.62833 10.3222 1.39739C10.2535 1.34616 10.1808 1.3006 10.1047 1.26114C9.76185 1.08325 9.35034 1.08325 8.52733 1.08325C7.68366 1.08325 7.26182 1.08325 6.91325 1.2686C6.83599 1.30967 6.76228 1.35709 6.69286 1.41034C6.37963 1.65064 6.20466 2.03448 5.85473 2.80216L5.37523 3.85408" stroke="#111928" stroke-width="1.3" stroke-linecap="round"/>
<path id="Line 5" d="M6.52075 12.5625L6.52075 7.8125" stroke="#111928" stroke-width="1.3" stroke-linecap="round"/>
<path id="Line 6" d="M10.4792 12.5625L10.4792 7.8125" stroke="#111928" stroke-width="1.3" stroke-linecap="round"/>
</g>
</svg>
