<svg width="13" height="16" viewBox="0 0 13 16" fill="none" xmlns="http://www.w3.org/2000/svg">
<g id="elements">
<path id="Vector 4381" d="M9.16699 11.3333L4.50033 11.3333" stroke="#6B7280" stroke-width="1.3" stroke-linecap="round" stroke-linejoin="round"/>
<path id="Vector 4382" d="M9.16699 8.6665L7.16699 8.6665" stroke="#6B7280" stroke-width="1.3" stroke-linecap="round" stroke-linejoin="round"/>
<path id="Rectangle 2173" d="M12.167 9.33317C12.167 11.8473 12.167 13.1044 11.3371 13.8855C10.5073 14.6665 9.17162 14.6665 6.50033 14.6665H5.98517C3.81104 14.6665 2.72397 14.6665 1.96904 14.1346C1.75274 13.9822 1.56071 13.8015 1.39879 13.5979C0.833658 12.8874 0.833658 11.8643 0.833658 9.81802V8.12105C0.833658 6.1456 0.833658 5.15788 1.14628 4.369C1.64887 3.10079 2.71175 2.10043 4.05923 1.62741C4.89741 1.33317 5.94687 1.33317 8.04578 1.33317C9.24516 1.33317 9.84485 1.33317 10.3238 1.5013C11.0938 1.7716 11.7012 2.34324 11.9883 3.06793C12.167 3.51872 12.167 4.08313 12.167 5.21196V9.33317Z" stroke="#6B7280" stroke-width="1.3" stroke-linejoin="round"/>
<path id="Vector" d="M0.833333 8C0.833333 6.7727 1.82826 5.77778 3.05556 5.77778C3.49941 5.77778 4.02269 5.85555 4.45424 5.73992C4.83768 5.63718 5.13718 5.33768 5.23992 4.95424C5.35555 4.52269 5.27778 3.99941 5.27778 3.55556C5.27778 2.32826 6.2727 1.33333 7.5 1.33333" stroke="#6B7280" stroke-linecap="round" stroke-linejoin="round"/>
</g>
</svg>
