<svg width="19" height="20" viewBox="0 0 19 20" fill="none" xmlns="http://www.w3.org/2000/svg">
<g id="pencil-edit-02">
<path id="Vector" d="M13.003 4.14569L13.7867 3.36195C14.436 2.71268 15.4887 2.71268 16.138 3.36195C16.7872 4.01123 16.7872 5.0639 16.138 5.71318L15.3542 6.49692M13.003 4.14569L7.731 9.41765C7.32922 9.8195 7.0442 10.3228 6.9064 10.8741L6.33325 13.1667L8.62584 12.5935C9.17708 12.4557 9.68042 12.1707 10.0823 11.7689L15.3542 6.49692M13.003 4.14569L15.3542 6.49692" stroke="#111928" stroke-width="1.3" stroke-linejoin="round"/>
<path id="Vector_2" d="M15.0416 11.1874C15.0416 13.79 15.0416 15.0913 14.3228 15.9672C14.1913 16.1275 14.0442 16.2745 13.8839 16.4061C13.008 17.1249 11.7067 17.1249 9.10409 17.1249H8.70833C5.72277 17.1249 4.23 17.1249 3.30251 16.1974C2.37502 15.27 2.375 13.7771 2.375 10.7916V10.3958C2.375 7.79316 2.375 6.49188 3.09379 5.61602C3.22538 5.45567 3.37242 5.30864 3.53276 5.17704C4.40863 4.45825 5.70991 4.45825 8.3125 4.45825" stroke="#111928" stroke-width="1.3" stroke-linecap="round" stroke-linejoin="round"/>
</g>
</svg>
