<svg xmlns="http://www.w3.org/2000/svg" width="116" height="121" viewBox="0 0 116 121" fill="none">
<path d="M43.1574 1.6578C43.1574 1.6578 55.9919 -0.947252 67.6698 1.6578C74.8122 3.25054 89.8525 7.02746 93.4045 15.5881C96.9565 24.1487 79.8614 31.4522 88.2592 40.1367C91.8826 43.8833 109.269 48.8239 108.291 73.1249C107.313 97.4258 81.8393 112.239 46.4375 111.579C11.0357 110.919 -9.40273 78.6816 4.28879 62.8064C17.9803 46.9313 23.8756 46.8845 17.6699 33.9555C11.4642 21.0265 20.0791 5.35769 43.1574 1.6578Z" fill="#FF7959"/>
<path opacity="0.7" d="M43.1574 1.6578C43.1574 1.6578 55.9919 -0.947252 67.6698 1.6578C74.8122 3.25054 89.8525 7.02746 93.4045 15.5881C96.9565 24.1487 79.8614 31.4522 88.2592 40.1367C91.8826 43.8833 109.269 48.8239 108.291 73.1249C107.313 97.4258 81.8393 112.239 46.4375 111.579C11.0357 110.919 -9.40273 78.6816 4.28879 62.8064C17.9803 46.9313 23.8756 46.8845 17.6699 33.9555C11.4642 21.0265 20.0791 5.35769 43.1574 1.6578Z" fill="white"/>
<path d="M18.6754 41.2837L21.0654 48.2819L9.60453 52.2073L6.76953 43.9025L18.2304 39.9771L18.6754 41.2837Z" stroke="#1F2A37" stroke-width="0.5" stroke-linecap="round" stroke-linejoin="round"/>
<path d="M19.8676 44.7691L21.0654 48.2819L9.60448 52.2074L9.0166 50.4854L11.3269 46.9808L15.0877 48.447L17.7716 43.9136L19.8676 44.7691Z" stroke="#1F2A37" stroke-width="0.5" stroke-linecap="round" stroke-linejoin="round"/>
<path d="M12.7088 44.3264C12.7891 44.5601 12.7983 44.8123 12.7353 45.0513C12.6723 45.2902 12.5399 45.5051 12.3549 45.6687C12.17 45.8322 11.9407 45.9372 11.6961 45.9702C11.4515 46.0032 11.2027 45.9629 10.981 45.8542C10.7594 45.7455 10.5749 45.5735 10.4509 45.3598C10.327 45.1461 10.2691 44.9004 10.2847 44.6537C10.3003 44.4071 10.3886 44.1706 10.5384 43.9743C10.6883 43.7779 10.8929 43.6305 11.1265 43.5506C11.2812 43.4973 11.4449 43.4751 11.6083 43.4853C11.7716 43.4955 11.9313 43.5378 12.0783 43.6098C12.2253 43.6819 12.3566 43.7823 12.4648 43.9052C12.573 44.0282 12.6559 44.1713 12.7088 44.3264Z" stroke="#1F2A37" stroke-width="0.5" stroke-linecap="round" stroke-linejoin="round"/>
<path d="M86.9738 98.7242L85.3942 105.951L73.5625 103.354L75.436 94.7822L87.2705 97.3763L86.9738 98.7242Z" stroke="#1F2A37" stroke-width="0.5" stroke-linecap="round" stroke-linejoin="round"/>
<path d="M75.9082 101.505L84.0369 103.288" stroke="#1F2A37" stroke-width="0.5" stroke-linecap="round" stroke-linejoin="round"/>
<path d="M76.5728 97.7065C76.5728 97.7065 75.7487 101.489 79.9682 102.416C84.1878 103.343 85.0147 99.5496 85.0147 99.5496" stroke="#1F2A37" stroke-width="0.5" stroke-linecap="round" stroke-linejoin="round"/>
<path d="M76.9303 97.7861C76.9081 97.8795 76.8502 97.9606 76.7692 98.012C76.6881 98.0634 76.5902 98.081 76.4963 98.0612C76.4255 98.0457 76.361 98.0095 76.3108 97.9571C76.2606 97.9048 76.2271 97.8387 76.2145 97.7673C76.202 97.6958 76.2109 97.6223 76.2401 97.5559C76.2694 97.4896 76.3177 97.4334 76.379 97.3946C76.4402 97.3558 76.5115 97.3361 76.5839 97.338C76.6564 97.3399 76.7266 97.3633 76.7857 97.4053C76.8448 97.4473 76.8901 97.5059 76.9158 97.5737C76.9416 97.6415 76.9466 97.7154 76.9303 97.7861Z" fill="white" stroke="#1F2A37" stroke-width="0.5" stroke-linecap="round" stroke-linejoin="round"/>
<path d="M85.3717 99.6377C85.3648 99.6877 85.3475 99.7356 85.3212 99.7786C85.2948 99.8216 85.2598 99.8586 85.2185 99.8874C85.1771 99.9162 85.1303 99.9362 85.0809 99.9459C85.0315 99.9557 84.9806 99.9552 84.9314 99.9444C84.8822 99.9335 84.8358 99.9126 84.795 99.883C84.7543 99.8533 84.7201 99.8155 84.6946 99.772C84.6692 99.7285 84.653 99.6801 84.6471 99.6301C84.6411 99.58 84.6456 99.5292 84.6602 99.4809C84.6869 99.3928 84.7458 99.3179 84.8252 99.2714C84.9046 99.2248 84.9986 99.2099 85.0884 99.2297C85.1783 99.2495 85.2573 99.3026 85.3099 99.3782C85.3624 99.4538 85.3845 99.5465 85.3717 99.6377Z" fill="white" stroke="#1F2A37" stroke-width="0.5" stroke-linecap="round" stroke-linejoin="round"/>
<path d="M76.1331 101.244L75.5078 101.107L75.3709 101.733L75.9962 101.87L76.1331 101.244Z" fill="white" stroke="#1F2A37" stroke-width="0.5" stroke-linecap="round" stroke-linejoin="round"/>
<path d="M80.3518 102.167L79.7266 102.03L79.5897 102.656L80.2149 102.793L80.3518 102.167Z" fill="white" stroke="#1F2A37" stroke-width="0.5" stroke-linecap="round" stroke-linejoin="round"/>
<path d="M84.5755 103.094L83.9502 102.957L83.8133 103.583L84.4386 103.72L84.5755 103.094Z" fill="white" stroke="#1F2A37" stroke-width="0.5" stroke-linecap="round" stroke-linejoin="round"/>
<path d="M32.2212 20.1241L29.2324 26.8884L18.1533 21.9754L21.7026 13.9512L32.7789 18.8614L32.2212 20.1241Z" stroke="#1F2A37" stroke-width="0.5" stroke-linecap="round" stroke-linejoin="round"/>
<path d="M26.406 22.9134C26.1945 23.3921 25.4281 23.5186 24.6974 23.1885C23.9666 22.8584 23.5463 22.212 23.7578 21.7306C23.9694 21.2492 24.7358 21.1254 25.4665 21.4555C26.1973 21.7856 26.6176 22.432 26.406 22.9134Z" fill="#1F2A37"/>
<path d="M26.9664 17.6294L24.0105 21.8519L23.7578 21.7392L25.9198 18.6527L26.4692 17.8495C26.6408 17.803 26.804 17.7296 26.9527 17.6321L26.9664 17.6294Z" fill="#1F2A37"/>
<path d="M26.9631 17.6318L26.2461 18.6497C26.1375 18.6612 26.0279 18.6612 25.9192 18.6497C25.595 18.6231 25.2797 18.5294 24.9935 18.3746C24.7991 18.2698 24.5791 18.2223 24.3589 18.2373C24.1388 18.2524 23.9273 18.3296 23.749 18.4598C23.7847 18.4158 24.4825 17.5438 25.444 17.8492C25.781 17.9557 26.1426 17.9557 26.4796 17.8492C26.6512 17.8027 26.8144 17.7293 26.9631 17.6318Z" fill="#1F2A37"/>
<path d="M106.057 74.9599L103.478 81.892L92.127 77.6585L95.1872 69.4307L106.538 73.667L106.057 74.9599Z" stroke="#1F2A37" stroke-width="0.5" stroke-linecap="round" stroke-linejoin="round"/>
<path d="M98.4183 73.4355L95.5723 74.7394L96.8744 77.5921" stroke="#1F2A37" stroke-width="0.5" stroke-linecap="round" stroke-linejoin="round"/>
<path d="M99.9316 78.7309L102.78 77.4298L101.478 74.5771" stroke="#1F2A37" stroke-width="0.5" stroke-linecap="round" stroke-linejoin="round"/>
<path d="M100.445 74.1865L97.9043 77.9799" stroke="#1F2A37" stroke-width="0.5" stroke-linecap="round" stroke-linejoin="round"/>
<path d="M94.7316 10.5513L92.2015 17.5027L80.8203 13.3462L83.8229 5.09912L95.2041 9.25565L94.7316 10.5513Z" stroke="#1F2A37" stroke-width="0.5" stroke-linecap="round" stroke-linejoin="round"/>
<path d="M86.6691 11.0742C86.6691 11.0742 86.5317 10.2957 85.3835 10.4662C84.3231 10.6258 84.0099 11.8196 84.9164 12.147C85.9686 12.5321 86.7927 11.6408 87.8174 10.7716C88.886 9.85553 89.8557 8.86798 89.9793 8.75244C89.9793 8.75244 87.5701 13.0685 87.257 13.6379C86.9438 14.2074 87.8861 13.9983 88.0564 13.7452" stroke="#1F2A37" stroke-width="0.5" stroke-linecap="round" stroke-linejoin="round"/>
<path d="M90.7374 12.3476C90.4359 12.1464 90.069 12.0679 89.7117 12.1282C89.3543 12.1885 89.0334 12.3831 88.8145 12.6722C88.4793 13.0766 88.6551 13.4975 88.9436 13.6103C89.6853 13.8854 90.144 13.5553 90.9242 12.4192C90.9242 12.4192 89.8446 13.9376 90.0754 14.0229C90.1784 14.0575 90.2889 14.0632 90.3949 14.0394C90.501 14.0157 90.5985 13.9633 90.677 13.8881" stroke="#1F2A37" stroke-width="0.5" stroke-linecap="round" stroke-linejoin="round"/>
<path d="M87.4902 11.1729L89.3967 11.8688" stroke="#1F2A37" stroke-linecap="round" stroke-linejoin="round"/>
<path d="M19.6148 90.8679L7.78027 88.2766L9.39557 80.8823L21.2685 83.4846L19.6148 90.8679Z" stroke="#1F2A37" stroke-width="0.5" stroke-linecap="round" stroke-linejoin="round"/>
<path d="M12.0771 82.7334L18.9943 84.2491" stroke="#1F2A37" stroke-width="0.3" stroke-linecap="round" stroke-linejoin="round"/>
<path d="M10.959 83.1846L18.8486 84.9148" stroke="#1F2A37" stroke-width="0.3" stroke-linecap="round" stroke-linejoin="round"/>
<path d="M10.8135 83.8506L18.7031 85.5781" stroke="#1F2A37" stroke-width="0.3" stroke-linecap="round" stroke-linejoin="round"/>
<path d="M10.668 84.5161L18.5576 86.2436" stroke="#1F2A37" stroke-width="0.3" stroke-linecap="round" stroke-linejoin="round"/>
<path d="M10.5225 85.1792L18.4121 86.9067" stroke="#1F2A37" stroke-width="0.3" stroke-linecap="round" stroke-linejoin="round"/>
<path d="M10.3789 85.8447L18.2686 87.5723" stroke="#1F2A37" stroke-width="0.3" stroke-linecap="round" stroke-linejoin="round"/>
<path d="M10.2334 86.5078L18.1231 88.2353" stroke="#1F2A37" stroke-width="0.3" stroke-linecap="round" stroke-linejoin="round"/>
<path d="M10.0879 87.1733L17.0051 88.6891" stroke="#1F2A37" stroke-width="0.3" stroke-linecap="round" stroke-linejoin="round"/>
<path d="M77.6394 35.7216H33.3672L27.8428 8.20215H83.1638L77.6394 35.7216Z" fill="#1F2A37"/>
<path d="M31.9971 9.09619L23.8438 64.6166H87.1643L79.0109 9.09619" fill="#FF7959"/>
<mask id="mask0_7233_63580" style="mask-type:luminance" maskUnits="userSpaceOnUse" x="23" y="9" width="65" height="56">
<path d="M31.9971 9.09619L23.8438 64.6166H87.1643L79.0109 9.09619" fill="white"/>
</mask>
<g mask="url(#mask0_7233_63580)">
<path opacity="0.3" d="M87.1643 64.6166H23.8438L27.2529 41.3994H83.7551L87.1643 64.6166Z" fill="#4B5563"/>
</g>
<path d="M31.9971 9.09619L23.8438 64.6166H87.1643L79.0109 9.09619" stroke="#1F2A37" stroke-linecap="round" stroke-linejoin="round"/>
<path d="M77.2885 9.09619H33.7195L26.165 64.6166H84.843L77.2885 9.09619Z" fill="#1F2A37"/>
<path d="M72.9834 13.3267H49.3337L49.059 12.7216C48.9852 12.5573 48.8656 12.4179 48.7144 12.3203C48.5633 12.2227 48.3872 12.171 48.2074 12.1714H42.845C42.6993 12.1714 42.5596 12.2294 42.4565 12.3325C42.3535 12.4357 42.2956 12.5756 42.2956 12.7216V13.3377H38.0239C37.9468 13.3379 37.8707 13.3551 37.8011 13.3882C37.7314 13.4213 37.67 13.4694 37.6212 13.5291C37.5723 13.5888 37.5373 13.6586 37.5185 13.7335C37.4998 13.8084 37.4979 13.8865 37.5129 13.9622L41.0072 31.3613H70.0001L73.4944 13.9622C73.5112 13.8857 73.5107 13.8064 73.4929 13.7301C73.4751 13.6539 73.4403 13.5826 73.3913 13.5216C73.3422 13.4606 73.2801 13.4114 73.2095 13.3777C73.1389 13.344 73.0616 13.3265 72.9834 13.3267Z" fill="#D1D5DB" stroke="#1F2A37" stroke-linecap="round" stroke-linejoin="round"/>
<path d="M73.8762 14.6611L73.574 16.163L70.4698 31.6201C70.4251 31.8522 70.3012 32.0615 70.1192 32.2121C69.9373 32.3626 69.7086 32.4451 69.4726 32.4453H41.5346C41.2986 32.4451 41.07 32.3626 40.888 32.2121C40.706 32.0615 40.5821 31.8522 40.5374 31.6201L37.3728 15.7972L37.1448 14.6611C37.1299 14.5861 37.1316 14.5087 37.1499 14.4344C37.1681 14.3601 37.2024 14.2907 37.2504 14.2312C37.2983 14.1716 37.3587 14.1233 37.4273 14.0897C37.496 14.0561 37.5711 14.038 37.6475 14.0366H73.3597C73.4373 14.036 73.514 14.0526 73.5843 14.0853C73.6546 14.1181 73.7168 14.1661 73.7662 14.2259C73.8157 14.2857 73.8512 14.3558 73.8702 14.4311C73.8892 14.5063 73.8913 14.5849 73.8762 14.6611Z" fill="white"/>
<mask id="mask1_7233_63580" style="mask-type:luminance" maskUnits="userSpaceOnUse" x="37" y="14" width="37" height="19">
<path d="M73.8762 14.6611L73.574 16.163L70.4698 31.6201C70.4251 31.8522 70.3012 32.0615 70.1192 32.2121C69.9373 32.3626 69.7086 32.4451 69.4726 32.4453H41.5346C41.2986 32.4451 41.07 32.3626 40.888 32.2121C40.706 32.0615 40.5821 31.8522 40.5374 31.6201L37.3728 15.7972L37.1448 14.6611C37.1299 14.5861 37.1316 14.5087 37.1499 14.4344C37.1681 14.3601 37.2024 14.2907 37.2504 14.2312C37.2983 14.1716 37.3587 14.1233 37.4273 14.0897C37.496 14.0561 37.5711 14.038 37.6475 14.0366H73.3597C73.4373 14.036 73.514 14.0526 73.5843 14.0853C73.6546 14.1181 73.7168 14.1661 73.7662 14.2259C73.8157 14.2857 73.8512 14.3558 73.8702 14.4311C73.8892 14.5063 73.8913 14.5849 73.8762 14.6611Z" fill="white"/>
</mask>
<g mask="url(#mask1_7233_63580)">
<path opacity="0.4" d="M73.5743 16.1632L70.47 31.6202C70.4254 31.8524 70.3014 32.0617 70.1195 32.2122C69.9375 32.3628 69.7089 32.4453 69.4729 32.4455H41.5349C41.2988 32.4453 41.0702 32.3628 40.8883 32.2122C40.7063 32.0617 40.5824 31.8524 40.5377 31.6202L37.373 15.7974L73.5743 16.1632Z" fill="#FF7959"/>
</g>
<path d="M73.8762 14.6611L73.574 16.163L70.4698 31.6201C70.4251 31.8522 70.3012 32.0615 70.1192 32.2121C69.9373 32.3626 69.7086 32.4451 69.4726 32.4453H41.5346C41.2986 32.4451 41.07 32.3626 40.888 32.2121C40.706 32.0615 40.5821 31.8522 40.5374 31.6201L37.3728 15.7972L37.1448 14.6611C37.1299 14.5861 37.1316 14.5087 37.1499 14.4344C37.1681 14.3601 37.2024 14.2907 37.2504 14.2312C37.2983 14.1716 37.3587 14.1233 37.4273 14.0897C37.496 14.0561 37.5711 14.038 37.6475 14.0366H73.3597C73.4373 14.036 73.514 14.0526 73.5843 14.0853C73.6546 14.1181 73.7168 14.1661 73.7662 14.2259C73.8157 14.2857 73.8512 14.3558 73.8702 14.4311C73.8892 14.5063 73.8913 14.5849 73.8762 14.6611Z" stroke="#1F2A37" stroke-linecap="round" stroke-linejoin="round"/>
<path d="M73.4036 17.3347H49.1852L48.9105 16.7323C48.8329 16.567 48.7097 16.4273 48.5554 16.3298C48.401 16.2323 48.2221 16.1811 48.0397 16.1821H42.5455C42.3998 16.1821 42.26 16.2401 42.157 16.3433C42.0539 16.4465 41.996 16.5864 41.996 16.7323V17.3485H37.6007C37.5229 17.3475 37.4458 17.3639 37.375 17.3964C37.3043 17.429 37.2416 17.4769 37.1917 17.5366C37.1417 17.5964 37.1057 17.6666 37.0861 17.7421C37.0666 17.8175 37.0641 17.8964 37.0787 17.9729L40.65 35.3198H70.3378L73.909 17.9729C73.9258 17.8968 73.9254 17.8178 73.9078 17.7418C73.8903 17.6659 73.8561 17.5947 73.8077 17.5336C73.7593 17.4725 73.6979 17.423 73.628 17.3886C73.5581 17.3542 73.4815 17.3358 73.4036 17.3347Z" fill="#D1D5DB" stroke="#1F2A37" stroke-linecap="round" stroke-linejoin="round"/>
<path d="M74.3153 18.7158L74.0131 20.1847L70.8292 35.6253C70.7803 35.8599 70.6518 36.0703 70.4655 36.2207C70.2792 36.3712 70.0466 36.4524 69.8073 36.4505H41.199C40.9597 36.4524 40.7271 36.3712 40.5408 36.2207C40.3545 36.0703 40.226 35.8599 40.1771 35.6253L36.9822 20.1325L36.6911 18.7158C36.6764 18.6392 36.6789 18.5604 36.6984 18.4849C36.718 18.4094 36.754 18.3393 36.804 18.2795C36.8539 18.2197 36.9166 18.1718 36.9873 18.1393C37.0581 18.1067 37.1352 18.0904 37.213 18.0914H73.7933C73.8712 18.0904 73.9482 18.1067 74.019 18.1393C74.0897 18.1718 74.1524 18.2197 74.2023 18.2795C74.2523 18.3393 74.2884 18.4094 74.3079 18.4849C74.3274 18.5604 74.3299 18.6392 74.3153 18.7158Z" fill="white"/>
<mask id="mask2_7233_63580" style="mask-type:luminance" maskUnits="userSpaceOnUse" x="36" y="18" width="39" height="19">
<path d="M74.3153 18.7158L74.0131 20.1847L70.8292 35.6253C70.7803 35.8599 70.6518 36.0703 70.4655 36.2207C70.2792 36.3712 70.0466 36.4524 69.8073 36.4505H41.199C40.9597 36.4524 40.7271 36.3712 40.5408 36.2207C40.3545 36.0703 40.226 35.8599 40.1771 35.6253L36.9822 20.1325L36.6911 18.7158C36.6764 18.6392 36.6789 18.5604 36.6984 18.4849C36.718 18.4094 36.754 18.3393 36.804 18.2795C36.8539 18.2197 36.9166 18.1718 36.9873 18.1393C37.0581 18.1067 37.1352 18.0904 37.213 18.0914H73.7933C73.8712 18.0904 73.9482 18.1067 74.019 18.1393C74.0897 18.1718 74.1524 18.2197 74.2023 18.2795C74.2523 18.3393 74.2884 18.4094 74.3079 18.4849C74.3274 18.5604 74.3299 18.6392 74.3153 18.7158Z" fill="white"/>
</mask>
<g mask="url(#mask2_7233_63580)">
<path opacity="0.4" d="M74.0133 20.1846L70.8294 35.6251C70.7805 35.8597 70.652 36.0701 70.4657 36.2206C70.2794 36.371 70.0468 36.4522 69.8075 36.4504H41.1992C40.9599 36.4522 40.7273 36.371 40.541 36.2206C40.3547 36.0701 40.2262 35.8597 40.1773 35.6251L36.9824 20.1323L74.0133 20.1846Z" fill="#FF7959"/>
</g>
<path d="M74.3153 18.7158L74.0131 20.1847L70.8292 35.6253C70.7803 35.8599 70.6518 36.0703 70.4655 36.2207C70.2792 36.3712 70.0466 36.4524 69.8073 36.4505H41.199C40.9597 36.4524 40.7271 36.3712 40.5408 36.2207C40.3545 36.0703 40.226 35.8599 40.1771 35.6253L36.9822 20.1325L36.6911 18.7158C36.6764 18.6392 36.6789 18.5604 36.6984 18.4849C36.718 18.4094 36.754 18.3393 36.804 18.2795C36.8539 18.2197 36.9166 18.1718 36.9873 18.1393C37.0581 18.1067 37.1352 18.0904 37.213 18.0914H73.7933C73.8712 18.0904 73.9482 18.1067 74.019 18.1393C74.0897 18.1718 74.1524 18.2197 74.2023 18.2795C74.2523 18.3393 74.2884 18.4094 74.3079 18.4849C74.3274 18.5604 74.3299 18.6392 74.3153 18.7158Z" stroke="#1F2A37" stroke-linecap="round" stroke-linejoin="round"/>
<path d="M73.8209 21.3428H49.0394L48.7647 20.7404C48.6838 20.5735 48.5572 20.4331 48.3995 20.3357C48.2419 20.2382 48.0598 20.1878 47.8746 20.1902H42.2376C42.1641 20.188 42.0908 20.2006 42.0223 20.2272C41.9537 20.2539 41.8912 20.2941 41.8384 20.3454C41.7856 20.3967 41.7437 20.4581 41.715 20.5259C41.6864 20.5938 41.6716 20.6667 41.6717 20.7404V21.3538H37.1857C37.1071 21.3513 37.029 21.3664 36.957 21.3981C36.8851 21.4297 36.8211 21.4771 36.7697 21.5367C36.7184 21.5963 36.681 21.6666 36.6602 21.7425C36.6395 21.8184 36.636 21.898 36.65 21.9755L40.3119 39.2701H70.6947L74.3566 21.9755C74.3724 21.8972 74.3703 21.8164 74.3505 21.7391C74.3306 21.6618 74.2935 21.59 74.242 21.5291C74.1904 21.4682 74.1257 21.4198 74.0528 21.3875C73.9799 21.3552 73.9006 21.34 73.8209 21.3428Z" fill="#D1D5DB" stroke="#1F2A37" stroke-linecap="round" stroke-linejoin="round"/>
<path d="M74.2219 22.1488H36.7845C36.7063 22.1463 36.6286 22.1614 36.5569 22.1929C36.4853 22.2244 36.4216 22.2715 36.3705 22.3308C36.3194 22.3902 36.2822 22.4602 36.2616 22.5358C36.2411 22.6114 36.2376 22.6906 36.2516 22.7677L39.8228 39.6277C39.8753 39.8646 40.0078 40.0761 40.198 40.2264C40.3882 40.3768 40.6244 40.4568 40.8667 40.4529H70.1425C70.3848 40.4568 70.621 40.3768 70.8112 40.2264C71.0014 40.0761 71.1339 39.8646 71.1864 39.6277L74.7576 22.7677C74.7716 22.6904 74.7682 22.6109 74.7474 22.5351C74.7267 22.4593 74.6893 22.3891 74.6379 22.3297C74.5865 22.2704 74.5224 22.2233 74.4504 22.1919C74.3785 22.1606 74.3004 22.1459 74.2219 22.1488Z" fill="white" stroke="#1F2A37" stroke-linecap="round" stroke-linejoin="round"/>
<path d="M74.2417 24.5257H48.8915L48.6031 23.926C48.5182 23.7582 48.3879 23.6177 48.2272 23.5204C48.0664 23.4231 47.8816 23.373 47.6938 23.3758H41.9249C41.8502 23.3717 41.7755 23.3829 41.7054 23.4087C41.6352 23.4345 41.571 23.4744 41.5167 23.5259C41.4625 23.5774 41.4193 23.6394 41.3898 23.7082C41.3603 23.777 41.3452 23.8511 41.3453 23.926V24.5394H36.7659C36.6866 24.5354 36.6074 24.5493 36.5342 24.58C36.461 24.6108 36.3956 24.6576 36.3429 24.717C36.2902 24.7764 36.2514 24.8469 36.2295 24.9233C36.2077 24.9997 36.2032 25.08 36.2164 25.1584L39.9607 42.4035H71.0441L74.7884 25.1584C74.8039 25.0793 74.8013 24.9976 74.7806 24.9197C74.7599 24.8417 74.7218 24.7695 74.6691 24.7086C74.6164 24.6476 74.5505 24.5994 74.4765 24.5677C74.4024 24.536 74.3221 24.5217 74.2417 24.5257Z" fill="#D1D5DB" stroke="#1F2A37" stroke-linecap="round" stroke-linejoin="round"/>
<path d="M74.6512 25.3786H36.3567C36.2774 25.3746 36.1982 25.3885 36.125 25.4192C36.0518 25.4499 35.9865 25.4967 35.9337 25.5561C35.881 25.6155 35.8423 25.686 35.8204 25.7624C35.7985 25.8388 35.794 25.9192 35.8073 25.9975L39.4581 42.808C39.518 43.0443 39.6564 43.2532 39.8507 43.4002C40.0449 43.5472 40.2834 43.6236 40.5268 43.6167H70.4701C70.7135 43.6236 70.9519 43.5472 71.1462 43.4002C71.3404 43.2532 71.4789 43.0443 71.5387 42.808L75.1896 25.9975C75.2026 25.9201 75.1984 25.8408 75.1771 25.7652C75.1558 25.6897 75.1181 25.6198 75.0666 25.5606C75.0151 25.5014 74.9511 25.4543 74.8793 25.4229C74.8074 25.3914 74.7295 25.3763 74.6512 25.3786Z" fill="white" stroke="#1F2A37" stroke-linecap="round" stroke-linejoin="round"/>
<path d="M74.6593 27.7082H48.7432L48.4493 27.1085C48.3602 26.9394 48.226 26.7984 48.0615 26.7012C47.8971 26.6041 47.7089 26.5546 47.518 26.5583H41.631C41.482 26.5508 41.3362 26.6028 41.2255 26.7029C41.1147 26.8029 41.0482 26.9429 41.0404 27.092V27.7027H36.3483C36.2703 27.7021 36.193 27.7182 36.1216 27.7499C36.0503 27.7816 35.9865 27.8281 35.9345 27.8864C35.8825 27.9447 35.8435 28.0134 35.8202 28.088C35.7968 28.1626 35.7895 28.2413 35.7989 28.3189L39.6283 45.5117H71.3902L75.2197 28.3189C75.2284 28.2408 75.2202 28.1617 75.1958 28.087C75.1714 28.0123 75.1313 27.9438 75.0782 27.8859C75.0251 27.828 74.9602 27.7822 74.888 27.7516C74.8157 27.7209 74.7377 27.7061 74.6593 27.7082Z" fill="#D1D5DB" stroke="#1F2A37" stroke-linecap="round" stroke-linejoin="round"/>
<path d="M75.077 28.6105H35.9309C35.852 28.6071 35.7734 28.6213 35.7007 28.652C35.628 28.6827 35.563 28.7293 35.5104 28.7882C35.4578 28.8472 35.419 28.9171 35.3967 28.9929C35.3744 29.0688 35.3692 29.1486 35.3815 29.2267L36.299 33.353L39.112 45.9876C39.1775 46.2266 39.3216 46.4365 39.521 46.5833C39.7204 46.7301 39.9635 46.8052 40.2109 46.7964H70.8135C71.0609 46.8052 71.304 46.7301 71.5034 46.5833C71.7028 46.4365 71.8469 46.2266 71.9124 45.9876L73.2859 39.7899L75.6374 29.2294C75.6504 29.1502 75.6454 29.069 75.6227 28.992C75.6 28.915 75.5602 28.8441 75.5063 28.7846C75.4525 28.7251 75.3859 28.6785 75.3115 28.6484C75.2372 28.6183 75.157 28.6053 75.077 28.6105Z" fill="white"/>
<mask id="mask3_7233_63580" style="mask-type:luminance" maskUnits="userSpaceOnUse" x="35" y="28" width="41" height="19">
<path d="M75.077 28.6105H35.9309C35.852 28.6071 35.7734 28.6213 35.7007 28.652C35.628 28.6827 35.563 28.7293 35.5104 28.7882C35.4578 28.8472 35.419 28.9171 35.3967 28.9929C35.3744 29.0688 35.3692 29.1486 35.3815 29.2267L36.299 33.353L39.112 45.9876C39.1775 46.2266 39.3216 46.4365 39.521 46.5833C39.7204 46.7301 39.9635 46.8052 40.2109 46.7964H70.8135C71.0609 46.8052 71.304 46.7301 71.5034 46.5833C71.7028 46.4365 71.8469 46.2266 71.9124 45.9876L73.2859 39.7899L75.6374 29.2294C75.6504 29.1502 75.6454 29.069 75.6227 28.992C75.6 28.915 75.5602 28.8441 75.5063 28.7846C75.4525 28.7251 75.3859 28.6785 75.3115 28.6484C75.2372 28.6183 75.157 28.6053 75.077 28.6105Z" fill="white"/>
</mask>
<g mask="url(#mask3_7233_63580)">
<path opacity="0.4" d="M36.2881 33.3501L39.1011 45.9847C39.1665 46.2238 39.3106 46.4337 39.5101 46.5805C39.7095 46.7272 39.9526 46.8023 40.1999 46.7935H70.8136C71.0609 46.8023 71.304 46.7272 71.5034 46.5805C71.7029 46.4337 71.847 46.2238 71.9124 45.9847L73.286 39.7871L36.2881 33.3501Z" fill="#FF7959"/>
</g>
<path d="M75.077 28.6105H35.9309C35.852 28.6071 35.7734 28.6213 35.7007 28.652C35.628 28.6827 35.563 28.7293 35.5104 28.7882C35.4578 28.8472 35.419 28.9171 35.3967 28.9929C35.3744 29.0688 35.3692 29.1486 35.3815 29.2267L36.299 33.353L39.112 45.9876C39.1775 46.2266 39.3216 46.4365 39.521 46.5833C39.7204 46.7301 39.9635 46.8052 40.2109 46.7964H70.8135C71.0609 46.8052 71.304 46.7301 71.5034 46.5833C71.7028 46.4365 71.8469 46.2266 71.9124 45.9876L73.2859 39.7899L75.6374 29.2294C75.6504 29.1502 75.6454 29.069 75.6227 28.992C75.6 28.915 75.5602 28.8441 75.5063 28.7846C75.4525 28.7251 75.3859 28.6785 75.3115 28.6484C75.2372 28.6183 75.157 28.6053 75.077 28.6105Z" stroke="#1F2A37" stroke-linecap="round" stroke-linejoin="round"/>
<path d="M47.7487 47.391L47.4026 46.8133C47.2891 46.6464 47.1334 46.5127 46.9515 46.4257C46.7696 46.3387 46.5679 46.3016 46.3669 46.3181L39.9717 46.6125C39.8176 46.6063 39.6671 46.6602 39.5519 46.7628C39.4366 46.8654 39.3656 47.0087 39.3536 47.1626L39.3811 47.7678L34.2825 48.0016C33.8924 48.0181 33.6122 48.3262 33.7056 48.6371L38.6503 65.4173L73.1648 63.8273L76.5465 46.6702C76.6069 46.3511 76.302 46.0705 75.9092 46.0898L47.7487 47.391Z" fill="#D1D5DB" stroke="#1F2A37" stroke-linecap="round" stroke-linejoin="round"/>
<path d="M77.0407 47.7427L76.6561 49.7179L73.7525 64.4707C73.6807 64.7196 73.5291 64.938 73.3211 65.0921C73.1131 65.2463 72.8602 65.3275 72.6014 65.3234L39.3424 66.8529C39.085 66.881 38.8256 66.8235 38.6041 66.6893C38.3827 66.555 38.2116 66.3515 38.1171 66.1102L33.5268 50.5129L33.3042 49.7564C33.2136 49.4455 33.4938 49.1374 33.8839 49.1209L76.4116 47.1623C76.799 47.1458 77.1039 47.4264 77.0407 47.7427Z" fill="white"/>
<mask id="mask4_7233_63580" style="mask-type:luminance" maskUnits="userSpaceOnUse" x="33" y="47" width="45" height="20">
<path d="M77.0407 47.7427L76.6561 49.7179L73.7525 64.4707C73.6807 64.7196 73.5291 64.938 73.3211 65.0921C73.1131 65.2463 72.8602 65.3275 72.6014 65.3234L39.3424 66.8529C39.085 66.881 38.8256 66.8235 38.6041 66.6893C38.3827 66.555 38.2116 66.3515 38.1171 66.1102L33.5268 50.5129L33.3042 49.7564C33.2136 49.4455 33.4938 49.1374 33.8839 49.1209L76.4116 47.1623C76.799 47.1458 77.1039 47.4264 77.0407 47.7427Z" fill="white"/>
</mask>
<g mask="url(#mask4_7233_63580)">
<path opacity="0.4" d="M76.6557 49.7178L73.7521 64.4706C73.6803 64.7195 73.5287 64.9379 73.3207 65.0921C73.1127 65.2462 72.8598 65.3275 72.601 65.3233L39.342 66.8528C39.0846 66.8809 38.8252 66.8234 38.6038 66.6892C38.3823 66.555 38.2112 66.3514 38.1168 66.1101L33.5264 50.5128L76.6557 49.7178Z" fill="#FF7959"/>
</g>
<path d="M77.0407 47.7427L76.6561 49.7179L73.7525 64.4707C73.6807 64.7196 73.5291 64.938 73.3211 65.0921C73.1131 65.2463 72.8602 65.3275 72.6014 65.3234L39.3424 66.8529C39.085 66.881 38.8256 66.8235 38.6041 66.6893C38.3827 66.555 38.2116 66.3515 38.1171 66.1102L33.5268 50.5129L33.3042 49.7564C33.2136 49.4455 33.4938 49.1374 33.8839 49.1209L76.4116 47.1623C76.799 47.1458 77.1039 47.4264 77.0407 47.7427Z" stroke="#1F2A37" stroke-linecap="round" stroke-linejoin="round"/>
<path d="M48.4815 51.2198L48.1875 50.6147C48.0864 50.4363 47.9403 50.2877 47.7639 50.1834C47.5875 50.0792 47.3869 50.023 47.1821 50.0205L40.6688 49.6794C40.5127 49.6554 40.3535 49.6935 40.2252 49.7855C40.0969 49.8775 40.0096 50.0161 39.982 50.1718L39.9518 50.7742L34.7543 50.4991C34.3559 50.4771 34.0428 50.755 34.1032 51.0713L37.4629 68.2063L72.6614 70.0494L77.7847 53.36C77.8781 53.0492 77.5952 52.7411 77.1969 52.7218L48.4815 51.2198Z" fill="#D1D5DB" stroke="#1F2A37" stroke-linecap="round" stroke-linejoin="round"/>
<path d="M78.1835 54.5236L77.3594 57.2415L73.2003 70.7921C73.1001 71.0345 72.9234 71.2373 72.6971 71.3694C72.4709 71.5016 72.2076 71.5558 71.9476 71.5239L38.0292 69.7496C37.7675 69.7535 37.5116 69.6718 37.3004 69.5169C37.0892 69.362 36.9342 69.1424 36.859 68.8913L33.9883 54.2375L33.5872 52.1881C33.524 51.8718 33.8399 51.594 34.2382 51.616L77.5956 53.8854C77.994 53.9074 78.2797 54.2155 78.1835 54.5236Z" fill="white"/>
<mask id="mask5_7233_63580" style="mask-type:luminance" maskUnits="userSpaceOnUse" x="33" y="51" width="46" height="21">
<path d="M78.1835 54.5236L77.3594 57.2415L73.2003 70.7921C73.1001 71.0345 72.9234 71.2373 72.6971 71.3694C72.4709 71.5016 72.2076 71.5558 71.9476 71.5239L38.0292 69.7496C37.7675 69.7535 37.5116 69.6718 37.3004 69.5169C37.0892 69.362 36.9342 69.1424 36.859 68.8913L33.9883 54.2375L33.5872 52.1881C33.524 51.8718 33.8399 51.594 34.2382 51.616L77.5956 53.8854C77.994 53.9074 78.2797 54.2155 78.1835 54.5236Z" fill="white"/>
</mask>
<g mask="url(#mask5_7233_63580)">
<path opacity="0.4" d="M77.3487 57.2412L73.1896 70.7919C73.0894 71.0343 72.9126 71.237 72.6864 71.3692C72.4601 71.5014 72.1969 71.5556 71.9369 71.5236L38.0185 69.7493C37.7568 69.7532 37.5009 69.6715 37.2897 69.5167C37.0785 69.3618 36.9235 69.1421 36.8483 68.8911L33.9775 54.2373L77.3487 57.2412Z" fill="#FF7959"/>
</g>
<path d="M78.1835 54.5236L77.3594 57.2415L73.2003 70.7921C73.1001 71.0345 72.9234 71.2373 72.6971 71.3694C72.4709 71.5016 72.2076 71.5558 71.9476 71.5239L38.0292 69.7496C37.7675 69.7535 37.5116 69.6718 37.3004 69.5169C37.0892 69.362 36.9342 69.1424 36.859 68.8913L33.9883 54.2375L33.5872 52.1881C33.524 51.8718 33.8399 51.594 34.2382 51.616L77.5956 53.8854C77.994 53.9074 78.2797 54.2155 78.1835 54.5236Z" stroke="#1F2A37" stroke-linecap="round" stroke-linejoin="round"/>
<path d="M47.8552 55.6078L47.5365 55.0191C47.4238 54.8439 47.2675 54.7011 47.0831 54.6047C46.8986 54.5082 46.6923 54.4614 46.4844 54.4689H39.8117C39.6536 54.4517 39.4951 54.497 39.3698 54.5951C39.2446 54.6933 39.1627 54.8365 39.1414 54.9943V55.594H33.834C33.4274 55.594 33.1225 55.8856 33.2022 56.1992L37.5316 73.0812H73.4746L77.804 56.1992C77.8837 55.8856 77.5787 55.594 77.1722 55.594L47.8552 55.6078Z" fill="#D1D5DB" stroke="#1F2A37" stroke-linecap="round" stroke-linejoin="round"/>
<path d="M72.8104 74.6517H38.197C37.5982 74.6517 37.079 74.3188 36.9608 73.8594L32.7303 57.4011C32.6479 57.0875 32.9528 56.7959 33.3621 56.7959H77.6453C78.0546 56.7959 78.3596 57.0875 78.2771 57.4011L74.0576 73.8594C73.9395 74.3188 73.4203 74.6517 72.8104 74.6517Z" fill="white" stroke="#1F2A37" stroke-linecap="round" stroke-linejoin="round"/>
<path d="M47.7071 59.6154L47.3692 59.0294C47.2506 58.8558 47.0897 58.7155 46.9017 58.6216C46.7137 58.5277 46.5049 58.4835 46.2951 58.493H39.5098C39.3499 58.4741 39.1889 58.5185 39.0612 58.6166C38.9334 58.7147 38.8489 58.8589 38.8257 59.0184V59.6154H33.4167C32.9991 59.6154 32.6887 59.907 32.7711 60.2206L37.1857 77.0503H73.821L78.2355 60.2123C78.318 59.8987 78.0075 59.6071 77.59 59.6071L47.7071 59.6154Z" fill="#D1D5DB" stroke="#1F2A37" stroke-linecap="round" stroke-linejoin="round"/>
<path d="M73.1564 78.6433H37.8508C37.2409 78.6433 36.7135 78.3105 36.5926 77.8511L32.2879 61.445C32.2082 61.1314 32.5187 60.8398 32.9335 60.8398H78.0737C78.4885 60.8398 78.799 61.1314 78.7193 61.445L74.4146 77.8511C74.2937 78.3215 73.7663 78.6433 73.1564 78.6433Z" fill="white" stroke="#1F2A37" stroke-linecap="round" stroke-linejoin="round"/>
<path d="M80.329 97.6157H30.6781L19.8105 66.7539H91.1965L80.329 97.6157Z" fill="#FF7959"/>
<mask id="mask6_7233_63580" style="mask-type:luminance" maskUnits="userSpaceOnUse" x="19" y="66" width="73" height="32">
<path d="M80.329 97.6157H30.6781L19.8105 66.7539H91.1965L80.329 97.6157Z" fill="white"/>
</mask>
<g mask="url(#mask6_7233_63580)">
<path opacity="0.3" d="M80.329 97.6157H30.6781L19.8105 66.7539H91.1965L80.329 97.6157Z" fill="#4B5563"/>
</g>
<path d="M80.329 97.6157H30.6781L19.8105 66.7539H91.1965L80.329 97.6157Z" stroke="#1F2A37" stroke-linecap="round" stroke-linejoin="round"/>
<path d="M90.2515 62.6909H20.7555L19.8105 66.7539H91.1965L90.2515 62.6909Z" fill="#FF7959" stroke="#1F2A37" stroke-linecap="round" stroke-linejoin="round"/>
<path d="M38.2712 80.8936L37.5762 87.4818H73.4313L72.7362 80.8936H71.1539L71.6044 85.5948H39.403L39.8535 80.8936H38.2712Z" fill="#D1D5DB" stroke="#1F2A37" stroke-linecap="round" stroke-linejoin="round"/>
<path d="M73.162 88.9944H37.8454L37.5762 87.4814H73.4313L73.162 88.9944Z" fill="#9CA3AF" stroke="#1F2A37" stroke-linecap="round" stroke-linejoin="round"/>
<path d="M71.1534 80.8936L70.9336 82.6403L71.1534 85.5948H71.6039L71.1534 80.8936Z" fill="#9CA3AF" stroke="#1F2A37" stroke-linecap="round" stroke-linejoin="round"/>
<path d="M39.8529 80.8936L40.0754 82.6403L39.8529 85.5948H39.4023L39.8529 80.8936Z" fill="#9CA3AF" stroke="#1F2A37" stroke-linecap="round" stroke-linejoin="round"/>
<path d="M67.0578 77.5868H43.9492L42.8477 71.9971H68.1594L67.0578 77.5868Z" fill="white" stroke="#1F2A37" stroke-linecap="round" stroke-linejoin="round"/>
<path d="M57.0495 23.4966L56.8242 22.8502C56.7512 22.666 56.629 22.5055 56.4711 22.3862C56.3132 22.2668 56.1255 22.1933 55.9286 22.1735L49.8191 21.384C49.6673 21.3549 49.5101 21.3872 49.3819 21.4738C49.2537 21.5603 49.165 21.6942 49.1351 21.8461L49.0554 22.4651L44.1876 21.8379C44.1066 21.8209 44.0229 21.8224 43.9426 21.8423C43.8623 21.8622 43.7876 21.9001 43.7239 21.953C43.6603 22.0058 43.6094 22.0724 43.575 22.1478C43.5407 22.2231 43.5238 22.3052 43.5255 22.388L45.2589 40.3071L78.2241 44.5626L84.438 27.6697C84.4604 27.5902 84.4646 27.5067 84.4504 27.4254C84.4361 27.3441 84.4038 27.267 84.3558 27.1999C84.3078 27.1328 84.2453 27.0774 84.173 27.0377C84.1007 26.9981 84.0204 26.9753 83.938 26.971L57.0495 23.4966Z" fill="white"/>
<mask id="mask7_7233_63580" style="mask-type:luminance" maskUnits="userSpaceOnUse" x="43" y="21" width="42" height="24">
<path d="M57.0495 23.4966L56.8242 22.8502C56.7512 22.666 56.629 22.5055 56.4711 22.3862C56.3132 22.2668 56.1255 22.1933 55.9286 22.1735L49.8191 21.384C49.6673 21.3549 49.5101 21.3872 49.3819 21.4738C49.2537 21.5603 49.165 21.6942 49.1351 21.8461L49.0554 22.4651L44.1876 21.8379C44.1066 21.8209 44.0229 21.8224 43.9426 21.8423C43.8623 21.8622 43.7876 21.9001 43.7239 21.953C43.6603 22.0058 43.6094 22.0724 43.575 22.1478C43.5407 22.2231 43.5238 22.3052 43.5255 22.388L45.2589 40.3071L78.2241 44.5626L84.438 27.6697C84.4604 27.5902 84.4646 27.5067 84.4504 27.4254C84.4361 27.3441 84.4038 27.267 84.3558 27.1999C84.3078 27.1328 84.2453 27.0774 84.173 27.0377C84.1007 26.9981 84.0204 26.9753 83.938 26.971L57.0495 23.4966Z" fill="white"/>
</mask>
<g mask="url(#mask7_7233_63580)">
<path opacity="0.4" d="M57.0495 23.4966L56.8242 22.8502C56.7512 22.666 56.629 22.5055 56.4711 22.3862C56.3132 22.2668 56.1255 22.1933 55.9286 22.1735L49.8191 21.384C49.6673 21.3549 49.5101 21.3872 49.3819 21.4738C49.2537 21.5603 49.165 21.6942 49.1351 21.8461L49.0554 22.4651L44.1876 21.8379C44.1066 21.8209 44.0229 21.8224 43.9426 21.8423C43.8623 21.8622 43.7876 21.9001 43.7239 21.953C43.6603 22.0058 43.6094 22.0724 43.575 22.1478C43.5407 22.2231 43.5238 22.3052 43.5255 22.388L45.2589 40.3071L78.2241 44.5626L84.438 27.6697C84.4604 27.5902 84.4646 27.5067 84.4504 27.4254C84.4361 27.3441 84.4038 27.267 84.3558 27.1999C84.3078 27.1328 84.2453 27.0774 84.173 27.0377C84.1007 26.9981 84.0204 26.9753 83.938 26.971L57.0495 23.4966Z" fill="#FF7959"/>
</g>
<path d="M57.0495 23.4966L56.8242 22.8502C56.7512 22.666 56.629 22.5055 56.4711 22.3862C56.3132 22.2668 56.1255 22.1933 55.9287 22.1735L49.8191 21.384C49.6673 21.3549 49.5101 21.3872 49.3819 21.4738C49.2537 21.5603 49.165 21.6942 49.1351 21.8461L49.0554 22.4651L44.1876 21.8379C44.1066 21.8209 44.0229 21.8224 43.9426 21.8423C43.8623 21.8622 43.7876 21.9001 43.7239 21.953C43.6603 22.0058 43.6094 22.0724 43.575 22.1478C43.5407 22.2231 43.5238 22.3052 43.5255 22.388L45.2589 40.3071L78.2241 44.5626L84.438 27.6697C84.4604 27.5902 84.4646 27.5067 84.4504 27.4254C84.4361 27.3441 84.4038 27.267 84.3558 27.1999C84.3078 27.1328 84.2453 27.0774 84.173 27.0377C84.1007 26.9981 84.0204 26.9753 83.938 26.971L57.0495 23.4966Z" stroke="#1F2A37" stroke-linecap="round" stroke-linejoin="round"/>
<path d="M84.754 28.685L79.1279 43.9825L78.6939 45.1598C78.5923 45.3945 78.415 45.5883 78.1903 45.71C77.9656 45.8317 77.7067 45.8743 77.4549 45.831L45.6848 41.7268C45.4302 41.7044 45.1906 41.5971 45.0043 41.422C44.818 41.2469 44.6958 41.0142 44.6574 40.7612L42.9679 23.2933C42.9661 23.2105 42.9831 23.1284 43.0174 23.0531C43.0518 22.9777 43.1027 22.9111 43.1663 22.8582C43.23 22.8054 43.3047 22.7675 43.385 22.7476C43.4653 22.7277 43.549 22.7262 43.6299 22.7432L70.6669 26.234L84.254 27.9863C84.3363 27.9906 84.4166 28.0134 84.4889 28.0531C84.5613 28.0927 84.6237 28.1481 84.6718 28.2152C84.7198 28.2823 84.7521 28.3594 84.7663 28.4407C84.7806 28.5221 84.7763 28.6055 84.754 28.685Z" fill="white"/>
<mask id="mask8_7233_63580" style="mask-type:luminance" maskUnits="userSpaceOnUse" x="42" y="22" width="43" height="24">
<path d="M84.754 28.685L79.1279 43.9825L78.6939 45.1598C78.5923 45.3945 78.415 45.5883 78.1903 45.71C77.9656 45.8317 77.7067 45.8743 77.4549 45.831L45.6848 41.7268C45.4302 41.7044 45.1906 41.5971 45.0043 41.422C44.818 41.2469 44.6958 41.0142 44.6574 40.7612L42.9679 23.2933C42.9661 23.2105 42.9831 23.1284 43.0174 23.0531C43.0518 22.9777 43.1027 22.9111 43.1663 22.8582C43.23 22.8054 43.3047 22.7675 43.385 22.7476C43.4653 22.7277 43.549 22.7262 43.6299 22.7432L70.6669 26.234L84.254 27.9863C84.3363 27.9906 84.4166 28.0134 84.4889 28.0531C84.5613 28.0927 84.6237 28.1481 84.6718 28.2152C84.7198 28.2823 84.7521 28.3594 84.7663 28.4407C84.7806 28.5221 84.7763 28.6055 84.754 28.685Z" fill="white"/>
</mask>
<g mask="url(#mask8_7233_63580)">
<path opacity="0.3" d="M84.7538 28.6848L79.1277 43.9822C75.1417 43.0387 74.9906 40.5519 74.3231 39.2645C73.5869 37.8451 68.9195 37.0914 67.6147 36.863C66.3098 36.6347 65.5159 35.3116 65.5159 35.3116C64.3401 32.0105 70.4771 29.1221 70.4771 29.1221C70.3563 28.6683 70.5348 27.18 70.6639 26.2393L84.2511 27.9915C84.333 27.9957 84.413 28.0181 84.4852 28.0573C84.5573 28.0964 84.6198 28.1513 84.668 28.2177C84.7162 28.2842 84.749 28.3607 84.7638 28.4415C84.7787 28.5223 84.7752 28.6054 84.7538 28.6848Z" fill="#4B5563"/>
</g>
<path d="M84.754 28.685L79.1279 43.9825L78.6939 45.1598C78.5923 45.3945 78.415 45.5883 78.1903 45.71C77.9656 45.8317 77.7067 45.8743 77.4549 45.831L45.6848 41.7268C45.4302 41.7044 45.1906 41.5971 45.0043 41.422C44.818 41.2469 44.6958 41.0142 44.6574 40.7612L42.9679 23.2933C42.9661 23.2105 42.9831 23.1284 43.0174 23.0531C43.0518 22.9777 43.1027 22.9111 43.1663 22.8582C43.23 22.8054 43.3047 22.7675 43.385 22.7476C43.4653 22.7277 43.549 22.7262 43.6299 22.7432L70.6669 26.234L84.254 27.9863C84.3363 27.9906 84.4166 28.0134 84.4889 28.0531C84.5613 28.0927 84.6237 28.1481 84.6718 28.2152C84.7198 28.2823 84.7521 28.3594 84.7663 28.4407C84.7806 28.5221 84.7763 28.6055 84.754 28.685Z" stroke="#1F2A37" stroke-linecap="round" stroke-linejoin="round"/>
<path d="M48.9424 28L49.3764 38.8108L53.2883 39.317L53.7498 28.5447L48.9424 28Z" fill="#FF7959" stroke="#1F2A37" stroke-linecap="round" stroke-linejoin="round"/>
<path d="M51.3301 38.0158C51.3798 37.8246 51.3886 37.6251 51.356 37.4303C51.3233 37.2354 51.2499 37.0497 51.1406 36.8852C50.9183 36.5585 50.651 36.265 50.3467 36.0132C50.8006 36.2738 51.3023 36.4404 51.8219 36.5029C51.8219 35.9389 51.2725 35.5483 50.8027 35.2512C50.9102 35.2094 51.0257 35.1921 51.1407 35.2007C51.2557 35.2093 51.3674 35.2434 51.4675 35.3007C51.4743 35.2133 51.4602 35.1255 51.4263 35.0446C51.3924 34.9637 51.3396 34.8922 51.2725 34.8358C51.3329 34.8881 51.4263 34.8056 51.4235 34.7286C51.4088 34.6513 51.3759 34.5786 51.3274 34.5167C51.2536 34.3501 51.2243 34.1672 51.2422 33.9858C51.2422 33.3394 51.2615 32.6902 51.2697 32.0437C51.2789 32.1029 51.3051 32.158 51.3451 32.2025C51.3851 32.2469 51.4372 32.2787 51.495 32.2941C51.495 32.0382 51.4648 31.7824 51.44 31.5266C51.3796 30.8801 51.3192 30.2309 51.256 29.5845" stroke="#1F2A37" stroke-width="0.5" stroke-linecap="round" stroke-linejoin="round"/>
<path d="M113.467 63.1503C113.467 63.1503 91.2979 43.2892 89.8859 42.0375C88.4739 40.7859 87.4409 40.8409 86.68 40.0789C85.9191 39.3169 85.5372 38.775 82.4412 38.8273C79.3453 38.8796 75.2136 37.196 74.2906 36.5964C73.3676 35.9967 72.0627 36.4341 71.1919 36.0957C70.3211 35.7574 68.0959 36.0544 66.7361 36.0957C65.3763 36.137 65.2692 34.7478 65.8131 33.1688C66.357 31.5898 70.4831 30.6133 71.0326 30.9379C71.582 31.2625 73.7494 30.3409 73.7494 30.3409C73.4225 29.1966 73.5324 26.421 73.5324 26.421C73.5324 26.421 71.2496 25.4417 70.3815 25.1171C69.7127 24.9151 69.0118 24.8413 68.3157 24.8998C68.3157 24.8998 68.5904 23.6509 69.0217 23.186C69.453 22.7211 71.5215 22.2864 73.5324 20.8725C75.5433 19.4586 76.7932 19.1312 77.1036 19.2385C77.4141 19.3458 79.6584 20.0005 80.2573 20.0005C80.8562 20.0005 81.7242 19.4503 82.5923 19.6209C83.4604 19.7914 85.0372 21.1448 85.7432 21.3071C86.4492 21.4694 86.6663 21.618 87.592 21.618C87.9986 21.618 89.6579 22.8311 89.6579 22.8311C90.3526 22.964 91.0281 23.183 91.6687 23.4831C92.6989 23.9727 93.7867 26.3137 94.2757 27.0757C94.7647 27.8377 94.8251 29.6862 94.8251 29.6862C94.8251 29.6862 96.13 30.3932 96.619 31.3725C97.108 32.3518 115.115 42.0375 115.115 42.0375C115.115 42.0375 117.953 53.1757 113.467 63.1503Z" fill="white"/>
<path opacity="0.4" d="M97.6819 49.0027C93.7096 45.4431 90.4131 42.4942 89.8966 42.0375C88.4819 40.7859 87.4517 40.8409 86.6908 40.0789C85.9298 39.3169 85.548 38.775 82.452 38.8273C79.356 38.8796 75.2244 37.196 74.3014 36.5964C73.3783 35.9967 72.0735 36.4341 71.2026 36.0957C70.3318 35.7574 68.1067 36.0544 66.7468 36.0957C65.387 36.137 65.2799 34.7478 65.8238 33.1688C66.3677 31.5898 70.4939 30.6133 71.0433 30.9379C71.5927 31.2625 73.7602 30.3409 73.7602 30.3409C73.4333 29.1966 73.5432 26.421 73.5432 26.421C73.5432 26.421 71.2603 25.4417 70.3922 25.1171C69.7234 24.9151 69.0225 24.8413 68.3264 24.8998C68.3264 24.8998 68.6011 23.6509 69.0324 23.186C69.4637 22.7211 71.5323 22.2864 73.5432 20.8725C75.554 19.4586 76.804 19.1312 77.1144 19.2385C77.4248 19.3458 79.6692 20.0005 80.268 20.0005C80.7213 20.0005 81.3339 19.6869 81.985 19.6071C81.4575 19.9015 81.0922 20.4626 81.1911 20.7625C81.3477 21.2356 81.7899 22.4405 81.8147 22.5175C81.6965 22.402 78.8478 19.5851 77.0072 19.7309C75.4167 19.8547 73.8014 22.5368 74.0733 24.5064C74.3453 26.476 73.686 26.476 74.0431 27.9449C74.4002 29.4139 74.7244 31.4825 74.1805 32.2995C73.6366 33.1165 72.5515 31.6641 72.5515 31.6641C72.144 31.888 71.8026 32.2153 71.5615 32.6132C71.3204 33.0111 71.1881 33.4655 71.1779 33.9308C71.1779 35.5098 72.8262 35.6171 73.7986 35.7821C74.7711 35.9472 78.3588 37.914 80.8092 38.0186L83.2596 38.1203C83.2596 38.1203 81.8449 36.1947 82.4355 36.0957C83.0261 35.9967 84.8255 36.1727 86.0067 38.0213C87.188 39.8699 88.0945 40.2797 90.2839 41.1875C91.5778 41.7074 94.9897 45.3963 97.6819 49.0027Z" fill="#FF7959"/>
<path opacity="0.4" d="M108.538 38.4529C108.206 38.2961 97.5497 33.2676 97.0141 32.5166C96.4784 31.7656 95.8191 31.5813 95.2202 30.8248C94.6213 30.0684 92.6132 29.5787 92.3413 28.5444C92.0693 27.5101 91.7424 24.3714 91.2424 23.9835C90.8315 23.6815 90.3959 23.4147 89.9403 23.1857L90.7479 25.2021C90.7479 25.2021 88.9074 22.5916 88.4706 22.52C88.0338 22.4485 88.9431 24.4181 88.8634 24.3576C88.7838 24.2971 86.7894 22.432 85.1191 21.0181C85.3174 21.1378 85.5308 21.2304 85.7537 21.2932C86.4625 21.4555 86.6767 21.604 87.6025 21.604C88.0091 21.604 89.6683 22.8171 89.6683 22.8171C90.3631 22.95 91.0386 23.169 91.6792 23.4691C92.7094 23.9587 93.7972 26.2997 94.2862 27.0617C94.7752 27.8237 94.8356 29.6722 94.8356 29.6722C94.8356 29.6722 96.1405 30.3792 96.6295 31.3585C96.9234 31.9527 103.349 35.5866 108.538 38.4529Z" fill="#FF7959"/>
<path d="M113.467 63.1503C113.467 63.1503 91.2979 43.2892 89.8859 42.0375C88.4739 40.7859 87.441 40.8409 86.68 40.0789C85.9191 39.317 85.5372 38.775 82.4412 38.8273C79.3453 38.8796 75.2136 37.196 74.2906 36.5964C73.3676 35.9967 72.0627 36.4341 71.1919 36.0957C70.3211 35.7574 68.0959 36.0544 66.7361 36.0957C65.3763 36.137 65.2692 34.7478 65.8131 33.1688C66.357 31.5898 70.4831 30.6133 71.0326 30.9379C71.582 31.2625 73.7494 30.3409 73.7494 30.3409C73.4225 29.1966 73.5324 26.421 73.5324 26.421C73.5324 26.421 71.2496 25.4417 70.3815 25.1171C69.7127 24.9151 69.0118 24.8413 68.3157 24.8998C68.3157 24.8998 68.5904 23.6509 69.0217 23.186C69.453 22.7211 71.5215 22.2864 73.5324 20.8725C75.5433 19.4586 76.7932 19.1312 77.1036 19.2385C77.4141 19.3458 79.6584 20.0005 80.2573 20.0005C80.8562 20.0005 81.7242 19.4503 82.5923 19.6209C83.4604 19.7914 85.0372 21.1448 85.7432 21.3071C86.4492 21.4694 86.6663 21.618 87.592 21.618C87.9986 21.618 89.6579 22.8311 89.6579 22.8311C90.3526 22.964 91.0281 23.183 91.6687 23.4831C92.6989 23.9727 93.7867 26.3137 94.2757 27.0757C94.7647 27.8377 94.8251 29.6862 94.8251 29.6862C94.8251 29.6862 96.13 30.3932 96.619 31.3725C97.108 32.3518 115.115 42.0375 115.115 42.0375" stroke="#1F2A37" stroke-linecap="round" stroke-linejoin="round"/>
<path d="M73.54 26.4211C73.54 26.4211 73.7928 24.281 73.54 23.9839" stroke="#1F2A37" stroke-linecap="round" stroke-linejoin="round"/>
<path d="M80.2402 21.1807C80.2402 21.1807 83.9378 24.3139 84.2263 24.5064" stroke="#1F2A37" stroke-linecap="round" stroke-linejoin="round"/>
<path d="M83.7129 20.127C84.2211 20.4433 88.3198 24.0827 89.6603 24.9162" stroke="#1F2A37" stroke-linecap="round" stroke-linejoin="round"/>
<path d="M94.8408 29.6777C94.4425 29.4439 93.3903 28.935 93.2832 28.5361" stroke="#1F2A37" stroke-linecap="round" stroke-linejoin="round"/>
<path d="M73.7578 30.3408C73.7578 30.3408 73.9748 31.2293 73.7578 31.664" stroke="#1F2A37" stroke-linecap="round" stroke-linejoin="round"/>
<path d="M70.4968 33.1523C70.4968 33.1523 69.9913 34.5663 71.1863 35.5098" stroke="#1F2A37" stroke-linecap="round" stroke-linejoin="round"/>
<path d="M75.4244 19.731C75.0434 20.1307 74.7908 20.6357 74.6992 21.1807" stroke="#1F2A37" stroke-linecap="round" stroke-linejoin="round"/>
<path d="M69.7881 23.9839C69.9081 24.3115 70.096 24.6101 70.3393 24.8599C70.5826 25.1097 70.876 25.3053 71.2001 25.4336" stroke="#1F2A37" stroke-linecap="round" stroke-linejoin="round"/>
<path d="M86.0369 39.4738C85.3307 38.4482 84.5541 37.473 83.7129 36.5552" stroke="#1F2A37" stroke-linecap="round" stroke-linejoin="round"/>
<path d="M10.0361 112.013C10.0361 112.013 27.7824 100.333 28.8675 98.8259C29.4244 98.0129 30.0816 97.2735 30.8234 96.6252C30.8234 96.6252 31.3316 92.2706 32.6365 90.0232C33.9413 87.7757 34.4468 86.1032 35.0265 84.9424C35.6061 83.7815 38.3587 82.9122 39.1471 82.4666C39.9355 82.021 41.3228 81.16 42.1194 81.16C42.7278 81.2086 43.3196 81.3818 43.8584 81.6689C43.8584 81.6689 46.5395 80.2934 47.7702 81.16C47.7702 81.16 50.814 81.3058 51.5365 81.2315C52.259 81.1572 53.3496 81.6689 53.3496 81.6689C53.3496 81.6689 55.1599 80.365 56.3906 80.8711C57.6213 81.3773 58.2092 81.5946 58.2422 82.3208C58.2751 83.047 57.9372 85.5118 57.9372 85.5118H57.3329C57.3329 85.5118 55.3055 88.1554 55.0885 88.6835C54.8715 89.2117 53.7149 92.1138 53.7149 92.1138C53.7149 92.1138 55.2341 90.953 56.1873 90.0837C57.1406 89.2144 58.7971 87.5447 60.536 87.11C62.2749 86.6754 63.5056 87.6465 63.5056 88.6835C63.5056 88.6835 61.4782 90.301 61.0332 90.8099C60.5882 91.3188 59.8135 92.6227 58.9399 93.5608C58.0663 94.4988 56.0527 98.449 54.3001 100.333C52.5474 102.218 44.9599 106.281 43.2128 106.861C43.2128 106.861 32.6365 114.261 27.9994 120.5C27.9994 120.5 15.3957 120.574 10.0361 112.013Z" fill="white"/>
<path opacity="0.4" d="M44.4461 105.266C44.5972 105.42 45.2153 105.513 46.0943 105.541C45.1638 106.041 44.2042 106.486 43.2209 106.872C43.2209 106.872 36.3037 111.711 31.2051 116.863C32.9605 114.066 36.3312 110.575 37.5838 109.849C39.3282 108.831 42.6797 105.546 42.6797 105.546C42.6797 105.546 43.9434 104.757 44.4461 105.266Z" fill="#FF7959"/>
<path opacity="0.4" d="M56.1817 90.103C56.9236 89.3726 57.7188 88.6986 58.5607 88.0866C57.6665 89.0692 56.939 90.1917 56.4069 91.4096C56.0718 93.2334 52.9291 96.9938 52.9291 96.9938C53.9428 93.7313 53.072 93.0766 53.3577 92.1331C53.6434 91.1896 53.8274 88.8761 53.8274 88.8761C53.8274 88.8761 54.3768 87.927 54.9565 87.7097C55.5361 87.4924 57.058 83.6467 57.341 83.1268C57.6239 82.6069 55.4647 81.7514 54.8851 81.6881C54.3054 81.6249 54.0884 82.6289 52.9291 83.1268C51.7698 83.6247 50.3139 84.538 49.7782 85.0717C49.2425 85.6053 48.3113 87.9656 48.2508 88.1114C48.292 87.9463 48.9486 85.2972 49.1189 84.7691C49.2617 84.3289 50.6545 83.5174 51.171 83.2286C50.3139 83.6275 49.8331 82.871 49.1189 82.1833C48.3525 81.446 47.2097 81.2122 45.9597 81.5946C44.7098 81.977 43.8719 82.9205 43.8665 82.849C43.861 82.7775 41.9984 82.4501 41.3941 82.6289C40.7897 82.8077 39.3942 83.4404 39.3942 83.4404C39.3942 83.4404 38.125 82.7087 36.04 84.7691C35.1691 85.6301 32.271 92.1964 32.705 91.4096C33.139 90.6229 35.0318 88.2737 35.1499 88.1279C35.0236 88.436 31.1804 97.0736 30.3947 97.6238C29.609 98.174 29.381 100.122 26.5488 101.72C23.8621 103.236 13.5001 109.758 12.4727 110.404C17.3872 107.133 28.0322 99.984 28.8563 98.8259C29.4133 98.0129 30.0705 97.2735 30.8123 96.6252C30.8123 96.6252 31.3205 92.2706 32.6253 90.0232C33.9302 87.7757 34.4357 86.1032 35.0153 84.9424C35.595 83.7815 38.3475 82.9122 39.136 82.4666C39.9244 82.021 41.3117 81.16 42.1083 81.16C42.7166 81.2086 43.3085 81.3818 43.8472 81.6689C43.8472 81.6689 46.5284 80.2934 47.7591 81.16C47.7591 81.16 50.8029 81.3058 51.5254 81.2315C52.2478 81.1572 53.3384 81.6689 53.3384 81.6689C53.3384 81.6689 55.1488 80.365 56.3795 80.8711C57.6102 81.3773 58.198 81.5946 58.231 82.3208C58.264 83.047 57.9261 85.5118 57.9261 85.5118H57.3217C57.3217 85.5118 55.2944 88.1554 55.0773 88.6835C54.8603 89.2117 53.7038 92.1138 53.7038 92.1138C53.7038 92.1138 55.2284 90.9722 56.1817 90.103Z" fill="#FF7959"/>
<path opacity="0.4" d="M63.4999 88.7029C63.4999 88.7029 61.4726 90.3204 61.0275 90.8293C60.7666 91.1347 60.3792 91.7288 59.9287 92.3588C60.1549 91.6234 60.3104 90.8681 60.393 90.1031C60.8202 89.479 61.4266 88.9993 62.1319 88.7277C62.5773 88.5964 63.0453 88.5607 63.5054 88.6231C63.5062 88.6498 63.5043 88.6766 63.4999 88.7029Z" fill="#FF7959"/>
<path d="M10.0361 112.013C10.0361 112.013 27.7824 100.333 28.8675 98.8259C29.4244 98.0129 30.0816 97.2735 30.8234 96.6252C30.8234 96.6252 31.3316 92.2706 32.6365 90.0232C33.9413 87.7757 34.4468 86.1032 35.0265 84.9424C35.6061 83.7815 38.3587 82.9122 39.1471 82.4666C39.9355 82.021 41.3228 81.16 42.1195 81.16C42.7278 81.2086 43.3196 81.3818 43.8584 81.6689C43.8584 81.6689 46.5395 80.2934 47.7702 81.16C47.7702 81.16 50.814 81.3058 51.5365 81.2315C52.259 81.1572 53.3496 81.6689 53.3496 81.6689C53.3496 81.6689 55.1599 80.365 56.3906 80.8711C57.6213 81.3773 58.2092 81.5946 58.2422 82.3208C58.2751 83.047 57.9372 85.5118 57.9372 85.5118H57.3329C57.3329 85.5118 55.3055 88.1554 55.0885 88.6835C54.8715 89.2117 53.7149 92.1138 53.7149 92.1138C53.7149 92.1138 55.2341 90.953 56.1873 90.0837C57.1406 89.2144 58.7971 87.5447 60.536 87.11C62.2749 86.6754 63.5056 87.6465 63.5056 88.6835C63.5056 88.6835 61.4782 90.301 61.0332 90.8099C60.5882 91.3188 59.8135 92.6227 58.9399 93.5608C58.0663 94.4988 56.0527 98.449 54.3001 100.333C52.5474 102.218 44.9599 106.281 43.2128 106.861C43.2128 106.861 32.6365 114.261 27.9994 120.5" stroke="#1F2A37" stroke-linecap="round" stroke-linejoin="round"/>
<path d="M53.72 92.1221C53.72 92.1221 54.154 94.3007 53.2832 96.2483" stroke="#1F2A37" stroke-linecap="round" stroke-linejoin="round"/>
<path d="M50.8936 83.355C51.8041 82.94 52.6395 82.3767 53.3659 81.688" stroke="#1F2A37" stroke-linecap="round" stroke-linejoin="round"/>
<path d="M57.3408 85.5202C57.5747 85.0402 57.734 84.5272 57.8133 83.999" stroke="#1F2A37" stroke-linecap="round" stroke-linejoin="round"/>
<path d="M47.778 81.1791C46.8968 81.1596 46.037 81.4519 45.3496 82.0044" stroke="#1F2A37" stroke-linecap="round" stroke-linejoin="round"/>
<path d="M43.8668 81.688C43.8668 81.688 41.6938 82.7031 40.9329 82.7031C40.1719 82.7031 38.9385 83.7181 38.9385 84.0097" stroke="#1F2A37" stroke-linecap="round" stroke-linejoin="round"/>
<path d="M30.8232 96.6336C31.465 95.6457 31.9887 94.5858 32.3836 93.4756" stroke="#1F2A37" stroke-linecap="round" stroke-linejoin="round"/>
<path d="M51.3636 84.0098C51.3636 84.0098 49.99 84.3701 49.5175 85.531C49.045 86.6918 46.8721 90.7191 46.8721 90.7191" stroke="#1F2A37" stroke-linecap="round" stroke-linejoin="round"/>
<path d="M44.4465 83.355C44.1553 84.0454 40.8945 90.1028 40.8945 90.1028" stroke="#1F2A37" stroke-linecap="round" stroke-linejoin="round"/>
<path d="M49.366 76.55C49.176 76.55 48.9977 76.5333 48.831 76.5C48.6643 76.4667 48.5193 76.42 48.396 76.36V75.7C48.5293 75.7633 48.6743 75.8167 48.831 75.86C48.991 75.9 49.141 75.92 49.281 75.92C49.4343 75.92 49.551 75.8967 49.631 75.85C49.711 75.8 49.751 75.7267 49.751 75.63C49.751 75.56 49.7243 75.5033 49.671 75.46C49.6177 75.4133 49.5293 75.3667 49.406 75.32C49.366 75.3033 49.2727 75.2717 49.126 75.225C48.9293 75.1583 48.776 75.0867 48.666 75.01C48.556 74.93 48.476 74.835 48.426 74.725C48.3793 74.615 48.356 74.475 48.356 74.305C48.356 74.0083 48.4527 73.7833 48.646 73.63C48.8427 73.4733 49.136 73.395 49.526 73.395C49.666 73.395 49.821 73.4083 49.991 73.435C50.161 73.4617 50.2993 73.4933 50.406 73.53V74.195C50.156 74.0817 49.9077 74.025 49.661 74.025C49.4943 74.025 49.3693 74.0483 49.286 74.095C49.2027 74.1383 49.161 74.2067 49.161 74.3C49.161 74.35 49.1743 74.3933 49.201 74.43C49.231 74.4633 49.2793 74.495 49.346 74.525C49.416 74.5517 49.506 74.58 49.616 74.61C49.6293 74.6167 49.6427 74.6233 49.656 74.63C49.6727 74.6333 49.691 74.6367 49.711 74.64C49.9377 74.7 50.1127 74.775 50.236 74.865C50.3593 74.955 50.4443 75.06 50.491 75.18C50.5377 75.3 50.561 75.45 50.561 75.63C50.561 75.92 50.4593 76.1467 50.256 76.31C50.0527 76.47 49.756 76.55 49.366 76.55ZM52.659 75.865V76.5H50.524V73.44H52.659V74.075H51.319V74.645H52.489V75.3H51.319V75.865H52.659ZM53.5479 75.825L53.3129 76.5H52.4879L53.5729 73.44H54.4129L55.5029 76.5H54.6779L54.4379 75.825H53.5479ZM54.3379 75.22L53.9929 74.28L53.6429 75.22H54.3379ZM56.2565 75.58V76.5H55.4615V73.44H56.9215C57.2515 73.44 57.4999 73.5383 57.6665 73.735C57.8332 73.9283 57.9165 74.1867 57.9165 74.51C57.9165 74.7233 57.8682 74.9067 57.7715 75.06C57.6749 75.2133 57.5432 75.3333 57.3765 75.42C57.4165 75.4433 57.4482 75.4717 57.4715 75.505C57.4949 75.535 57.5165 75.575 57.5365 75.625L57.8865 76.5H57.0615L56.7565 75.745C56.7399 75.7017 56.7215 75.6683 56.7015 75.645C56.6849 75.6217 56.6599 75.605 56.6265 75.595C56.5965 75.585 56.5549 75.58 56.5015 75.58H56.2565ZM56.7515 74.13H56.2565V74.895H56.7165C56.8465 74.895 56.9465 74.8633 57.0165 74.8C57.0865 74.7367 57.1215 74.64 57.1215 74.51C57.1215 74.38 57.0899 74.285 57.0265 74.225C56.9632 74.1617 56.8715 74.13 56.7515 74.13ZM59.2931 76.55C58.7764 76.55 58.3864 76.4167 58.1231 76.15C57.8598 75.8833 57.7281 75.5 57.7281 75C57.7281 74.4767 57.8564 74.0783 58.1131 73.805C58.3698 73.5317 58.7598 73.395 59.2831 73.395C59.4564 73.395 59.6114 73.4083 59.7481 73.435C59.8881 73.4583 60.0231 73.4967 60.1531 73.55V74.31C59.8931 74.19 59.6214 74.13 59.3381 74.13C59.0648 74.13 58.8614 74.2017 58.7281 74.345C58.5981 74.485 58.5331 74.7033 58.5331 75C58.5331 75.2767 58.6014 75.4817 58.7381 75.615C58.8781 75.745 59.0814 75.81 59.3481 75.81C59.4848 75.81 59.6214 75.795 59.7581 75.765C59.8981 75.735 60.0314 75.69 60.1581 75.63V76.395C60.0181 76.445 59.8798 76.4833 59.7431 76.51C59.6064 76.5367 59.4564 76.55 59.2931 76.55ZM60.9157 75.37V76.5H60.1207V73.44H60.9157V74.565H61.9307V73.44H62.7157V76.5H61.9307V75.37H60.9157Z" fill="#1F2A37"/>
</svg>