<svg width="18" height="6" viewBox="0 0 18 6" fill="none" xmlns="http://www.w3.org/2000/svg">
<g id="elements">
<path id="Ellipse 1334" d="M17.25 3C17.25 2.24061 16.6344 1.625 15.875 1.625C15.1156 1.625 14.5 2.24061 14.5 3C14.5 3.75939 15.1156 4.375 15.875 4.375C16.6344 4.375 17.25 3.75939 17.25 3Z" stroke="#FF7959" stroke-width="1.3"/>
<path id="Ellipse 1335" d="M10.375 3C10.375 2.24061 9.75939 1.625 9 1.625C8.24061 1.625 7.625 2.24061 7.625 3C7.625 3.75939 8.24061 4.375 9 4.375C9.75939 4.375 10.375 3.75939 10.375 3Z" stroke="#FF7959" stroke-width="1.3"/>
<path id="Ellipse 1336" d="M3.5 3C3.5 2.24061 2.88439 1.625 2.125 1.625C1.36561 1.625 0.75 2.24061 0.75 3C0.75 3.75939 1.36561 4.375 2.125 4.375C2.88439 4.375 3.5 3.75939 3.5 3Z" stroke="#FF7959" stroke-width="1.3"/>
</g>
</svg>
