<svg width="24" height="25" viewBox="0 0 24 25" fill="none" xmlns="http://www.w3.org/2000/svg">
<g id="traffic-jam-02">
<path id="Vector" d="M12 14.5H6C4.11438 14.5 3.17157 14.5 2.58579 15.0858C2 15.6716 2 16.6144 2 18.5V19.5H16V18.5C16 16.6144 16 15.6716 15.4142 15.0858C14.8284 14.5 13.8856 14.5 12 14.5Z" stroke="#111928" stroke-width="1.5" stroke-linecap="round" stroke-linejoin="round"/>
<path id="Vector_2" d="M15 14.5L14.6431 12.7155C14.3353 11.1763 14.1813 10.4066 13.6284 9.95332C13.0754 9.5 12.2905 9.5 10.7208 9.5H7.27922C5.70946 9.5 4.92459 9.5 4.37163 9.95332C3.81867 10.4066 3.66475 11.1763 3.35689 12.7155L3 14.5" stroke="#111928" stroke-width="1.5" stroke-linecap="round" stroke-linejoin="round"/>
<path id="Vector_3" d="M14.5 11.5003H15C16.8856 11.5003 17.8284 11.5003 18.4142 12.0861C19 12.6719 19 13.6147 19 15.5003V18.5M18 11.5003L17.6431 9.71588C17.3353 8.17661 17.1813 7.40697 16.6284 6.95366C16.0754 6.50034 15.2905 6.50034 13.7208 6.50034L10.4788 6.5C8.90902 6.5 8.12415 6.5 7.57119 6.95332C7.04467 7.38496 6.87994 8.1034 6.59961 9.5" stroke="#111928" stroke-width="1.5" stroke-linecap="round" stroke-linejoin="round"/>
<path id="Vector_4" d="M17.5 8.50034H18C19.8856 8.50034 20.8284 8.50034 21.4142 9.08613C22 9.67191 22 10.6147 22 12.5003V15.5M21 8.50034L20.6431 6.71588C20.3353 5.17661 20.1813 4.40697 19.6284 3.95366C19.0754 3.50034 18.2905 3.50034 16.7208 3.50034L13.4788 3.5C11.909 3.5 11.1241 3.5 10.5712 3.95332C10.0447 4.38496 9.87994 5.1034 9.59961 6.5" stroke="#111928" stroke-width="1.5" stroke-linecap="round" stroke-linejoin="round"/>
<path id="Vector_5" d="M11 18.5H7L6 19.5H12L11 18.5Z" stroke="#111928" stroke-width="1.5" stroke-linecap="round" stroke-linejoin="round"/>
<path id="Vector_6" d="M13.5 17V17.01" stroke="#111928" stroke-width="1.5" stroke-linecap="round" stroke-linejoin="round"/>
<path id="Vector_7" d="M4.5 17V17.01" stroke="#111928" stroke-width="1.5" stroke-linecap="round" stroke-linejoin="round"/>
<path id="Vector_8" d="M2 21.5V19.5H3V21.5H2Z" stroke="#111928" stroke-width="1.5" stroke-linecap="round" stroke-linejoin="round"/>
<path id="Vector_9" d="M16 19.5V21.5H15V19.5H16Z" stroke="#111928" stroke-width="1.5" stroke-linecap="round" stroke-linejoin="round"/>
</g>
</svg>
