<svg width="24" height="25" viewBox="0 0 24 25" fill="none" xmlns="http://www.w3.org/2000/svg">
<g id="Frame">
<path id="Vector" d="M3 11.4871V15.9925C3 18.8243 3 20.2403 3.87868 21.12C4.75736 21.9998 6.17157 21.9998 9 21.9998H15C17.8284 21.9998 19.2426 21.9998 20.1213 21.12C21 20.2403 21 18.8243 21 15.9925V11.4871" stroke="#111928" stroke-width="1.5"/>
<path id="Vector_2" d="M15 17.4768C14.3159 18.084 13.2268 18.4768 12 18.4768C10.7732 18.4768 9.68409 18.084 9 17.4768" stroke="#111928" stroke-width="1.5" stroke-linecap="round"/>
<path id="Vector_3" d="M17.7957 3.00294L6.14983 3.03202C4.41166 2.94248 3.966 4.28259 3.966 4.93768C3.966 5.52359 3.89055 6.37774 2.82524 7.9831C1.75993 9.58846 1.83998 10.0654 2.44071 11.1767C2.93928 12.0991 4.20741 12.4594 4.86862 12.52C6.96883 12.5678 7.99065 10.7517 7.99065 9.47523C9.03251 12.6825 11.9956 12.6825 13.3158 12.3157C14.6386 11.9483 15.7717 10.6331 16.0391 9.47523C16.195 10.9142 16.6682 11.7538 18.0663 12.3308C19.5145 12.9284 20.7599 12.015 21.3848 11.4294C22.0097 10.8439 22.4107 9.54401 21.2968 8.1153C20.5286 7.13001 20.2084 6.2018 20.1033 5.23977C20.0423 4.68234 19.9888 4.08336 19.5972 3.70219C19.0248 3.14515 18.2036 2.97613 17.7957 3.00294Z" stroke="#111928" stroke-width="1.5" stroke-linecap="round" stroke-linejoin="round"/>
</g>
</svg>
