<svg width="14" height="14" viewBox="0 0 14 14" fill="none" xmlns="http://www.w3.org/2000/svg">
<g id="elements">
<path id="Rectangle 2056" d="M0.666504 7.00008C0.666504 4.01452 0.666504 2.52174 1.594 1.59424C2.52149 0.666748 4.01428 0.666748 6.99984 0.666748C9.9854 0.666748 11.4782 0.666748 12.4057 1.59424C13.3332 2.52174 13.3332 4.01452 13.3332 7.00008C13.3332 9.98564 13.3332 11.4784 12.4057 12.4059C11.4782 13.3334 9.9854 13.3334 6.99984 13.3334C4.01428 13.3334 2.52149 13.3334 1.594 12.4059C0.666504 11.4784 0.666504 9.98564 0.666504 7.00008Z" stroke="#6B7280" stroke-width="1.3"/>
<circle id="Ellipse 1361" cx="10" cy="4" r="1" stroke="#6B7280" stroke-width="1.3"/>
<path id="Vector" d="M9.66667 13.6668C9.25365 12.1834 8.28965 10.8549 6.91769 9.88962C5.43841 8.8488 3.58109 8.29792 1.67713 8.33528C1.45105 8.33475 1.22517 8.34197 1 8.35687" stroke="#6B7280" stroke-linejoin="round"/>
<path id="Vector_2" d="M7.6665 11.0001C8.80085 10.1156 10.0228 9.66192 11.2573 9.66679C11.9573 9.66607 12.654 9.8145 13.3332 10.1079" stroke="#6B7280" stroke-width="1.3" stroke-linejoin="round"/>
</g>
</svg>
