<svg width="20" height="18" viewBox="0 0 20 18" fill="none" xmlns="http://www.w3.org/2000/svg">
<g id="elements">
<path id="Vector" d="M3.81569 1.84619L2.69014 2.49912C1.7843 3.02459 1.33138 3.28733 1.08237 3.72442C0.833364 4.16151 0.833364 4.6938 0.833364 5.75837V13.2426C0.833364 14.6414 0.833364 15.3407 1.14711 15.73C1.35587 15.989 1.64843 16.1631 1.97186 16.2208C2.45794 16.3076 3.05305 15.9624 4.24325 15.2719C5.05146 14.8031 5.8293 14.3161 6.79616 14.4482C7.23597 14.5083 7.65548 14.7168 8.4945 15.134L11.9906 16.8724C12.7468 17.2484 12.7537 17.25 13.5946 17.25H15.5C17.2285 17.25 18.0928 17.25 18.6297 16.7012C19.1667 16.1523 19.1667 15.269 19.1667 13.5024V7.32385C19.1667 5.55721 19.1667 4.67389 18.6297 4.12506C18.0928 3.57623 17.2285 3.57623 15.5 3.57623H13.5946C12.7537 3.57623 12.7468 3.5746 11.9906 3.1986L8.93658 1.68008C7.66147 1.04605 7.02391 0.729043 6.34471 0.751074C5.66551 0.773106 5.04891 1.1308 3.81569 1.84619Z" stroke="#FF7959" stroke-width="1.5" stroke-linecap="round" stroke-linejoin="round"/>
<path id="Vector 4642" d="M6.33336 0.75L6.33336 14.0417" stroke="#FF7959" stroke-width="1.5" stroke-linecap="round" stroke-linejoin="round"/>
<path id="Vector 4643" d="M12.75 3.95833L12.75 16.7917" stroke="#FF7959" stroke-width="1.5" stroke-linecap="round" stroke-linejoin="round"/>
</g>
</svg>
