<svg width="16" height="16" viewBox="0 0 16 16" fill="none" xmlns="http://www.w3.org/2000/svg">
<path d="M8.35294 1.3335C11.015 1.3335 12.346 1.3335 13.173 2.11454C14 2.89559 14 4.15267 14 6.66683V9.3335C14 11.8477 14 13.1047 13.173 13.8858C12.346 14.6668 11.015 14.6668 8.35294 14.6668H7.64706C4.98501 14.6668 3.65399 14.6668 2.82699 13.8858C2 13.1047 2 11.8477 2 9.3335L2 6.66683C2 4.15267 2 2.89559 2.82699 2.11454C3.65399 1.3335 4.98501 1.3335 7.64706 1.3335L8.35294 1.3335Z" stroke="#6B7280" stroke-width="1.3" stroke-linecap="round"/>
<path d="M5.33325 4.66699H10.6666" stroke="#6B7280" stroke-width="1.3" stroke-linecap="round"/>
<path d="M5.33325 8H10.6666" stroke="#6B7280" stroke-width="1.3" stroke-linecap="round"/>
<path d="M5.33325 11.3335L7.99992 11.3335" stroke="#6B7280" stroke-width="1.3" stroke-linecap="round"/>
</svg>
