<svg width="25" height="25" viewBox="0 0 25 25" fill="none" xmlns="http://www.w3.org/2000/svg">
<path d="M3.02992 14.894C2.81727 16.2471 3.768 17.1862 4.93205 17.6542C9.39481 19.4486 15.6052 19.4486 20.0679 17.6542C21.232 17.1862 22.1827 16.2471 21.9701 14.894C21.8394 14.0625 21.1932 13.3701 20.7144 12.694C20.0873 11.7975 20.025 10.8197 20.0249 9.77941C20.0249 5.7591 16.6559 2.5 12.5 2.5C8.34413 2.5 4.97513 5.7591 4.97513 9.77941C4.97503 10.8197 4.91272 11.7975 4.28561 12.694C3.80684 13.3701 3.16061 14.0625 3.02992 14.894Z" stroke="white" stroke-width="1.5" stroke-linecap="round" stroke-linejoin="round"/>
<path d="M9.5 21.5C10.2961 22.1219 11.3475 22.5 12.5 22.5C13.6525 22.5 14.7039 22.1219 15.5 21.5" stroke="white" stroke-width="1.5" stroke-linecap="round" stroke-linejoin="round"/>
</svg>
