<svg width="15" height="16" viewBox="0 0 15 16" fill="none" xmlns="http://www.w3.org/2000/svg">
<g id="elements">
<path id="Rectangle 567" d="M1.5 7.33325C1.5 4.83343 1.5 3.58352 2.13661 2.7073C2.34221 2.42432 2.59107 2.17546 2.87405 1.96986C3.75027 1.33325 5.00018 1.33325 7.5 1.33325C9.99982 1.33325 11.2497 1.33325 12.126 1.96986C12.4089 2.17546 12.6578 2.42432 12.8634 2.7073C13.5 3.58352 13.5 4.83343 13.5 7.33325V8.66659C13.5 11.1664 13.5 12.4163 12.8634 13.2925C12.6578 13.5755 12.4089 13.8244 12.126 14.03C11.2497 14.6666 9.99982 14.6666 7.5 14.6666C5.00018 14.6666 3.75027 14.6666 2.87405 14.03C2.59107 13.8244 2.34221 13.5755 2.13661 13.2925C1.5 12.4163 1.5 11.1664 1.5 8.66659V7.33325Z" stroke="#6B7280" stroke-width="1.3"/>
<path id="Vector 4454" d="M9.5 8.6665L8.92857 7.33317M5.5 8.6665L6.07143 7.33317M6.07143 7.33317L7.10504 4.92141C7.17117 4.76712 7.32706 4.6665 7.5 4.6665C7.67294 4.6665 7.82883 4.76712 7.89496 4.92141L8.92857 7.33317M6.07143 7.33317H8.92857" stroke="#6B7280" stroke-width="1.3" stroke-linecap="round" stroke-linejoin="round"/>
<path id="Vector 1495" d="M4.8335 11.3333L10.1668 11.3333" stroke="#6B7280" stroke-width="1.3" stroke-linecap="round" stroke-linejoin="round"/>
</g>
</svg>
