<svg width="24" height="25" viewBox="0 0 24 25" fill="none" xmlns="http://www.w3.org/2000/svg">
<path d="M11.4706 22.0122C7.47751 22.0122 5.48098 22.0122 4.24049 20.8406C3 19.6691 3 17.7834 3 14.0122L3 10.0122C3 6.24097 3 4.35535 4.24049 3.18378C5.48098 2.01221 7.47752 2.01221 11.4706 2.01221L12.5294 2.01221C16.5225 2.01221 18.519 2.01221 19.7595 3.18378C21 4.35535 21 6.24097 21 10.0122M11.5 22.0122H13" stroke="white" stroke-width="1.5" stroke-linecap="round"/>
<path d="M8 7.01221H16" stroke="white" stroke-width="1.5" stroke-linecap="round"/>
<path d="M8 12.0122H13" stroke="white" stroke-width="1.5" stroke-linecap="round"/>
<path d="M17.5 18.6018L16.5978 21.755C16.5572 21.9133 16.7139 22.0507 16.8659 21.99L18.8514 21.1971C18.9468 21.159 19.0532 21.159 19.1486 21.1971L21.1531 21.9976C21.3014 22.0568 21.456 21.9271 21.4231 21.7711L20.6589 18.5033M22 16.0073C22 14.3532 20.6569 13.0122 19 13.0122C17.3431 13.0122 16 14.3532 16 16.0073C16 17.6615 17.3431 19.0025 19 19.0025C20.6569 19.0025 22 17.6615 22 16.0073Z" stroke="white" stroke-width="1.5" stroke-linejoin="round"/>
</svg>
