<svg width="22" height="23" viewBox="0 0 22 23" fill="none" xmlns="http://www.w3.org/2000/svg">
<g id="elements">
<path id="Rectangle 116" d="M1 15.5C1 13.1611 1 11.9917 1.53647 11.1379C1.81621 10.6927 2.19267 10.3162 2.63789 10.0365C3.49167 9.5 4.66111 9.5 7 9.5H15C17.3389 9.5 18.5083 9.5 19.3621 10.0365C19.8073 10.3162 20.1838 10.6927 20.4635 11.1379C21 11.9917 21 13.1611 21 15.5C21 17.8389 21 19.0083 20.4635 19.8621C20.1838 20.3073 19.8073 20.6838 19.3621 20.9635C18.5083 21.5 17.3389 21.5 15 21.5H7C4.66111 21.5 3.49167 21.5 2.63789 20.9635C2.19267 20.6838 1.81621 20.3073 1.53647 19.8621C1 19.0083 1 17.8389 1 15.5Z" stroke="#111928" stroke-width="1.5" stroke-linecap="round" stroke-linejoin="round"/>
<path id="Rectangle 117" d="M19 9.5C19 8.09987 19 7.3998 18.7275 6.86502C18.4878 6.39462 18.1054 6.01217 17.635 5.77248C17.1002 5.5 16.4001 5.5 15 5.5H7C5.59987 5.5 4.8998 5.5 4.36502 5.77248C3.89462 6.01217 3.51217 6.39462 3.27248 6.86502C3 7.3998 3 8.09987 3 9.5" stroke="#111928" stroke-width="1.5" stroke-linecap="round" stroke-linejoin="round"/>
<path id="Rectangle 118" d="M17 5.5C17 3.61438 17 2.67157 16.4142 2.08579C15.8284 1.5 14.8856 1.5 13 1.5H9C7.11438 1.5 6.17157 1.5 5.58579 2.08579C5 2.67157 5 3.61438 5 5.5" stroke="#111928" stroke-width="1.5" stroke-linecap="round" stroke-linejoin="round"/>
<path id="Vector 4033" d="M14 13.5C14 14.6046 13.1046 15.5 12 15.5H10C8.89543 15.5 8 14.6046 8 13.5" stroke="#111928" stroke-width="1.5" stroke-linecap="round"/>
</g>
</svg>
