<svg width="24" height="25" viewBox="0 0 24 25" fill="none" xmlns="http://www.w3.org/2000/svg">
<g id="layers-01">
<path id="Vector" d="M8.64298 3.64559L6.93816 4.43362C4.31272 5.64719 3 6.25397 3 7.25C3 8.24603 4.31272 8.85281 6.93817 10.0664L8.64298 10.8544C10.2952 11.6181 11.1214 12 12 12C12.8786 12 13.7048 11.6181 15.357 10.8544L17.0618 10.0664C19.6873 8.85281 21 8.24603 21 7.25C21 6.25397 19.6873 5.64719 17.0618 4.43362L15.357 3.64559C13.7048 2.88186 12.8786 2.5 12 2.5C11.1214 2.5 10.2952 2.88186 8.64298 3.64559Z" stroke="#111928" stroke-width="1.5" stroke-linecap="round" stroke-linejoin="round"/>
<path id="Vector_2" d="M20.788 11.5972C20.9293 11.7959 21 12.0031 21 12.2309C21 13.2127 19.6873 13.8109 17.0618 15.0072L15.357 15.784C13.7048 16.5368 12.8786 16.9133 12 16.9133C11.1214 16.9133 10.2952 16.5368 8.64298 15.784L6.93817 15.0072C4.31272 13.8109 3 13.2127 3 12.2309C3 12.0031 3.07067 11.7959 3.212 11.5972" stroke="#111928" stroke-width="1.5" stroke-linecap="round" stroke-linejoin="round"/>
<path id="Vector_3" d="M20.3767 16.7661C20.7922 17.0971 21 17.427 21 17.8176C21 18.7995 19.6873 19.3976 17.0618 20.5939L15.357 21.3707C13.7048 22.1236 12.8786 22.5 12 22.5C11.1214 22.5 10.2952 22.1236 8.64298 21.3707L6.93817 20.5939C4.31272 19.3976 3 18.7995 3 17.8176C3 17.427 3.20778 17.0971 3.62334 16.7661" stroke="#111928" stroke-width="1.5" stroke-linecap="round" stroke-linejoin="round"/>
</g>
</svg>
