<svg width="16" height="15" viewBox="0 0 16 15" fill="none" xmlns="http://www.w3.org/2000/svg">
<g id="elements">
<path id="Vector" d="M2 7.3335L2.10192 9.48477C2.21142 11.7792 2.26618 12.9264 3.03923 13.63C3.81228 14.3335 5.01811 14.3335 7.42975 14.3335H8.57025C10.9819 14.3335 12.1877 14.3335 12.9608 13.63C13.7338 12.9264 13.7886 11.7792 13.8981 9.48477L14 7.3335" stroke="#6B7280" stroke-width="1.3" stroke-linecap="round" stroke-linejoin="round"/>
<path id="Ellipse 1564" d="M1.89747 6.96204C3.03033 9.11629 5.58548 10 7.99935 10C10.4132 10 12.9684 9.11629 14.1012 6.96204C14.642 5.93371 14.2325 4 12.9007 4H3.09802C1.76617 4 1.3567 5.93371 1.89747 6.96204Z" stroke="#6B7280" stroke-width="1.5"/>
<path id="Vector_2" d="M8 7.3335H8.00599" stroke="#6B7280" stroke-width="2" stroke-linecap="round" stroke-linejoin="round"/>
<path id="Rectangle 2223" d="M10.6654 4.00008L10.6065 3.79404C10.3132 2.76734 10.1665 2.25399 9.8173 1.96037C9.46812 1.66675 9.0043 1.66675 8.07667 1.66675H7.92072C6.99309 1.66675 6.52928 1.66675 6.1801 1.96037C5.83091 2.25399 5.68424 2.76734 5.3909 3.79404L5.33203 4.00008" stroke="#6B7280" stroke-width="1.5"/>
</g>
</svg>
