<svg xmlns="http://www.w3.org/2000/svg" width="20" height="19" viewBox="0 0 20 19" fill="none">
  <path d="M1.29166 6.00438C1.38705 4.07964 1.67241 2.8796 2.52608 2.02593C3.37975 1.17226 4.57979 0.886894 6.50453 0.791504M18.7083 6.00438C18.6129 4.07964 18.3276 2.8796 17.4739 2.02593C16.6202 1.17226 15.4202 0.886894 13.4954 0.791504M13.4954 18.2082C15.4202 18.1128 16.6202 17.8274 17.4739 16.9737C18.3276 16.1201 18.6129 14.92 18.7083 12.9953M6.50452 18.2082C4.57978 18.1128 3.37975 17.8274 2.52608 16.9737C1.67241 16.1201 1.38705 14.92 1.29166 12.9953" stroke="white" stroke-width="1.5" stroke-linecap="round" stroke-linejoin="round"/>
  <path d="M1.29153 9.5H18.7082" stroke="white" stroke-width="1.5" stroke-linecap="round"/>
</svg>