<svg xmlns="http://www.w3.org/2000/svg" width="41" height="41" viewBox="0 0 41 41" fill="none">
<rect width="41" height="41" rx="20.5" fill="#FFF2ED"/>
<path d="M10.5 12.5V28.5" stroke="#FF7959" stroke-width="1.5" stroke-linecap="round" stroke-linejoin="round"/>
<path d="M13.5 12.5V28.5" stroke="#FF7959" stroke-width="1.5" stroke-linecap="round" stroke-linejoin="round"/>
<path d="M23.5 12.5V28.5" stroke="#FF7959" stroke-width="1.5" stroke-linecap="round" stroke-linejoin="round"/>
<path d="M16.5 26.5V14.5C16.5 13.5572 16.5 13.0858 16.7929 12.7929C17.0858 12.5 17.5572 12.5 18.5 12.5C19.4428 12.5 19.9142 12.5 20.2071 12.7929C20.5 13.0858 20.5 13.5572 20.5 14.5V26.5C20.5 27.4428 20.5 27.9142 20.2071 28.2071C19.9142 28.5 19.4428 28.5 18.5 28.5C17.5572 28.5 17.0858 28.5 16.7929 28.2071C16.5 27.9142 16.5 27.4428 16.5 26.5Z" stroke="#FF7959" stroke-width="1.5" stroke-linecap="round" stroke-linejoin="round"/>
<path d="M26.5 26.5V14.5C26.5 13.5572 26.5 13.0858 26.7929 12.7929C27.0858 12.5 27.5572 12.5 28.5 12.5C29.4428 12.5 29.9142 12.5 30.2071 12.7929C30.5 13.0858 30.5 13.5572 30.5 14.5V26.5C30.5 27.4428 30.5 27.9142 30.2071 28.2071C29.9142 28.5 29.4428 28.5 28.5 28.5C27.5572 28.5 27.0858 28.5 26.7929 28.2071C26.5 27.9142 26.5 27.4428 26.5 26.5Z" stroke="#FF7959" stroke-width="1.5" stroke-linecap="round" stroke-linejoin="round"/>
</svg>