<svg width="13" height="12" viewBox="0 0 13 12" fill="none" xmlns="http://www.w3.org/2000/svg">
<g clip-path="url(#clip0_2335_48)">
<path d="M6.5 1L7.09744 0.743952C6.99502 0.504958 6.76002 0.35 6.5 0.35C6.23998 0.35 6.00498 0.504958 5.90256 0.743952L6.5 1ZM8 4.5L7.40256 4.75605L7.57139 5.15H8V4.5ZM11.5 4.5L11.981 4.93724C12.154 4.74686 12.1985 4.47233 12.0944 4.23704C11.9903 4.00175 11.7573 3.85 11.5 3.85V4.5ZM9 7.25L8.51904 6.81276L8.26298 7.09443L8.38336 7.45555L9 7.25ZM10.25 11L9.94412 11.5735C10.1788 11.6987 10.4661 11.6682 10.6694 11.4966C10.8726 11.325 10.9508 11.0468 10.8666 10.7945L10.25 11ZM6.5 9L6.80588 8.42647L6.5 8.26333L6.19412 8.42647L6.5 9ZM2.75 11L2.13336 10.7945C2.04923 11.0468 2.12738 11.325 2.33062 11.4966C2.53385 11.6682 2.82116 11.6987 3.05588 11.5735L2.75 11ZM4 7.25L4.61664 7.45555L4.73702 7.09443L4.48096 6.81276L4 7.25ZM1.5 4.5V3.85C1.24272 3.85 1.00965 4.00175 0.905566 4.23704C0.801482 4.47233 0.845973 4.74686 1.01904 4.93724L1.5 4.5ZM5 4.5V5.15H5.42861L5.59744 4.75605L5 4.5ZM5.90256 1.25605L7.40256 4.75605L8.59744 4.24395L7.09744 0.743952L5.90256 1.25605ZM8 5.15H11.5V3.85H8V5.15ZM11.019 4.06276L8.51904 6.81276L9.48096 7.68724L11.981 4.93724L11.019 4.06276ZM8.38336 7.45555L9.63336 11.2055L10.8666 10.7945L9.61664 7.04445L8.38336 7.45555ZM10.5559 10.4265L6.80588 8.42647L6.19412 9.57353L9.94412 11.5735L10.5559 10.4265ZM6.19412 8.42647L2.44412 10.4265L3.05588 11.5735L6.80588 9.57353L6.19412 8.42647ZM3.36664 11.2055L4.61664 7.45555L3.38336 7.04445L2.13336 10.7945L3.36664 11.2055ZM4.48096 6.81276L1.98096 4.06276L1.01904 4.93724L3.51904 7.68724L4.48096 6.81276ZM1.5 5.15H5V3.85H1.5V5.15ZM5.59744 4.75605L7.09744 1.25605L5.90256 0.743952L4.40256 4.24395L5.59744 4.75605Z" fill="#8E4B10"/>
</g>
<defs>
<clipPath id="clip0_2335_48">
<rect width="12" height="12" fill="white" transform="translate(0.5)"/>
</clipPath>
</defs>
</svg>
