<svg width="22" height="21" viewBox="0 0 22 21" fill="none" xmlns="http://www.w3.org/2000/svg">
<g id="elements">
<path id="Rectangle 2100" d="M16 9.30445C16 8.95883 16 8.78603 16.052 8.63197C16.2032 8.18444 16.6018 8.01076 17.0011 7.82888C17.45 7.62442 17.6744 7.52219 17.8968 7.5042C18.1493 7.48378 18.4022 7.53818 18.618 7.65929C18.9041 7.81984 19.1036 8.12493 19.3079 8.37302C20.2513 9.51885 20.7229 10.0918 20.8955 10.7236C21.0348 11.2334 21.0348 11.7666 20.8955 12.2764C20.6438 13.1979 19.8485 13.9704 19.2598 14.6854C18.9587 15.0511 18.8081 15.234 18.618 15.3407C18.4022 15.4618 18.1493 15.5162 17.8968 15.4958C17.6744 15.4778 17.45 15.3756 17.0011 15.1711C16.6018 14.9892 16.2032 14.8156 16.052 14.368C16 14.214 16 14.0412 16 13.6955V9.30445Z" stroke="white" stroke-width="1.5"/>
<path id="Rectangle 2102" d="M6 9.30462C6 8.86937 5.98778 8.47821 5.63591 8.1722C5.50793 8.0609 5.33825 7.98361 4.99891 7.82905C4.55001 7.62458 4.32556 7.52235 4.10316 7.50436C3.43591 7.4504 3.07692 7.90581 2.69213 8.37318C1.74875 9.51901 1.27706 10.0919 1.10446 10.7237C0.965178 11.2336 0.965178 11.7668 1.10446 12.2766C1.3562 13.1981 2.15152 13.9705 2.74021 14.6856C3.11129 15.1363 3.46577 15.5475 4.10316 15.496C4.32556 15.478 4.55001 15.3757 4.99891 15.1713C5.33825 15.0167 5.50793 14.9394 5.63591 14.8281C5.98778 14.5221 6 14.131 6 13.6957V9.30462Z" stroke="white" stroke-width="1.5"/>
<path id="Vector 4310" d="M4 7.5C4 4.18629 7.13401 1.5 11 1.5C14.866 1.5 18 4.18629 18 7.5" stroke="white" stroke-width="1.5" stroke-linecap="square" stroke-linejoin="round"/>
<path id="Vector 6251" d="M18 15.5V16.3C18 18.0673 16.2091 19.5 14 19.5H12" stroke="white" stroke-width="1.5" stroke-linecap="round" stroke-linejoin="round"/>
</g>
</svg>
