<svg width="24" height="25" viewBox="0 0 24 25" fill="none" xmlns="http://www.w3.org/2000/svg">
<path d="M7.5 4C5.9442 4.04667 5.01661 4.21984 4.37477 4.86227C3.49609 5.74177 3.49609 7.1573 3.49609 9.98836L3.49609 16.4944C3.49609 19.3255 3.49609 20.741 4.37477 21.6205C5.25345 22.5 6.66767 22.5 9.49609 22.5L14.4961 22.5C17.3245 22.5 18.7387 22.5 19.6174 21.6205C20.4961 20.741 20.4961 19.3255 20.4961 16.4944L20.4961 9.98836C20.4961 7.1573 20.4961 5.74177 19.6174 4.86228C18.9756 4.21984 18.048 4.04667 16.4922 4" stroke="#111928" stroke-width="1.5"/>
<path d="M7.49609 4.25C7.49609 3.2835 8.2796 2.5 9.24609 2.5L14.7461 2.5C15.7126 2.5 16.4961 3.2835 16.4961 4.25C16.4961 5.2165 15.7126 6 14.7461 6L9.24609 6C8.2796 6 7.49609 5.2165 7.49609 4.25Z" stroke="#111928" stroke-width="1.5" stroke-linejoin="round"/>
<path d="M13.5 11.5H17" stroke="#111928" stroke-width="1.5" stroke-linecap="round"/>
<path d="M7 12.5C7 12.5 7.5 12.5 8 13.5C8 13.5 9.58824 11 11 10.5" stroke="#111928" stroke-width="1.5" stroke-linecap="round" stroke-linejoin="round"/>
<path d="M13.5 17.5H17" stroke="#111928" stroke-width="1.5" stroke-linecap="round"/>
<path d="M8 17.5H9" stroke="#111928" stroke-width="2" stroke-linecap="round" stroke-linejoin="round"/>
</svg>
