<svg width="16" height="16" viewBox="0 0 16 16" fill="none" xmlns="http://www.w3.org/2000/svg">
<path d="M8.00016 9.33325H4.00016C2.74308 9.33325 2.11454 9.33325 1.72402 9.72379C1.3335 10.1143 1.3335 10.7429 1.3335 11.9999V12.6666H10.6668V11.9999C10.6668 10.7429 10.6668 10.1143 10.2763 9.72379C9.88576 9.33325 9.25723 9.33325 8.00016 9.33325Z" stroke="#6B7280" stroke-width="1.3" stroke-linecap="round" stroke-linejoin="round"/>
<path d="M10 9.33333L9.76207 8.14367C9.55687 7.11753 9.4542 6.60442 9.0856 6.30221C8.71693 6 8.19367 6 7.1472 6H4.85281C3.80631 6 3.28306 6 2.91442 6.30221C2.54578 6.60442 2.44317 7.11753 2.23793 8.14367L2 9.33333" stroke="#6B7280" stroke-width="1.3" stroke-linecap="round" stroke-linejoin="round"/>
<path d="M9.66683 7.33353H10.0002C11.2572 7.33353 11.8858 7.33353 12.2763 7.72407C12.6668 8.1146 12.6668 8.74313 12.6668 10.0002V12M12.0002 7.33353L11.7622 6.14392C11.557 5.11774 11.4544 4.60465 11.0858 4.30244C10.7171 4.00023 10.1938 4.00023 9.14736 4.00023L6.98603 4C5.93951 4 5.41626 4 5.04762 4.30221C4.69661 4.58997 4.58679 5.06893 4.3999 6" stroke="#6B7280" stroke-width="1.3" stroke-linecap="round" stroke-linejoin="round"/>
<path d="M11.6668 5.33356H12.0002C13.2572 5.33356 13.8858 5.33356 14.2763 5.72409C14.6668 6.11461 14.6668 6.74313 14.6668 8.0002V10M14.0002 5.33356L13.7622 4.14392C13.557 3.11774 13.4544 2.60465 13.0858 2.30244C12.7171 2.00023 12.1938 2.00023 11.1474 2.00023L8.98603 2C7.9395 2 7.41623 2 7.04763 2.30221C6.69663 2.58997 6.58679 3.06893 6.3999 4" stroke="#6B7280" stroke-width="1.3" stroke-linecap="round" stroke-linejoin="round"/>
<path d="M7.33333 12H4.66667L4 12.6667H8L7.33333 12Z" stroke="#6B7280" stroke-width="1.3" stroke-linecap="round" stroke-linejoin="round"/>
<path d="M9 11V11.0067" stroke="#6B7280" stroke-width="1.3" stroke-linecap="round" stroke-linejoin="round"/>
<path d="M3 11V11.0067" stroke="#6B7280" stroke-width="1.3" stroke-linecap="round" stroke-linejoin="round"/>
<path d="M1.3335 14.0001V12.6667H2.00016V14.0001H1.3335Z" stroke="#6B7280" stroke-width="1.3" stroke-linecap="round" stroke-linejoin="round"/>
<path d="M10.6667 12.6667V14.0001H10V12.6667H10.6667Z" stroke="#6B7280" stroke-width="1.3" stroke-linecap="round" stroke-linejoin="round"/>
</svg>
