<svg width="267" height="138" viewBox="0 0 267 138" fill="none" xmlns="http://www.w3.org/2000/svg">
<path d="M249.665 94.5675H94.8736V38.8524H84.2499V37.8066C84.2499 37.3694 83.8988 37.015 83.465 37.015H80.9532C80.5222 37.015 80.1711 37.3694 80.1711 37.8066V93.0302C80.1711 93.7303 79.4775 94.3018 78.7782 94.3018H18.2559V112.398H238.941L238.747 107.446H249.665C250.267 107.446 250.755 106.958 250.755 106.349V95.6648C250.755 95.059 250.267 94.5675 249.665 94.5675Z" fill="#393536"/>
<path d="M250.756 105.172H246.848C246.246 105.172 245.758 104.68 245.758 104.072V98.1194C245.758 97.5107 246.246 97.0221 246.848 97.0221H250.756V105.172Z" fill="#ED1C24"/>
<path d="M247.383 97.4893C246.783 97.4893 246.295 97.9811 246.295 98.5869V99.9934C246.295 99.3883 246.783 98.8958 247.383 98.8958H250.755V97.4893H247.383Z" fill="#91141F"/>
<path d="M250.756 104.666H247.382C246.783 104.666 246.295 104.174 246.295 103.568V102.866C246.295 103.471 246.783 103.963 247.382 103.963H250.756V104.666Z" fill="#F46D57"/>
<path d="M79.6002 118.08V114.908C79.6002 104.846 71.5105 96.6902 61.5322 96.6902C51.5542 96.6902 43.4648 104.846 43.4648 114.908V118.08H79.6002Z" fill="#231F20"/>
<path d="M38.6992 94.9988H83.3917C85.1871 94.9988 86.6456 96.4704 86.6456 98.2821V118.082C86.6456 118.513 86.2974 118.865 85.8664 118.865H80.3804C79.9495 118.865 79.6012 118.513 79.6012 118.082V114.907C79.6012 104.846 71.5122 96.6905 61.5336 96.6905C51.5549 96.6905 43.4659 104.846 43.4659 114.907V118.082C43.4659 118.513 43.1177 118.865 42.6867 118.865H38.6992V94.9988Z" fill="#4F4C4C"/>
<path d="M213.047 118.08V114.908C213.047 104.846 204.957 96.6902 194.979 96.6902C185.001 96.6902 176.912 104.846 176.912 114.908V118.08H213.047Z" fill="#231F20"/>
<mask id="mask0_8_39970" style="mask-type:luminance" maskUnits="userSpaceOnUse" x="15" y="30" width="65" height="91">
<path d="M40.6908 120.642H18.5216C17.925 120.642 17.3884 120.399 16.9973 120.005C16.6064 119.61 16.3637 119.067 16.3637 118.464V93.5358C16.3637 93.1929 16.5007 92.8843 16.7233 92.6586C16.9489 92.4328 17.2514 92.2957 17.5911 92.2957H17.7251V91.6499C17.1315 91.647 16.6434 91.2355 16.5293 90.6698C16.2353 89.2296 15.7871 86.4893 15.7871 82.2345C15.7871 75.528 15.7871 73.7963 15.7871 70.3359C15.7871 69.4101 16.0668 67.7128 16.5436 65.5525C17.9764 59.0603 21.1704 48.2991 23.7249 39.9152C24.2273 38.2579 25.0865 36.8834 26.2367 35.8547C27.3899 34.8289 28.837 34.1402 30.5381 33.8716C35.0365 33.1601 42.1151 32.4 48.9226 31.8228C55.7273 31.2456 62.2693 30.8456 65.683 30.8456C72.5504 30.8456 70.0044 30.8456 74.0832 30.8456C75.6759 30.8456 77.1145 31.4971 78.1591 32.5486C79.2038 33.603 79.8489 35.0546 79.8489 36.6663L79.846 93.7272C79.8489 93.9701 79.7261 94.2045 79.5235 94.3845C79.3234 94.5651 79.0481 94.6759 78.7883 94.6759C78.7852 94.6759 78.7817 94.6759 78.7785 94.6759H59.8175C54.7968 94.6759 50.247 96.7305 46.9589 100.045C43.6679 103.363 41.6328 107.946 41.6328 113.01V116.487C41.5075 117.712 41.1348 118.084 40.1086 118.084H18.7927C17.6367 118.084 16.6977 117.136 16.6977 115.97V117.956C16.6977 119.125 17.6367 120.073 18.7927 120.073L40.0201 120.065C40.9969 120.065 41.4989 119.73 41.6328 119.031V119.693C41.6328 119.956 41.5271 120.193 41.3559 120.365C41.1846 120.536 40.9534 120.642 40.6908 120.642ZM54.1859 62.9624V91.1527C54.1859 91.2727 54.283 91.3698 54.4029 91.3698C54.5199 91.3698 54.6169 91.2727 54.6169 91.1527V62.9624L65.3262 62.9693C67.036 62.9693 68.4231 61.5692 68.4231 59.8433V46.2445V45.3301C68.4231 43.6042 67.036 42.2069 65.3262 42.2069H29.2708C27.9379 42.2069 26.7391 43.0327 26.3651 44.2443C25.4779 47.118 23.7187 54.3547 22.6411 59.2575H22.6403C22.2337 61.1091 21.9236 62.6312 21.7952 63.4551C21.795 63.457 21.7946 63.4589 21.7944 63.4608C21.7928 63.4713 21.7911 63.4815 21.7896 63.4916C21.7894 63.4929 21.7893 63.4942 21.7891 63.4951C21.7876 63.505 21.7861 63.5145 21.7847 63.524C21.7841 63.5281 21.7835 63.532 21.7829 63.5361C21.7816 63.5447 21.7804 63.5529 21.7792 63.5612C21.779 63.5621 21.7789 63.5631 21.7788 63.564C21.7755 63.5853 21.7726 63.6063 21.7697 63.6266C21.7155 64.0095 21.6898 64.8467 21.6898 65.0324C21.6898 68.6957 21.6898 73.7478 21.6898 75.3651C21.6898 76.9824 23.2283 78.5969 24.8324 78.5969H27.484C29.7652 78.5969 32.6677 78.5969 33.8091 78.5969C35.1278 78.5969 36.8461 77.934 37.3028 76.5024L40.6823 64.7638C40.9506 63.6809 41.8896 62.9551 42.9229 62.9551L54.1859 62.9624Z" fill="white"/>
</mask>
<g mask="url(#mask0_8_39970)">
<path d="M40.6908 120.642H18.5216C17.925 120.642 17.3884 120.399 16.9973 120.005C16.6064 119.61 16.3637 119.067 16.3637 118.464V93.5358C16.3637 93.1929 16.5007 92.8843 16.7233 92.6586C16.9489 92.4328 17.2514 92.2957 17.5911 92.2957H17.7251V91.6499C17.1315 91.647 16.6434 91.2355 16.5293 90.6698C16.2353 89.2296 15.7871 86.4893 15.7871 82.2345C15.7871 75.528 15.7871 73.7963 15.7871 70.3359C15.7871 69.4101 16.0668 67.7128 16.5436 65.5525C17.9764 59.0603 21.1704 48.2991 23.7249 39.9152C24.2273 38.2579 25.0865 36.8834 26.2367 35.8547C27.3899 34.8289 28.837 34.1402 30.5381 33.8716C35.0365 33.1601 42.1151 32.4 48.9226 31.8228C55.7273 31.2456 62.2693 30.8456 65.683 30.8456C72.5504 30.8456 70.0044 30.8456 74.0832 30.8456C75.6759 30.8456 77.1145 31.4971 78.1591 32.5486C79.2038 33.603 79.8489 35.0546 79.8489 36.6663L79.846 93.7272C79.8489 93.9701 79.7261 94.2045 79.5235 94.3845C79.3234 94.5651 79.0481 94.6759 78.7883 94.6759C78.7852 94.6759 78.7817 94.6759 78.7785 94.6759H59.8175C54.7968 94.6759 50.247 96.7305 46.9589 100.045C43.6679 103.363 41.6328 107.946 41.6328 113.01V116.487C41.5075 117.712 41.1348 118.084 40.1086 118.084H18.7927C17.6367 118.084 16.6977 117.136 16.6977 115.97V117.956C16.6977 119.125 17.6367 120.073 18.7927 120.073L40.0201 120.065C40.9969 120.065 41.4989 119.73 41.6328 119.031V119.693C41.6328 119.956 41.5271 120.193 41.3559 120.365C41.1846 120.536 40.9534 120.642 40.6908 120.642ZM54.1859 62.9624V91.1527C54.1859 91.2727 54.283 91.3698 54.4029 91.3698C54.5199 91.3698 54.6169 91.2727 54.6169 91.1527V62.9624L65.3262 62.9693C67.036 62.9693 68.4231 61.5692 68.4231 59.8433V46.2445V45.3301C68.4231 43.6042 67.036 42.2069 65.3262 42.2069H29.2708C27.9379 42.2069 26.7391 43.0327 26.3651 44.2443C25.4779 47.118 23.7187 54.3547 22.6411 59.2575H22.6403C22.2337 61.1091 21.9236 62.6312 21.7952 63.4551C21.795 63.457 21.7946 63.4589 21.7944 63.4608C21.7928 63.4713 21.7911 63.4815 21.7896 63.4916C21.7894 63.4929 21.7893 63.4942 21.7891 63.4951C21.7876 63.505 21.7861 63.5145 21.7847 63.524C21.7841 63.5281 21.7835 63.532 21.7829 63.5361C21.7816 63.5447 21.7804 63.5529 21.7792 63.5612C21.779 63.5621 21.7789 63.5631 21.7788 63.564C21.7755 63.5853 21.7726 63.6063 21.7697 63.6266C21.7155 64.0095 21.6898 64.8467 21.6898 65.0324C21.6898 68.6957 21.6898 73.7478 21.6898 75.3651C21.6898 76.9824 23.2283 78.5969 24.8324 78.5969H27.484C29.7652 78.5969 32.6677 78.5969 33.8091 78.5969C35.1278 78.5969 36.8461 77.934 37.3028 76.5024L40.6823 64.7638C40.9506 63.6809 41.8896 62.9551 42.9229 62.9551L54.1859 62.9624Z" fill="url(#paint0_linear_8_39970)"/>
</g>
<path d="M23.4143 39.8211L23.7254 39.9154C24.2279 38.2581 25.087 36.8836 26.2373 35.8549C27.3904 34.8291 28.8375 34.1404 30.5387 33.8718C35.037 33.1603 42.1157 32.4002 48.9232 31.823C55.7278 31.2458 62.2698 30.8458 65.6836 30.8458C72.551 30.8458 70.005 30.8458 74.0837 30.8458C75.6764 30.8458 77.115 31.4973 78.1597 32.5488C79.2043 33.6032 79.8494 35.0548 79.8494 36.6664L79.8465 93.7274C79.8494 93.9703 79.7267 94.2046 79.524 94.3847C79.3214 94.5675 79.0416 94.679 78.779 94.6761H59.818C54.7973 94.6761 50.2475 96.7306 46.9594 100.045C43.6684 103.363 41.6333 107.946 41.6333 113.01V119.693C41.6333 119.956 41.5277 120.193 41.3564 120.365C41.1852 120.536 40.954 120.642 40.6914 120.642H18.5222C17.9255 120.642 17.389 120.399 16.9979 120.005C16.6069 119.61 16.3642 119.068 16.3642 118.465V93.536C16.3642 93.1931 16.5012 92.8845 16.7239 92.6587C16.9494 92.433 17.252 92.2958 17.5917 92.2958H17.7257V91.6501C17.1321 91.6472 16.6439 91.2357 16.5298 90.6699C16.2359 89.2298 15.7876 86.4894 15.7876 82.2347C15.7876 75.5282 15.7876 73.7965 15.7876 70.3361C15.7876 69.4103 16.0674 67.713 16.5441 65.5527C17.9769 59.0605 21.1709 48.2992 23.7254 39.9154L23.4143 39.8211L23.1061 39.7268C21.4021 45.3189 19.4155 51.9682 17.8513 57.7118C17.0692 60.5864 16.3928 63.2324 15.9133 65.4127C15.4337 67.5958 15.1454 69.296 15.1426 70.3361C15.1426 73.7965 15.1426 75.5282 15.1426 82.2347C15.1426 86.5352 15.5965 89.3241 15.8962 90.7985C16.0702 91.6586 16.8238 92.2958 17.7257 92.2958V91.6501H17.5917C17.0749 91.6501 16.604 91.8615 16.2672 92.2015C15.9275 92.5444 15.7191 93.0159 15.7191 93.536V118.465C15.7191 119.242 16.0332 119.951 16.5384 120.462C17.0464 120.971 17.7486 121.291 18.5222 121.288H40.6914C41.5705 121.288 42.2755 120.573 42.2784 119.693V113.01C42.2784 108.123 44.2421 103.703 47.4161 100.503C50.5929 97.3021 54.9743 95.3248 59.818 95.3248H78.779C79.2158 95.3219 79.6325 95.1505 79.9493 94.8704C80.2661 94.5904 80.4945 94.1903 80.4945 93.7274L80.4973 36.6664C80.4973 34.8805 79.778 33.2632 78.6192 32.0945C77.4604 30.9229 75.8534 30.2 74.0837 30.2C70.005 30.2 72.551 30.2 65.6836 30.2C62.227 30.2 55.6878 30.6 48.8689 31.1801C42.05 31.7573 34.9657 32.5145 30.436 33.2346H30.4388C28.6234 33.5204 27.0536 34.2605 25.8091 35.3749C24.5617 36.4864 23.6398 37.9695 23.1061 39.7268L23.4143 39.8211Z" fill="#D3D2D2"/>
<path d="M78.6535 114.908C78.6535 124.466 70.9666 132.217 61.4853 132.217C52.0033 132.217 44.3164 124.466 44.3164 114.908C44.3164 105.346 52.0033 97.5974 61.4853 97.5974C70.9666 97.5974 78.6535 105.346 78.6535 114.908Z" fill="#393536"/>
<mask id="mask1_8_39970" style="mask-type:luminance" maskUnits="userSpaceOnUse" x="50" y="104" width="23" height="22">
<path d="M72.2277 114.908C72.2277 120.89 67.4175 125.739 61.4841 125.739C55.5507 125.739 50.7402 120.89 50.7402 114.908C50.7402 108.924 55.5507 104.075 61.4841 104.075C67.4175 104.075 72.2277 108.924 72.2277 114.908Z" fill="white"/>
</mask>
<g mask="url(#mask1_8_39970)">
<path d="M72.2277 114.908C72.2277 120.89 67.4175 125.739 61.4841 125.739C55.5507 125.739 50.7402 120.89 50.7402 114.908C50.7402 108.924 55.5507 104.075 61.4841 104.075C67.4175 104.075 72.2277 108.924 72.2277 114.908Z" fill="url(#paint1_linear_8_39970)"/>
</g>
<mask id="mask2_8_39970" style="mask-type:luminance" maskUnits="userSpaceOnUse" x="54" y="107" width="15" height="16">
<path d="M61.4827 107.613C57.5007 107.613 54.2734 110.868 54.2734 114.882C54.2734 118.896 57.5007 122.151 61.4827 122.151C65.4638 122.151 68.6927 118.896 68.6927 114.882C68.6927 110.868 65.4638 107.613 61.4827 107.613ZM67.3807 114.882C67.3807 118.166 64.7398 120.829 61.4827 120.829C58.2257 120.829 55.5842 118.166 55.5842 114.882C55.5842 111.598 58.2257 108.934 61.4827 108.934C64.7398 108.934 67.3807 111.598 67.3807 114.882Z" fill="white"/>
</mask>
<g mask="url(#mask2_8_39970)">
<path d="M61.4827 107.613C57.5007 107.613 54.2734 110.868 54.2734 114.882C54.2734 118.896 57.5007 122.151 61.4827 122.151C65.4638 122.151 68.6927 118.896 68.6927 114.882C68.6927 110.868 65.4638 107.613 61.4827 107.613ZM67.3807 114.882C67.3807 118.166 64.7398 120.829 61.4827 120.829C58.2257 120.829 55.5842 118.166 55.5842 114.882C55.5842 111.598 58.2257 108.934 61.4827 108.934C64.7398 108.934 67.3807 111.598 67.3807 114.882Z" fill="url(#paint2_linear_8_39970)"/>
</g>
<mask id="mask3_8_39970" style="mask-type:luminance" maskUnits="userSpaceOnUse" x="56" y="109" width="11" height="12">
<path d="M61.5421 109.753C58.7341 109.753 56.457 112.05 56.457 114.882C56.457 117.714 58.7341 120.011 61.5421 120.011C64.3526 120.011 66.6307 117.714 66.6307 114.882C66.6307 112.05 64.3526 109.753 61.5421 109.753ZM65.7592 114.91C65.7592 117.259 63.869 119.165 61.538 119.165C59.207 119.165 57.3162 117.259 57.3162 114.91C57.3162 112.557 59.207 110.653 61.538 110.653C63.869 110.653 65.7592 112.557 65.7592 114.91Z" fill="white"/>
</mask>
<g mask="url(#mask3_8_39970)">
<path d="M61.5421 109.753C58.7341 109.753 56.457 112.05 56.457 114.882C56.457 117.714 58.7341 120.011 61.5421 120.011C64.3526 120.011 66.6307 117.714 66.6307 114.882C66.6307 112.05 64.3526 109.753 61.5421 109.753ZM65.7592 114.91C65.7592 117.259 63.869 119.165 61.538 119.165C59.207 119.165 57.3162 117.259 57.3162 114.91C57.3162 112.557 59.207 110.653 61.538 110.653C63.869 110.653 65.7592 112.557 65.7592 114.91Z" fill="url(#paint3_linear_8_39970)"/>
</g>
<mask id="mask4_8_39970" style="mask-type:luminance" maskUnits="userSpaceOnUse" x="48" y="98" width="27" height="10">
<path d="M74.6468 105.827C71.7674 101.601 66.9541 98.8244 61.4847 98.8244C56.0285 98.8244 51.0944 101.564 48.3438 105.803C48.2522 105.943 48.2109 106.117 48.2109 106.297C48.2109 106.805 48.6197 107.216 49.1237 107.216C49.4386 107.216 49.7145 107.056 49.8778 106.81C52.3785 103.067 56.6828 100.675 61.4986 100.675C66.3214 100.675 70.5692 103.133 73.1219 106.829C73.2891 107.071 73.5523 107.237 73.8675 107.237C74.3708 107.237 74.7796 106.825 74.7796 106.317C74.7796 106.138 74.7419 105.967 74.6468 105.827Z" fill="white"/>
</mask>
<g mask="url(#mask4_8_39970)">
<path d="M74.6468 105.827C71.7674 101.601 66.9541 98.8244 61.4847 98.8244C56.0285 98.8244 51.0944 101.564 48.3438 105.803C48.2522 105.943 48.2109 106.117 48.2109 106.297C48.2109 106.805 48.6197 107.216 49.1237 107.216C49.4386 107.216 49.7145 107.056 49.8778 106.81C52.3785 103.067 56.6828 100.675 61.4986 100.675C66.3214 100.675 70.5692 103.133 73.1219 106.829C73.2891 107.071 73.5523 107.237 73.8675 107.237C74.3708 107.237 74.7796 106.825 74.7796 106.317C74.7796 106.138 74.7419 105.967 74.6468 105.827Z" fill="url(#paint4_linear_8_39970)"/>
</g>
<mask id="mask5_8_39970" style="mask-type:luminance" maskUnits="userSpaceOnUse" x="49" y="121" width="25" height="9">
<path d="M73.4535 122.671C70.8358 126.517 66.4579 129.041 61.4842 129.041C56.5215 129.041 52.0343 126.549 49.5333 122.695C49.4495 122.567 49.4121 122.41 49.4121 122.245C49.4121 121.783 49.7851 121.408 50.2424 121.408C50.5294 121.408 50.7796 121.556 50.9281 121.778C53.2026 125.183 57.1171 127.357 61.4969 127.357C65.8823 127.357 69.7458 125.122 72.0673 121.762C72.2189 121.542 72.4583 121.39 72.7447 121.39C73.2026 121.39 73.5746 121.765 73.5746 122.226C73.5746 122.391 73.5401 122.544 73.4535 122.671Z" fill="white"/>
</mask>
<g mask="url(#mask5_8_39970)">
<path d="M73.4535 122.671C70.8358 126.517 66.4579 129.041 61.4842 129.041C56.5215 129.041 52.0343 126.549 49.5333 122.695C49.4495 122.567 49.4121 122.41 49.4121 122.245C49.4121 121.783 49.7851 121.408 50.2424 121.408C50.5294 121.408 50.7796 121.556 50.9281 121.778C53.2026 125.183 57.1171 127.357 61.4969 127.357C65.8823 127.357 69.7458 125.122 72.0673 121.762C72.2189 121.542 72.4583 121.39 72.7447 121.39C73.2026 121.39 73.5746 121.765 73.5746 122.226C73.5746 122.391 73.5401 122.544 73.4535 122.671Z" fill="url(#paint5_linear_8_39970)"/>
</g>
<path d="M61.4813 106.619C62.0503 106.619 62.6031 106.689 63.1419 106.788C63.4831 106.851 63.6449 106.739 63.7131 106.524L63.904 105.806C63.9801 105.571 63.8453 105.241 63.4914 105.174C62.8409 105.052 62.1727 104.969 61.4851 104.969C60.7979 104.969 60.1294 105.052 59.4779 105.174C59.1243 105.241 58.9895 105.571 59.0653 105.806L59.2559 106.524C59.3254 106.739 59.4865 106.851 59.8277 106.788C60.3666 106.689 60.9194 106.619 61.4877 106.619H61.4813Z" fill="#393536"/>
<path d="M54.3643 110.766C54.6485 110.269 54.9853 109.822 55.3398 109.401C55.5644 109.133 55.5498 108.936 55.3995 108.769L54.8762 108.244C54.7125 108.06 54.3637 108.013 54.128 108.289C53.6977 108.795 53.2924 109.338 52.9486 109.937C52.6048 110.537 52.3416 111.163 52.1218 111.792C52.0025 112.135 52.2179 112.417 52.4576 112.467L53.1712 112.662C53.3888 112.709 53.5661 112.624 53.6828 112.293C53.8673 111.774 54.0833 111.256 54.3675 110.76L54.3643 110.766Z" fill="#393536"/>
<path d="M54.3674 119.054C54.0832 118.557 53.8673 118.039 53.6827 117.518C53.566 117.189 53.3887 117.104 53.1711 117.151L52.4575 117.345C52.2178 117.396 52.0018 117.678 52.1223 118.021C52.3418 118.65 52.6047 119.275 52.9485 119.875C53.2923 120.476 53.6969 121.018 54.1279 121.524C54.3636 121.799 54.7131 121.753 54.8761 121.569L55.3994 121.043C55.5497 120.876 55.5643 120.677 55.3397 120.411C54.9852 119.99 54.6484 119.543 54.3642 119.047L54.3674 119.054Z" fill="#393536"/>
<path d="M61.4871 123.193C60.9195 123.193 60.366 123.123 59.8272 123.024C59.4853 122.961 59.3242 123.073 59.2554 123.289L59.0654 124.007C58.9896 124.244 59.1232 124.57 59.4777 124.639C60.1288 124.76 60.7974 124.844 61.4846 124.844C62.1715 124.844 62.8398 124.76 63.4915 124.639C63.8442 124.57 63.9796 124.242 63.9028 124.007L63.7125 123.289C63.6444 123.073 63.4826 122.961 63.1414 123.024C62.6025 123.123 62.0491 123.193 61.4808 123.193H61.4871Z" fill="#393536"/>
<path d="M68.6053 119.047C68.3211 119.543 67.9849 119.99 67.6301 120.412C67.4049 120.679 67.4201 120.876 67.5708 121.043L68.0931 121.569C68.257 121.753 68.6065 121.801 68.8415 121.523C69.2713 121.017 69.6782 120.476 70.022 119.876C70.3651 119.275 70.6283 118.65 70.8484 118.021C70.967 117.678 70.7517 117.395 70.5126 117.345L69.799 117.151C69.5808 117.103 69.4035 117.189 69.2868 117.518C69.1022 118.039 68.8859 118.557 68.6021 119.054L68.6053 119.047Z" fill="#393536"/>
<path d="M68.6019 110.76C68.8857 111.256 69.102 111.775 69.2866 112.293C69.4033 112.626 69.5806 112.709 69.7988 112.662L70.5124 112.467C70.7515 112.417 70.9674 112.136 70.8469 111.792C70.6275 111.163 70.3649 110.537 70.0217 109.937C69.6779 109.338 69.2723 108.796 68.8413 108.289C68.6063 108.013 68.2556 108.059 68.0929 108.244L67.5705 108.77C67.4199 108.936 67.4053 109.135 67.6298 109.401C67.9847 109.822 68.3209 110.269 68.605 110.766L68.6019 110.76Z" fill="#393536"/>
<path d="M212.29 114.908C212.29 124.466 204.603 132.217 195.122 132.217C185.64 132.217 177.953 124.466 177.953 114.908C177.953 105.346 185.64 97.5974 195.122 97.5974C204.603 97.5974 212.29 105.346 212.29 114.908Z" fill="#393536"/>
<mask id="mask6_8_39970" style="mask-type:luminance" maskUnits="userSpaceOnUse" x="184" y="104" width="22" height="22">
<path d="M205.865 114.908C205.865 120.89 201.054 125.739 195.121 125.739C189.187 125.739 184.377 120.89 184.377 114.908C184.377 108.924 189.187 104.075 195.121 104.075C201.054 104.075 205.865 108.924 205.865 114.908Z" fill="white"/>
</mask>
<g mask="url(#mask6_8_39970)">
<path d="M205.865 114.908C205.865 120.89 201.054 125.739 195.121 125.739C189.187 125.739 184.377 120.89 184.377 114.908C184.377 108.924 189.187 104.075 195.121 104.075C201.054 104.075 205.865 108.924 205.865 114.908Z" fill="url(#paint6_linear_8_39970)"/>
</g>
<mask id="mask7_8_39970" style="mask-type:luminance" maskUnits="userSpaceOnUse" x="187" y="107" width="16" height="16">
<path d="M195.119 107.613C191.138 107.613 187.91 110.868 187.91 114.882C187.91 118.896 191.138 122.151 195.119 122.151C199.101 122.151 202.33 118.896 202.33 114.882C202.33 110.868 199.101 107.613 195.119 107.613ZM201.018 114.882C201.018 118.166 198.377 120.829 195.119 120.829C191.862 120.829 189.222 118.166 189.222 114.882C189.222 111.598 191.862 108.934 195.119 108.934C198.377 108.934 201.018 111.598 201.018 114.882Z" fill="white"/>
</mask>
<g mask="url(#mask7_8_39970)">
<path d="M195.119 107.613C191.138 107.613 187.91 110.868 187.91 114.882C187.91 118.896 191.138 122.151 195.119 122.151C199.101 122.151 202.33 118.896 202.33 114.882C202.33 110.868 199.101 107.613 195.119 107.613ZM201.018 114.882C201.018 118.166 198.377 120.829 195.119 120.829C191.862 120.829 189.222 118.166 189.222 114.882C189.222 111.598 191.862 108.934 195.119 108.934C198.377 108.934 201.018 111.598 201.018 114.882Z" fill="url(#paint7_linear_8_39970)"/>
</g>
<mask id="mask8_8_39970" style="mask-type:luminance" maskUnits="userSpaceOnUse" x="190" y="109" width="11" height="12">
<path d="M195.179 109.753C192.371 109.753 190.094 112.05 190.094 114.882C190.094 117.714 192.371 120.011 195.179 120.011C197.989 120.011 200.267 117.714 200.267 114.882C200.267 112.05 197.989 109.753 195.179 109.753ZM199.396 114.91C199.396 117.259 197.506 119.165 195.175 119.165C192.843 119.165 190.953 117.259 190.953 114.91C190.953 112.557 192.843 110.653 195.175 110.653C197.506 110.653 199.396 112.557 199.396 114.91Z" fill="white"/>
</mask>
<g mask="url(#mask8_8_39970)">
<path d="M195.179 109.753C192.371 109.753 190.094 112.05 190.094 114.882C190.094 117.714 192.371 120.011 195.179 120.011C197.989 120.011 200.267 117.714 200.267 114.882C200.267 112.05 197.989 109.753 195.179 109.753ZM199.396 114.91C199.396 117.259 197.506 119.165 195.175 119.165C192.843 119.165 190.953 117.259 190.953 114.91C190.953 112.557 192.843 110.653 195.175 110.653C197.506 110.653 199.396 112.557 199.396 114.91Z" fill="url(#paint8_linear_8_39970)"/>
</g>
<mask id="mask9_8_39970" style="mask-type:luminance" maskUnits="userSpaceOnUse" x="181" y="98" width="28" height="10">
<path d="M208.284 105.827C205.405 101.601 200.591 98.8244 195.122 98.8244C189.665 98.8244 184.731 101.564 181.981 105.803C181.89 105.943 181.848 106.117 181.848 106.297C181.848 106.805 182.257 107.216 182.761 107.216C183.075 107.216 183.352 107.056 183.514 106.81C186.015 103.067 190.32 100.675 195.136 100.675C199.958 100.675 204.206 103.133 206.759 106.829C206.926 107.071 207.189 107.237 207.504 107.237C208.008 107.237 208.417 106.825 208.417 106.317C208.417 106.138 208.379 105.967 208.284 105.827Z" fill="white"/>
</mask>
<g mask="url(#mask9_8_39970)">
<path d="M208.284 105.827C205.405 101.601 200.591 98.8244 195.122 98.8244C189.665 98.8244 184.731 101.564 181.981 105.803C181.89 105.943 181.848 106.117 181.848 106.297C181.848 106.805 182.257 107.216 182.761 107.216C183.075 107.216 183.352 107.056 183.514 106.81C186.015 103.067 190.32 100.675 195.136 100.675C199.958 100.675 204.206 103.133 206.759 106.829C206.926 107.071 207.189 107.237 207.504 107.237C208.008 107.237 208.417 106.825 208.417 106.317C208.417 106.138 208.379 105.967 208.284 105.827Z" fill="url(#paint9_linear_8_39970)"/>
</g>
<mask id="mask10_8_39970" style="mask-type:luminance" maskUnits="userSpaceOnUse" x="183" y="121" width="25" height="9">
<path d="M207.091 122.671C204.473 126.517 200.095 129.041 195.121 129.041C190.159 129.041 185.671 126.549 183.17 122.695C183.087 122.567 183.049 122.41 183.049 122.245C183.049 121.783 183.421 121.408 183.88 121.408C184.166 121.408 184.416 121.556 184.565 121.778C186.84 125.183 190.754 127.357 195.134 127.357C199.52 127.357 203.382 125.122 205.704 121.762C205.856 121.542 206.096 121.39 206.382 121.39C206.84 121.39 207.212 121.765 207.212 122.226C207.212 122.391 207.177 122.544 207.091 122.671Z" fill="white"/>
</mask>
<g mask="url(#mask10_8_39970)">
<path d="M207.091 122.671C204.473 126.517 200.095 129.041 195.121 129.041C190.159 129.041 185.671 126.549 183.17 122.695C183.087 122.567 183.049 122.41 183.049 122.245C183.049 121.783 183.421 121.408 183.88 121.408C184.166 121.408 184.416 121.556 184.565 121.778C186.84 125.183 190.754 127.357 195.134 127.357C199.52 127.357 203.382 125.122 205.704 121.762C205.856 121.542 206.096 121.39 206.382 121.39C206.84 121.39 207.212 121.765 207.212 122.226C207.212 122.391 207.177 122.544 207.091 122.671Z" fill="url(#paint10_linear_8_39970)"/>
</g>
<path d="M195.118 106.619C195.687 106.619 196.239 106.689 196.778 106.788C197.12 106.851 197.281 106.739 197.35 106.524L197.54 105.806C197.616 105.571 197.482 105.241 197.128 105.174C196.477 105.052 195.808 104.969 195.121 104.969C194.434 104.969 193.766 105.052 193.115 105.174C192.76 105.241 192.627 105.571 192.702 105.806L192.893 106.524C192.962 106.739 193.123 106.851 193.464 106.788C194.003 106.689 194.557 106.619 195.125 106.619H195.118Z" fill="#393536"/>
<path d="M188.001 110.766C188.285 110.269 188.622 109.822 188.977 109.401C189.201 109.133 189.186 108.936 189.036 108.769L188.513 108.244C188.35 108.06 188 108.013 187.764 108.289C187.334 108.795 186.929 109.338 186.585 109.937C186.242 110.537 185.978 111.163 185.758 111.792C185.64 112.135 185.854 112.417 186.094 112.467L186.807 112.662C187.025 112.709 187.203 112.624 187.32 112.293C187.504 111.774 187.72 111.256 188.005 110.76L188.001 110.766Z" fill="#393536"/>
<path d="M188.005 119.054C187.72 118.557 187.505 118.039 187.32 117.518C187.203 117.189 187.026 117.104 186.807 117.151L186.094 117.345C185.854 117.396 185.639 117.678 185.759 118.021C185.979 118.65 186.242 119.275 186.585 119.875C186.929 120.476 187.334 121.018 187.765 121.524C188.001 121.799 188.35 121.753 188.513 121.569L189.036 121.043C189.186 120.876 189.201 120.677 188.977 120.411C188.622 119.99 188.285 119.543 188.001 119.047L188.005 119.054Z" fill="#393536"/>
<path d="M195.124 123.193C194.557 123.193 194.003 123.123 193.464 123.024C193.122 122.961 192.961 123.073 192.893 123.289L192.702 124.007C192.626 124.244 192.76 124.57 193.115 124.639C193.765 124.76 194.434 124.844 195.121 124.844C195.808 124.844 196.477 124.76 197.128 124.639C197.481 124.57 197.617 124.242 197.539 124.007L197.35 123.289C197.281 123.073 197.119 122.961 196.778 123.024C196.239 123.123 195.685 123.193 195.117 123.193H195.124Z" fill="#393536"/>
<path d="M202.241 119.047C201.957 119.543 201.62 119.99 201.265 120.412C201.039 120.679 201.055 120.876 201.206 121.043L201.728 121.569C201.893 121.753 202.242 121.801 202.477 121.523C202.907 121.017 203.313 120.476 203.657 119.876C204 119.275 204.263 118.65 204.484 118.021C204.603 117.678 204.388 117.395 204.148 117.345L203.434 117.151C203.216 117.103 203.038 117.189 202.922 117.518C202.737 118.039 202.521 118.557 202.238 119.054L202.241 119.047Z" fill="#393536"/>
<path d="M202.237 110.76C202.521 111.256 202.737 111.775 202.922 112.293C203.038 112.626 203.216 112.709 203.434 112.662L204.148 112.467C204.387 112.417 204.602 112.136 204.483 111.792C204.262 111.163 203.999 110.537 203.656 109.937C203.313 109.338 202.908 108.796 202.477 108.289C202.242 108.013 201.892 108.059 201.728 108.244L201.205 108.77C201.055 108.936 201.04 109.135 201.265 109.401C201.62 109.822 201.957 110.269 202.241 110.766L202.237 110.76Z" fill="#393536"/>
<path d="M242.546 115.822C242.546 117.177 241.456 118.276 240.113 118.276H224.181C222.837 118.276 221.748 117.177 221.748 115.822V99.6827C221.748 98.3279 222.837 97.2297 224.181 97.2297H240.113C241.456 97.2297 242.546 98.3279 242.546 99.6827V115.822Z" fill="#4F4C4C"/>
<path d="M239.684 115.549H224.495C223.371 115.549 222.461 114.631 222.461 113.497V115.426C222.461 116.559 223.371 117.479 224.495 117.479H239.684C240.808 117.479 241.72 116.559 241.72 115.426V113.497C241.72 114.631 240.808 115.549 239.684 115.549Z" fill="#393536"/>
<path d="M239.684 100.132H224.495C223.371 100.132 222.461 101.051 222.461 102.184V100.254C222.461 99.1204 223.371 98.2025 224.495 98.2025H239.684C240.808 98.2025 241.72 99.1204 241.72 100.254V102.184C241.72 101.051 240.808 100.132 239.684 100.132Z" fill="#7B7979"/>
<mask id="mask11_8_39970" style="mask-type:luminance" maskUnits="userSpaceOnUse" x="16" y="115" width="26" height="6">
<path d="M18.7923 120.073C17.6363 120.073 16.6973 119.125 16.6973 117.956V115.97C16.6973 117.136 17.6363 118.084 18.7923 118.084H40.1082C41.1344 118.084 41.5071 117.712 41.6324 116.487V119.031C41.4985 119.73 40.9965 120.065 40.0197 120.065L18.7923 120.073Z" fill="white"/>
</mask>
<g mask="url(#mask11_8_39970)">
<path d="M18.7923 120.073C17.6363 120.073 16.6973 119.125 16.6973 117.956V115.97C16.6973 117.136 17.6363 118.084 18.7923 118.084H40.1082C41.1344 118.084 41.5071 117.712 41.6324 116.487V119.031C41.4985 119.73 40.9965 120.065 40.0197 120.065L18.7923 120.073Z" fill="url(#paint11_linear_8_39970)"/>
</g>
<path d="M41.6328 119.031V116.488C41.649 116.33 41.661 116.158 41.6699 115.97V118.602C41.6699 118.758 41.6579 118.901 41.6328 119.031Z" fill="#8C8A8B"/>
<path d="M16.5391 95.3787C16.5391 93.54 17.0757 92.5758 18.1486 92.5758C20.0091 92.5758 52.5916 92.5758 54.2376 92.5758C55.203 92.5758 55.203 93.9734 54.2376 93.9734C52.6649 93.9734 20.5443 93.9734 19.3289 93.9734C18.1136 93.9734 17.0489 93.9461 16.5391 95.3787Z" fill="white"/>
<path d="M24.7832 40.6467C26.0212 38.3398 28.4623 36.9568 31.3224 36.5558C40.1466 35.3198 58.8568 34.0971 65.5701 34.0971C72.2827 34.0971 69.6828 34.0971 73.6684 34.0971C76.1237 34.0983 78.4163 35.3236 79.095 37.6178C79.095 34.358 76.9689 31.7174 73.7365 31.7174C71.5974 31.7174 70.3257 31.7174 65.3779 31.7174C58.7819 31.7174 40.2455 33.2541 31.5764 34.6279C28.2009 35.1616 25.7821 37.3692 24.7832 40.6467Z" fill="white"/>
<path d="M162.956 120.283C162.956 121.638 161.866 122.737 160.523 122.737H96.5757C95.232 122.737 94.1426 121.638 94.1426 120.283V100.523C94.1426 99.1691 95.232 98.0696 96.5757 98.0696H160.523C161.866 98.0696 162.956 99.1691 162.956 100.523V120.283Z" fill="#4F4C4C"/>
<path d="M160.095 120.009H96.8899C95.7663 120.009 94.8555 119.091 94.8555 117.959V119.888C94.8555 121.02 95.7663 121.939 96.8899 121.939H160.095C161.218 121.939 162.13 121.02 162.13 119.888V117.959C162.13 119.091 161.218 120.009 160.095 120.009Z" fill="#393536"/>
<path d="M160.095 100.972H96.8899C95.7663 100.972 94.8555 101.891 94.8555 103.024V101.095C94.8555 99.961 95.7663 99.0441 96.8899 99.0441H160.095C161.218 99.0441 162.13 99.961 162.13 101.095V103.024C162.13 101.891 161.218 100.972 160.095 100.972Z" fill="#7B7979"/>
<path d="M114.549 94.5679V119.453C114.549 120.02 114.093 120.482 113.53 120.482H110.439C109.875 120.482 109.418 120.02 109.418 119.453V94.5679H114.549Z" fill="#393536"/>
<path d="M146.178 94.5679V119.453C146.178 120.02 145.721 120.482 145.158 120.482H142.066C141.504 120.482 141.047 120.02 141.047 119.453V94.5679H146.178Z" fill="#393536"/>
<path d="M164.706 106.904C164.706 107.472 164.25 107.933 163.686 107.933H93.3578C92.7943 107.933 92.3379 107.472 92.3379 106.904V103.787C92.3379 103.219 92.7943 102.759 93.3578 102.759H163.686C164.25 102.759 164.706 103.219 164.706 103.787V106.904Z" fill="#393536"/>
<path d="M164.706 115.703C164.706 116.271 164.25 116.732 163.686 116.732H93.3578C92.7943 116.732 92.3379 116.271 92.3379 115.703V112.587C92.3379 112.019 92.7943 111.557 93.3578 111.557H163.686C164.25 111.557 164.706 112.019 164.706 112.587V115.703Z" fill="#393536"/>
<path d="M163.566 111.787H93.4771C92.9776 111.787 92.5723 112.196 92.5723 112.7V112.955C92.5723 112.452 92.9776 112.045 93.4771 112.045H163.566C164.066 112.045 164.471 112.452 164.471 112.955V112.7C164.471 112.196 164.066 111.787 163.566 111.787Z" fill="#7B7979"/>
<path d="M163.566 116.228H93.4771C92.9776 116.228 92.5723 115.819 92.5723 115.315V115.57C92.5723 116.075 92.9776 116.483 93.4771 116.483H163.566C164.066 116.483 164.471 116.075 164.471 115.57V115.315C164.471 115.819 164.066 116.228 163.566 116.228Z" fill="#231F20"/>
<path d="M163.566 103.057H93.4771C92.9776 103.057 92.5723 103.466 92.5723 103.969V104.224C92.5723 103.721 92.9776 103.314 93.4771 103.314H163.566C164.066 103.314 164.471 103.721 164.471 104.224V103.969C164.471 103.466 164.066 103.057 163.566 103.057Z" fill="#7B7979"/>
<path d="M163.566 107.497H93.4771C92.9776 107.497 92.5723 107.088 92.5723 106.585V106.84C92.5723 107.344 92.9776 107.752 93.4771 107.752H163.566C164.066 107.752 164.471 107.344 164.471 106.84V106.585C164.471 107.088 164.066 107.497 163.566 107.497Z" fill="#231F20"/>
<path d="M114.549 97.814H109.418V94.5682H114.549V97.814Z" fill="#231F20"/>
<path d="M114.549 108.96H109.418V107.933H114.549V108.96Z" fill="#231F20"/>
<path d="M114.549 117.758H109.418V116.732H114.549V117.758Z" fill="#231F20"/>
<path d="M146.178 97.814H141.047V94.5682H146.178V97.814Z" fill="#231F20"/>
<path d="M146.178 108.96H141.047V107.933H146.178V108.96Z" fill="#231F20"/>
<path d="M146.178 117.758H141.047V116.732H146.178V117.758Z" fill="#231F20"/>
<mask id="mask12_8_39970" style="mask-type:luminance" maskUnits="userSpaceOnUse" x="86" y="6" width="164" height="89">
<path d="M249.192 89.6612C249.192 92.371 247.013 94.5681 244.325 94.5681H91.0479C88.3604 94.5681 86.1816 92.371 86.1816 89.6612V11.8244C86.1816 9.11522 88.3604 6.91814 91.0479 6.91814H244.325C247.013 6.91814 249.192 9.11522 249.192 11.8244V89.6612Z" fill="white"/>
</mask>
<path d="M249.193 89.6612H248.762C248.762 90.8994 248.266 92.0161 247.462 92.827C246.658 93.6375 245.552 94.1366 244.327 94.1369H91.0492C89.8241 94.1366 88.7182 93.6375 87.9139 92.827C87.1103 92.0161 86.6136 90.8994 86.6136 89.6612V11.8244C86.6136 10.5868 87.1103 9.47018 87.9139 8.65929C88.7182 7.84903 89.8241 7.3496 91.0492 7.34928H244.327C245.552 7.3496 246.658 7.84903 247.462 8.65929C248.266 9.47018 248.762 10.5868 248.762 11.8244V89.6612H249.193H249.624V11.8244C249.624 10.3531 249.031 9.01646 248.073 8.05159C247.116 7.08608 245.789 6.48665 244.327 6.48697H91.0492C89.5868 6.48665 88.2593 7.08608 87.3025 8.05159C86.345 9.01646 85.752 10.3531 85.752 11.8244V89.6612C85.752 91.1328 86.345 92.4698 87.3025 93.4346C88.2593 94.4001 89.5868 94.9996 91.0492 94.9993H244.327C245.789 94.9996 247.116 94.4001 248.073 93.4346C249.031 92.4698 249.624 91.1331 249.624 89.6612H249.193Z" fill="#D3D2D2"/>
<path d="M243.55 8.47074H91.7616C89.5603 8.47074 87.7754 10.2703 87.7754 12.4896V14.9775C87.7754 12.7576 89.5603 10.9587 91.7616 10.9587H243.55C245.751 10.9587 247.536 12.7576 247.536 14.9775V12.4896C247.536 10.2703 245.751 8.47074 243.55 8.47074Z" fill="white"/>
<path d="M243.55 90.1323H91.7616C89.5603 90.1323 87.7754 88.3321 87.7754 86.1128V88.602C87.7754 90.8213 89.5603 92.6196 91.7616 92.6196H243.55C245.751 92.6196 247.536 90.8213 247.536 88.602V86.1128C247.536 88.3321 245.751 90.1323 243.55 90.1323Z" fill="#BDBCBC"/>
<mask id="mask13_8_39970" style="mask-type:luminance" maskUnits="userSpaceOnUse" x="54" y="62" width="1" height="30">
<path d="M54.4025 91.3699C54.2826 91.3699 54.1855 91.2727 54.1855 91.1527V62.9624H54.6165V91.1527C54.6165 91.2727 54.5195 91.3699 54.4025 91.3699Z" fill="white"/>
</mask>
<g mask="url(#mask13_8_39970)">
<path d="M54.4025 91.3699C54.2826 91.3699 54.1855 91.2727 54.1855 91.1527V62.9624H54.6165V91.1527C54.6165 91.2727 54.5195 91.3699 54.4025 91.3699Z" fill="url(#paint13_linear_8_39970)"/>
</g>
<path d="M38.1891 111.676C38.1891 112.488 37.5351 113.147 36.7296 113.147H23.4535C22.6474 113.147 21.9941 112.488 21.9941 111.676V102.546C21.9941 101.733 22.6474 101.074 23.4535 101.074H36.7296C37.5351 101.074 38.1891 101.733 38.1891 102.546V111.676Z" fill="#4F4C4C"/>
<path d="M36.7296 101.074H23.4535C22.6474 101.074 21.9941 101.733 21.9941 102.547V104.637C21.9941 103.824 22.6474 103.167 23.4535 103.167H36.7296C37.5351 103.167 38.1891 103.824 38.1891 104.637V102.547C38.1891 101.733 37.5351 101.074 36.7296 101.074Z" fill="#393536"/>
<path d="M36.7296 112.21H23.4535C22.6474 112.21 21.9941 111.55 21.9941 110.738V111.676C21.9941 112.488 22.6474 113.147 23.4535 113.147H36.7296C37.5351 113.147 38.1891 112.488 38.1891 111.676V110.738C38.1891 111.55 37.5351 112.21 36.7296 112.21Z" fill="#656263"/>
<mask id="mask14_8_39970" style="mask-type:luminance" maskUnits="userSpaceOnUse" x="21" y="42" width="48" height="37">
<path d="M33.8097 78.5969C32.6683 78.5969 29.7657 78.5969 27.4845 78.5969V75.7452L33.0647 67.6299L32.5963 66.6206L35.3396 63.698L38.6306 66.8384C38.7942 66.994 39.0029 67.0711 39.2109 67.0711C39.4348 67.0711 39.6581 66.9819 39.8237 66.8041C40.1462 66.4641 40.1319 65.924 39.7923 65.6011L31.1266 57.3287C30.9627 57.1728 30.7527 57.0957 30.5436 57.0957C30.3194 57.0957 30.096 57.1842 29.9306 57.3601C29.611 57.7002 29.6252 58.2402 29.9649 58.566L33.0333 61.4949L31.1483 63.5015L28.6291 58.0745L22.6416 59.2575C23.7192 54.3547 25.4785 47.118 26.3656 44.2443C26.7396 43.0327 27.9384 42.2069 29.2713 42.2069H65.3268C67.0365 42.2069 68.4237 43.6042 68.4237 45.3302V46.2445H67.693C67.2163 46.2445 66.4999 46.8446 66.3714 47.2532L63.5143 57.1344H56.0988L54.9571 50.1936C54.8658 49.6335 54.2806 49.2935 53.9809 49.2935H50.376C49.2657 49.2935 47.6301 54.2969 48.3723 55.4771C47.2648 56.2 46.8709 56.7915 46.1545 58.7574L44.439 62.9551L65.3268 62.9694L54.6175 62.9624H54.1865L42.9234 62.9551C41.8902 62.9551 40.9511 63.6809 40.6828 64.7639L37.3033 76.5024C36.8466 77.934 35.1283 78.5969 33.8097 78.5969ZM21.7834 63.5361C21.784 63.532 21.7846 63.5282 21.7852 63.524C21.7846 63.5282 21.784 63.5323 21.7834 63.5361Z" fill="white"/>
</mask>
<g mask="url(#mask14_8_39970)">
<path d="M33.8097 78.5969C32.6683 78.5969 29.7657 78.5969 27.4845 78.5969V75.7452L33.0647 67.6299L32.5963 66.6206L35.3396 63.698L38.6306 66.8384C38.7942 66.994 39.0029 67.0711 39.2109 67.0711C39.4348 67.0711 39.6581 66.9819 39.8237 66.8041C40.1462 66.4641 40.1319 65.924 39.7923 65.6011L31.1266 57.3287C30.9627 57.1728 30.7527 57.0957 30.5436 57.0957C30.3194 57.0957 30.096 57.1842 29.9306 57.3601C29.611 57.7002 29.6252 58.2402 29.9649 58.566L33.0333 61.4949L31.1483 63.5015L28.6291 58.0745L22.6416 59.2575C23.7192 54.3547 25.4785 47.118 26.3656 44.2443C26.7396 43.0327 27.9384 42.2069 29.2713 42.2069H65.3268C67.0365 42.2069 68.4237 43.6042 68.4237 45.3302V46.2445H67.693C67.2163 46.2445 66.4999 46.8446 66.3714 47.2532L63.5143 57.1344H56.0988L54.9571 50.1936C54.8658 49.6335 54.2806 49.2935 53.9809 49.2935H50.376C49.2657 49.2935 47.6301 54.2969 48.3723 55.4771C47.2648 56.2 46.8709 56.7915 46.1545 58.7574L44.439 62.9551L65.3268 62.9694L54.6175 62.9624H54.1865L42.9234 62.9551C41.8902 62.9551 40.9511 63.6809 40.6828 64.7639L37.3033 76.5024C36.8466 77.934 35.1283 78.5969 33.8097 78.5969ZM21.7834 63.5361C21.784 63.532 21.7846 63.5282 21.7852 63.524C21.7846 63.5282 21.784 63.5323 21.7834 63.5361Z" fill="url(#paint14_linear_8_39970)"/>
</g>
<path d="M23.2273 105.773C22.8546 105.773 22.5527 105.47 22.5527 105.094C22.5527 104.716 22.8546 104.412 23.2273 104.412H36.8934C37.2666 104.412 37.5692 104.716 37.5692 105.094C37.5692 105.47 37.2666 105.773 36.8934 105.773H23.2273Z" fill="#393536"/>
<path d="M23.2273 108.509C22.8546 108.509 22.5527 108.204 22.5527 107.828C22.5527 107.452 22.8546 107.148 23.2273 107.148H36.8934C37.2666 107.148 37.5692 107.452 37.5692 107.828C37.5692 108.204 37.2666 108.509 36.8934 108.509H23.2273Z" fill="#393536"/>
<path d="M23.2273 111.244C22.8546 111.244 22.5527 110.939 22.5527 110.565C22.5527 110.187 22.8546 109.882 23.2273 109.882H36.8934C37.2666 109.882 37.5692 110.187 37.5692 110.565C37.5692 110.939 37.2666 111.244 36.8934 111.244H23.2273Z" fill="#393536"/>
<mask id="mask15_8_39970" style="mask-type:luminance" maskUnits="userSpaceOnUse" x="21" y="59" width="2" height="5">
<path d="M21.795 63.4553C21.9234 62.6313 22.2335 61.1093 22.6401 59.2576H22.6409C22.2335 61.1109 21.9236 62.6304 21.795 63.4553Z" fill="white"/>
</mask>
<g mask="url(#mask15_8_39970)">
<path d="M21.795 63.4553C21.9234 62.6313 22.2335 61.1093 22.6401 59.2576H22.6409C22.2335 61.1109 21.9236 62.6304 21.795 63.4553Z" fill="url(#paint15_linear_8_39970)"/>
</g>
<mask id="mask16_8_39970" style="mask-type:luminance" maskUnits="userSpaceOnUse" x="21" y="58" width="13" height="21">
<path d="M27.4836 78.5969C26.3475 78.5969 25.3653 78.5969 24.832 78.5969C23.228 78.5969 21.6895 76.9824 21.6895 75.3651V65.0325C21.6895 64.8467 21.7151 64.0095 21.7694 63.6266C21.7722 63.6063 21.7752 63.5853 21.7784 63.564C21.7785 63.5631 21.7787 63.5621 21.7788 63.5612C21.78 63.5529 21.7813 63.5447 21.7825 63.5361C21.7831 63.5323 21.7837 63.5282 21.7843 63.524C21.7857 63.5145 21.7872 63.505 21.7887 63.4951C21.7889 63.4942 21.7891 63.4929 21.7892 63.4917C21.7908 63.4815 21.7924 63.4713 21.794 63.4609C21.7943 63.4589 21.7947 63.457 21.7949 63.4551C21.9235 62.6303 22.2333 61.1107 22.6408 59.2575L28.6282 58.0745L31.1474 63.5015L28.7538 66.0497L31.0629 68.2528L32.5954 66.6206L33.0638 67.6299L27.4836 75.7452V78.5969Z" fill="white"/>
</mask>
<g mask="url(#mask16_8_39970)">
<path d="M27.4836 78.5969C26.3475 78.5969 25.3653 78.5969 24.832 78.5969C23.228 78.5969 21.6895 76.9824 21.6895 75.3651V65.0325C21.6895 64.8467 21.7151 64.0095 21.7694 63.6266C21.7722 63.6063 21.7752 63.5853 21.7784 63.564C21.7785 63.5631 21.7787 63.5621 21.7788 63.5612C21.78 63.5529 21.7813 63.5447 21.7825 63.5361C21.7831 63.5323 21.7837 63.5282 21.7843 63.524C21.7857 63.5145 21.7872 63.505 21.7887 63.4951C21.7889 63.4942 21.7891 63.4929 21.7892 63.4917C21.7908 63.4815 21.7924 63.4713 21.794 63.4609C21.7943 63.4589 21.7947 63.457 21.7949 63.4551C21.9235 62.6303 22.2333 61.1107 22.6408 59.2575L28.6282 58.0745L31.1474 63.5015L28.7538 66.0497L31.0629 68.2528L32.5954 66.6206L33.0638 67.6299L27.4836 75.7452V78.5969Z" fill="url(#paint16_linear_8_39970)"/>
</g>
<mask id="mask17_8_39970" style="mask-type:luminance" maskUnits="userSpaceOnUse" x="44" y="46" width="25" height="17">
<path d="M65.3252 62.9695L44.4375 62.9552L46.1529 58.7576C46.8694 56.7916 47.2632 56.2001 48.3707 55.4772C47.6286 54.297 49.2641 49.2936 50.3744 49.2936H53.9794C54.2791 49.2936 54.8642 49.6336 54.9556 50.1937L56.0973 57.1345H63.5127L66.3699 47.2534C66.4983 46.8447 67.2147 46.2447 67.6914 46.2447H68.4221V59.8434C68.4221 61.5693 67.0349 62.9695 65.3252 62.9695Z" fill="white"/>
</mask>
<g mask="url(#mask17_8_39970)">
<path d="M65.3252 62.9695L44.4375 62.9552L46.1529 58.7576C46.8694 56.7916 47.2632 56.2001 48.3707 55.4772C47.6286 54.297 49.2641 49.2936 50.3744 49.2936H53.9794C54.2791 49.2936 54.8642 49.6336 54.9556 50.1937L56.0973 57.1345H63.5127L66.3699 47.2534C66.4983 46.8447 67.2147 46.2447 67.6914 46.2447H68.4221V59.8434C68.4221 61.5693 67.0349 62.9695 65.3252 62.9695Z" fill="url(#paint17_linear_8_39970)"/>
</g>
<mask id="mask18_8_39970" style="mask-type:luminance" maskUnits="userSpaceOnUse" x="28" y="57" width="13" height="12">
<path d="M31.063 68.2529L28.7539 66.0498L31.1475 63.5016L33.0325 61.495L29.9641 58.5661C29.6244 58.2403 29.6102 57.7003 29.9298 57.3602C30.0952 57.1843 30.3186 57.0957 30.5428 57.0957C30.7519 57.0957 30.9619 57.1729 31.1258 57.3288L39.7915 65.6012C40.1311 65.9241 40.1454 66.4641 39.8229 66.8042C39.6573 66.982 39.434 67.0712 39.2101 67.0712C39.0021 67.0712 38.7934 66.9941 38.6298 66.8385L35.3388 63.6981L32.5955 66.6207L31.063 68.2529Z" fill="white"/>
</mask>
<g mask="url(#mask18_8_39970)">
<path d="M31.063 68.2529L28.7539 66.0498L31.1475 63.5016L33.0325 61.495L29.9641 58.5661C29.6244 58.2403 29.6102 57.7003 29.9298 57.3602C30.0952 57.1843 30.3186 57.0957 30.5428 57.0957C30.7519 57.0957 30.9619 57.1729 31.1258 57.3288L39.7915 65.6012C40.1311 65.9241 40.1454 66.4641 39.8229 66.8042C39.6573 66.982 39.434 67.0712 39.2101 67.0712C39.0021 67.0712 38.7934 66.9941 38.6298 66.8385L35.3388 63.6981L32.5955 66.6207L31.063 68.2529Z" fill="url(#paint18_linear_8_39970)"/>
</g>
<path d="M56.8371 62.8696H51.1504V42.2069H56.8371V62.8696Z" fill="#393536"/>
<path d="M37.3011 76.5025L37.715 76.6218L41.0973 64.8757L41.0992 64.8681C41.3216 63.9724 42.0922 63.386 42.9219 63.3863L65.3242 63.4C66.2988 63.4003 67.1846 63.0009 67.8218 62.3579C68.4595 61.7156 68.8547 60.8244 68.8547 59.8446V45.3309C68.8547 44.3514 68.4595 43.4602 67.8218 42.8179C67.1846 42.1749 66.2988 41.7755 65.3246 41.7755H29.2715C28.5157 41.7758 27.7979 42.0095 27.2122 42.4181C26.6267 42.8264 26.1706 43.4135 25.953 44.1177C25.3223 46.1614 24.2686 50.3353 23.3209 54.3475C22.8472 56.3528 22.401 58.3152 22.0492 59.9459C21.6972 61.5788 21.4406 62.8713 21.3426 63.5676L21.3427 63.5667L21.3426 63.567C21.3116 63.7889 21.2923 64.0959 21.2782 64.3833C21.2646 64.6706 21.2579 64.9249 21.2578 65.0338C21.2578 68.6946 21.2578 73.7485 21.2578 75.3665C21.2605 76.3136 21.6991 77.2124 22.3494 77.8874C23.001 78.5595 23.8824 79.025 24.8315 79.0278C26.4348 79.0278 32.0993 79.0278 33.8094 79.0278C34.5398 79.0266 35.3561 78.8494 36.0801 78.4681C36.4413 78.277 36.7791 78.0331 37.0636 77.7283C37.3474 77.4242 37.5767 77.0574 37.7115 76.6333L37.7131 76.6276L37.715 76.6218L37.3011 76.5025L36.8907 76.3716C36.7975 76.6637 36.6411 76.9171 36.4337 77.14C36.1236 77.4737 35.6935 77.7343 35.2245 77.9071C34.756 78.0807 34.2502 78.1658 33.8094 78.1652C32.0993 78.1652 26.4348 78.1652 24.8315 78.1652C24.1774 78.1681 23.4874 77.8261 22.9684 77.2876C22.4478 76.7514 22.1166 76.0351 22.1193 75.3665C22.1193 73.7485 22.1193 68.6946 22.1193 65.0338C22.1192 64.9547 22.1256 64.6976 22.1387 64.4245C22.1514 64.1515 22.1723 63.8492 22.1955 63.6879L22.1956 63.6873C22.2854 63.0444 22.5413 61.7496 22.8912 60.1282C23.4165 57.6929 24.1557 54.505 24.8798 51.5494C25.6035 48.5954 26.3141 45.8681 26.7761 44.3727C26.9326 43.8656 27.2635 43.4338 27.7047 43.1255C28.1456 42.8179 28.6942 42.6378 29.2715 42.6382H65.3246C66.0619 42.6385 66.726 42.9379 67.2106 43.4256C67.6943 43.9139 67.993 44.5851 67.993 45.3309V59.8446C67.993 60.5907 67.6943 61.2619 67.2106 61.7499C66.726 62.2376 66.0619 62.5373 65.3246 62.5376L42.9222 62.524H42.9219C41.684 62.5246 40.5772 63.3917 40.2632 64.6601L40.6812 64.7639L40.2674 64.6446L36.8872 76.3828L37.3011 76.5025Z" fill="#393536"/>
<path d="M213.824 118.86H217.611C218.041 118.86 218.389 118.509 218.389 118.076V98.2778C218.389 96.4652 216.932 94.9961 215.135 94.9961H174.821C173.023 94.9961 171.566 96.4652 171.566 98.2778V118.076C171.566 118.509 171.915 118.86 172.344 118.86H176.133C176.562 118.86 176.911 118.509 176.911 118.076V114.904C176.911 104.841 184.999 96.6858 194.977 96.6858C204.956 96.6858 213.046 104.841 213.046 114.904V118.076C213.046 118.509 213.394 118.86 213.824 118.86Z" fill="#4F4C4C"/>
<defs>
<linearGradient id="paint0_linear_8_39970" x1="47.819" y1="120.966" x2="47.819" y2="31.8219" gradientUnits="userSpaceOnUse">
<stop stop-color="#E5E4E4"/>
<stop offset="0.010989" stop-color="#E5E4E4"/>
<stop offset="0.149272" stop-color="#E9E9E9"/>
<stop offset="0.21978" stop-color="#E9E9E9"/>
<stop offset="0.362637" stop-color="#D5D4D5"/>
<stop offset="0.538462" stop-color="#F2F2F2"/>
<stop offset="0.868132" stop-color="#FBFBFB"/>
<stop offset="1" stop-color="#E9E9E9"/>
</linearGradient>
<linearGradient id="paint1_linear_8_39970" x1="61.4838" y1="125.215" x2="61.4838" y2="103.551" gradientUnits="userSpaceOnUse">
<stop stop-color="#BDBCBC"/>
<stop offset="1" stop-color="#918F90"/>
</linearGradient>
<linearGradient id="paint2_linear_8_39970" x1="61.4831" y1="108.001" x2="61.4831" y2="121.626" gradientUnits="userSpaceOnUse">
<stop stop-color="#DEDDDE"/>
<stop offset="0.821295" stop-color="#4F4C4D"/>
<stop offset="1" stop-color="#4F4C4D"/>
</linearGradient>
<linearGradient id="paint3_linear_8_39970" x1="61.544" y1="120.068" x2="61.544" y2="109.742" gradientUnits="userSpaceOnUse">
<stop stop-color="#DEDDDE"/>
<stop offset="0.821295" stop-color="#4F4C4D"/>
<stop offset="1" stop-color="#4F4C4D"/>
</linearGradient>
<linearGradient id="paint4_linear_8_39970" x1="48.2109" y1="103.031" x2="74.7794" y2="103.031" gradientUnits="userSpaceOnUse">
<stop stop-color="#393536"/>
<stop offset="0.505495" stop-color="#918F90"/>
<stop offset="1" stop-color="#393536"/>
</linearGradient>
<linearGradient id="paint5_linear_8_39970" x1="49.4121" y1="125.215" x2="73.5745" y2="125.215" gradientUnits="userSpaceOnUse">
<stop stop-color="#393536"/>
<stop offset="0.505495" stop-color="#918F90"/>
<stop offset="1" stop-color="#393536"/>
</linearGradient>
<linearGradient id="paint6_linear_8_39970" x1="195.121" y1="125.215" x2="195.121" y2="103.551" gradientUnits="userSpaceOnUse">
<stop stop-color="#BDBCBC"/>
<stop offset="1" stop-color="#918F90"/>
</linearGradient>
<linearGradient id="paint7_linear_8_39970" x1="195.12" y1="108.001" x2="195.12" y2="121.626" gradientUnits="userSpaceOnUse">
<stop stop-color="#DEDDDE"/>
<stop offset="0.821295" stop-color="#4F4C4D"/>
<stop offset="1" stop-color="#4F4C4D"/>
</linearGradient>
<linearGradient id="paint8_linear_8_39970" x1="195.18" y1="120.068" x2="195.18" y2="109.742" gradientUnits="userSpaceOnUse">
<stop stop-color="#DEDDDE"/>
<stop offset="0.821295" stop-color="#4F4C4D"/>
<stop offset="1" stop-color="#4F4C4D"/>
</linearGradient>
<linearGradient id="paint9_linear_8_39970" x1="181.848" y1="103.031" x2="208.417" y2="103.031" gradientUnits="userSpaceOnUse">
<stop stop-color="#393536"/>
<stop offset="0.505495" stop-color="#918F90"/>
<stop offset="1" stop-color="#393536"/>
</linearGradient>
<linearGradient id="paint10_linear_8_39970" x1="183.049" y1="125.215" x2="207.212" y2="125.215" gradientUnits="userSpaceOnUse">
<stop stop-color="#393536"/>
<stop offset="0.505495" stop-color="#918F90"/>
<stop offset="1" stop-color="#393536"/>
</linearGradient>
<linearGradient id="paint11_linear_8_39970" x1="47.8186" y1="120.966" x2="47.8186" y2="31.8219" gradientUnits="userSpaceOnUse">
<stop stop-color="#979595"/>
<stop offset="0.010989" stop-color="#979595"/>
<stop offset="0.21978" stop-color="#9A9899"/>
<stop offset="0.362637" stop-color="#8E8C8C"/>
<stop offset="0.538462" stop-color="#9F9D9E"/>
<stop offset="0.868132" stop-color="#A5A4A4"/>
<stop offset="1" stop-color="#9A9899"/>
</linearGradient>
<linearGradient id="paint12_linear_8_39970" x1="167.687" y1="10.1461" x2="167.687" y2="94.9802" gradientUnits="userSpaceOnUse">
<stop stop-color="#E5E4E4"/>
<stop offset="0.662304" stop-color="white"/>
<stop offset="1" stop-color="white"/>
</linearGradient>
<linearGradient id="paint13_linear_8_39970" x1="47.8186" y1="120.966" x2="47.8186" y2="31.8219" gradientUnits="userSpaceOnUse">
<stop stop-color="#AAA9A9"/>
<stop offset="0.010989" stop-color="#AAA9A9"/>
<stop offset="0.21978" stop-color="#AEACAD"/>
<stop offset="0.362637" stop-color="#A09E9F"/>
<stop offset="0.538462" stop-color="#B4B3B3"/>
<stop offset="0.868132" stop-color="#BBBABA"/>
<stop offset="1" stop-color="#AEACAD"/>
</linearGradient>
<linearGradient id="paint14_linear_8_39970" x1="45.0572" y1="43.2883" x2="45.0572" y2="81.3699" gradientUnits="userSpaceOnUse">
<stop stop-color="#717F8A"/>
<stop offset="1" stop-color="#D0E2EE"/>
</linearGradient>
<linearGradient id="paint15_linear_8_39970" x1="47.8188" y1="120.966" x2="47.8188" y2="31.822" gradientUnits="userSpaceOnUse">
<stop stop-color="#AAA9A9"/>
<stop offset="0.010989" stop-color="#AAA9A9"/>
<stop offset="0.21978" stop-color="#AEACAD"/>
<stop offset="0.362637" stop-color="#A09E9F"/>
<stop offset="0.538462" stop-color="#B4B3B3"/>
<stop offset="0.868132" stop-color="#BBBABA"/>
<stop offset="1" stop-color="#AEACAD"/>
</linearGradient>
<linearGradient id="paint16_linear_8_39970" x1="45.0563" y1="43.2883" x2="45.0563" y2="81.37" gradientUnits="userSpaceOnUse">
<stop stop-color="#57616A"/>
<stop offset="1" stop-color="#9AA7B0"/>
</linearGradient>
<linearGradient id="paint17_linear_8_39970" x1="45.0556" y1="43.2884" x2="45.0556" y2="81.3701" gradientUnits="userSpaceOnUse">
<stop stop-color="#57616A"/>
<stop offset="1" stop-color="#9AA7B0"/>
</linearGradient>
<linearGradient id="paint18_linear_8_39970" x1="45.0564" y1="43.2884" x2="45.0564" y2="81.37" gradientUnits="userSpaceOnUse">
<stop stop-color="#57616A"/>
<stop offset="1" stop-color="#9AA7B0"/>
</linearGradient>
</defs>
</svg>
