<svg width="22" height="19" viewBox="0 0 22 19" fill="none" xmlns="http://www.w3.org/2000/svg">
<g id="elements">
<path id="Vector 5016" d="M9 6.5V8.5" stroke="#111928" stroke-width="1.5" stroke-linecap="round"/>
<circle id="Ellipse 1647" cx="16" cy="15.5" r="2" stroke="#111928" stroke-width="1.5"/>
<circle id="Ellipse 1648" cx="6" cy="15.5" r="2" stroke="#111928" stroke-width="1.5"/>
<path id="Vector 5060" d="M4 15.4724C2.90328 15.4178 2.2191 15.2546 1.73223 14.7678C1 14.0355 1 12.857 1 10.5L1 6.5C1 4.14298 1 2.96447 1.73223 2.23223C2.46447 1.5 3.64298 1.5 6 1.5L9.3 1.5C10.4168 1.5 10.9752 1.5 11.4271 1.64683C12.3404 1.94358 13.0564 2.65964 13.3532 3.57295C13.5 4.02485 13.5 4.58323 13.5 5.7C13.5 6.44451 13.5 6.81677 13.5979 7.11803C13.7957 7.72691 14.2731 8.20428 14.882 8.40211C15.1832 8.5 15.5555 8.5 16.3 8.5L21 8.5L21 10.5C21 12.857 21 14.0355 20.2678 14.7678C19.7809 15.2546 19.0967 15.4178 18 15.4724M8 15.5L14 15.5" stroke="#111928" stroke-width="1.5" stroke-linecap="round" stroke-linejoin="round"/>
<path id="Vector 5061" d="M13.5 3.5L15.3212 3.5C16.7766 3.5 17.5042 3.5 18.0964 3.85371C18.6886 4.20742 19.0336 4.84811 19.7236 6.1295L21 8.5" stroke="#111928" stroke-width="1.5" stroke-linecap="round" stroke-linejoin="round"/>
<path id="Vector 5017" d="M5 6.5L5 8.5" stroke="#111928" stroke-width="1.5" stroke-linecap="round"/>
</g>
</svg>
