<svg width="16" height="14" viewBox="0 0 16 14" fill="none" xmlns="http://www.w3.org/2000/svg">
<g id="elements">
<path id="Vector 6095" d="M1.66699 7L3.00033 7.66667" stroke="#6B7280" stroke-width="1.3" stroke-linecap="round" stroke-linejoin="round"/>
<path id="Vector 6096" d="M14.3335 7.33325L13.0002 7.66659" stroke="#6B7280" stroke-width="1.3" stroke-linecap="round" stroke-linejoin="round"/>
<path id="Vector" d="M5.3335 10.6667L5.49728 10.2572C5.74084 9.64832 5.86262 9.34387 6.11657 9.17193C6.37052 9 6.69842 9 7.35423 9H8.6461C9.3019 9 9.62981 9 9.88376 9.17193C10.1377 9.34387 10.2595 9.64832 10.5031 10.2572L10.6668 10.6667" stroke="#6B7280" stroke-width="1.3" stroke-linecap="round" stroke-linejoin="round"/>
<path id="Vector_2" d="M1.3335 10.3333L1.3335 12.2546C1.3335 12.5071 1.494 12.7379 1.74809 12.8508C1.91295 12.9241 2.07042 12.9999 2.26055 12.9999H3.40645C3.59657 12.9999 3.75404 12.9241 3.91891 12.8508C4.17299 12.7379 4.3335 12.5071 4.3335 12.2546V10.9999" stroke="#6B7280" stroke-width="1.3" stroke-linecap="round" stroke-linejoin="round"/>
<path id="Vector_3" d="M11.667 10.9999V12.2546C11.667 12.5071 11.8275 12.7379 12.0816 12.8508C12.2464 12.9241 12.4039 12.9999 12.594 12.9999H13.7399C13.9301 12.9999 14.0875 12.9241 14.2524 12.8508C14.5065 12.7379 14.667 12.5071 14.667 12.2546V10.3333" stroke="#6B7280" stroke-width="1.3" stroke-linecap="round" stroke-linejoin="round"/>
<path id="Vector 6097" d="M13.3335 4.66658L14.0002 4.33325" stroke="#6B7280" stroke-width="1.3" stroke-linecap="round" stroke-linejoin="round"/>
<path id="Vector 6098" d="M2.66699 4.66658L2.00033 4.33325" stroke="#6B7280" stroke-width="1.3" stroke-linecap="round" stroke-linejoin="round"/>
<path id="Vector_4" d="M3 5L3.72554 2.82339C4.01888 1.94337 4.16555 1.50335 4.51473 1.25168C4.86392 1 5.32773 1 6.25536 1L9.74464 1C10.6723 1 11.1361 1 11.4853 1.25168C11.8345 1.50335 11.9811 1.94337 12.2745 2.82339L13 5" stroke="#6B7280" stroke-width="1.3" stroke-linejoin="round"/>
<path id="Vector_5" d="M3.00016 5L13.0002 5C13.6383 5.67568 14.6668 6.61663 14.6668 7.66641L14.6668 9.98012C14.6668 10.3604 14.4138 10.6805 14.0781 10.725L12.0002 11L4.00016 11L1.92227 10.725C1.58653 10.6805 1.3335 10.3604 1.3335 9.98012L1.3335 7.66641C1.3335 6.61663 2.36202 5.67568 3.00016 5Z" stroke="#6B7280" stroke-width="1.3" stroke-linejoin="round"/>
</g>
</svg>
