<svg width="24" height="24" viewBox="0 0 24 24" fill="none" xmlns="http://www.w3.org/2000/svg">
<path d="M5.97465 10.0519C7.18998 7.90144 8.07275 6.34143 8.85474 5.24486C9.63942 4.1445 10.2386 3.63645 10.8345 3.43862C11.5922 3.18713 12.4078 3.18713 13.1655 3.43862C13.7614 3.63645 14.3606 4.1445 15.1453 5.24486C15.9272 6.34143 16.81 7.90144 18.0253 10.0519C19.2406 12.2023 20.1218 13.7635 20.6605 15.004C21.2002 16.2467 21.3354 17.0379 21.2025 17.6766C21.0349 18.4821 20.6225 19.2102 20.0273 19.7577C19.5598 20.1877 18.8315 20.4621 17.5115 20.6056C16.193 20.7489 14.4314 20.75 12 20.75C9.5686 20.75 7.80696 20.7489 6.48854 20.6056C5.16851 20.4621 4.44015 20.1877 3.97271 19.7577C3.37754 19.2102 2.9651 18.4821 2.7975 17.6766C2.66462 17.0379 2.79983 16.2467 3.3395 15.004C3.87824 13.7635 4.75941 12.2023 5.97465 10.0519Z" stroke="#FACA15" stroke-width="1.5"/>
<path d="M11.992 16H12.001" stroke="#FACA15" stroke-width="2" stroke-linecap="round" stroke-linejoin="round"/>
<path d="M12 13L12 9" stroke="#FACA15" stroke-width="1.5" stroke-linecap="round" stroke-linejoin="round"/>
</svg>
