<svg width="22" height="23" viewBox="0 0 22 23" fill="none" xmlns="http://www.w3.org/2000/svg">
<g id="elements">
<path id="Rectangle 1875" d="M19 5.5V17.5M17 3.5H5M17 19.5H5M3 17.5V5.5" stroke="#111928" stroke-width="1.5" stroke-linecap="round" stroke-linejoin="round"/>
<path id="Ellipse 1381" d="M21 3.5C21 4.60457 20.1046 5.5 19 5.5C17.8954 5.5 17 4.60457 17 3.5C17 2.39543 17.8954 1.5 19 1.5C20.1046 1.5 21 2.39543 21 3.5Z" stroke="#111928" stroke-width="1.5"/>
<path id="Ellipse 1382" d="M5 3.5C5 4.60457 4.10457 5.5 3 5.5C1.89543 5.5 1 4.60457 1 3.5C1 2.39543 1.89543 1.5 3 1.5C4.10457 1.5 5 2.39543 5 3.5Z" stroke="#111928" stroke-width="1.5"/>
<path id="Ellipse 1383" d="M21 19.5C21 20.6046 20.1046 21.5 19 21.5C17.8954 21.5 17 20.6046 17 19.5C17 18.3954 17.8954 17.5 19 17.5C20.1046 17.5 21 18.3954 21 19.5Z" stroke="#111928" stroke-width="1.5"/>
<path id="Ellipse 1384" d="M5 19.5C5 20.6046 4.10457 21.5 3 21.5C1.89543 21.5 1 20.6046 1 19.5C1 18.3954 1.89543 17.5 3 17.5C4.10457 17.5 5 18.3954 5 19.5Z" stroke="#111928" stroke-width="1.5"/>
</g>
</svg>
